<svg width="163" height="36" viewBox="0 0 163 36" fill="none" xmlns="http://www.w3.org/2000/svg">
<path d="M11.25 31.445C11.25 30.7575 11.4948 30.1689 11.9844 29.6794C12.474 29.1898 13.0625 28.945 13.75 28.945V22.445C13.5 22.3408 13.2656 22.221 13.0469 22.0856C12.8281 21.9502 12.625 21.7991 12.4375 21.6325L9.6875 23.3825C9.39583 23.5491 9.07812 23.6585 8.73438 23.7106C8.39062 23.7627 8.04167 23.7366 7.6875 23.6325L2.0625 22.0387C1.45833 21.8721 0.963542 21.5335 0.578125 21.0231C0.192708 20.5127 0 19.9346 0 19.2887C0 18.4971 0.276042 17.8252 0.828125 17.2731C1.38021 16.721 2.05208 16.445 2.84375 16.445H12.25C12.4583 16.2158 12.6875 16.0179 12.9375 15.8512C13.1875 15.6846 13.4583 15.5491 13.75 15.445V11.1637C13.75 10.8096 13.8177 10.4762 13.9531 10.1637C14.0885 9.85123 14.2812 9.58039 14.5312 9.35123L18.8125 5.35123C19.2917 4.8929 19.849 4.63248 20.4844 4.56998C21.1198 4.50748 21.7083 4.6429 22.25 4.97623C22.9167 5.3929 23.349 5.98144 23.5469 6.74185C23.7448 7.50227 23.6354 8.21581 23.2188 8.88248L18.25 17.1012C18.3958 17.3512 18.5052 17.6221 18.5781 17.9137C18.651 18.2054 18.6979 18.5075 18.7188 18.82L22.0938 19.6325C22.4271 19.7158 22.7292 19.8616 23 20.07C23.2708 20.2783 23.4896 20.5283 23.6562 20.82L26.5 25.945C26.8125 26.5075 26.9271 27.1012 26.8438 27.7262C26.7604 28.3512 26.4896 28.8929 26.0312 29.3512C25.4688 29.9137 24.7969 30.195 24.0156 30.195C23.2344 30.195 22.5625 29.9137 22 29.3512L16.25 23.6012V28.945C16.9375 28.945 17.526 29.1898 18.0156 29.6794C18.5052 30.1689 18.75 30.7575 18.75 31.445H11.25ZM3.75 8.94498V6.44498H11.25V8.94498H3.75ZM16.25 11.1637V15.445C16.2708 15.445 16.2865 15.4502 16.2969 15.4606C16.3073 15.471 16.3229 15.4762 16.3438 15.4762L21.0938 7.56998C21.1354 7.48665 21.1458 7.3981 21.125 7.30435C21.1042 7.2106 21.0521 7.1429 20.9688 7.10123C20.9062 7.05956 20.8281 7.04915 20.7344 7.06998C20.6406 7.09081 20.5729 7.12206 20.5312 7.16373L16.25 11.1637ZM0 13.945V11.445H6.25V13.945H0ZM15 20.195C15.3542 20.195 15.651 20.0752 15.8906 19.8356C16.1302 19.596 16.25 19.2991 16.25 18.945C16.25 18.5908 16.1302 18.2939 15.8906 18.0544C15.651 17.8148 15.3542 17.695 15 17.695C14.6458 17.695 14.349 17.8148 14.1094 18.0544C13.8698 18.2939 13.75 18.5908 13.75 18.945C13.75 19.2991 13.8698 19.596 14.1094 19.8356C14.349 20.0752 14.6458 20.195 15 20.195ZM8.40625 21.2575L11.3125 19.5075C11.2917 19.4033 11.2812 19.3096 11.2812 19.2262C11.2812 19.1429 11.2812 19.0491 11.2812 18.945H2.84375C2.73958 18.945 2.65625 18.9762 2.59375 19.0387C2.53125 19.1012 2.5 19.1846 2.5 19.2887C2.5 19.3721 2.52083 19.445 2.5625 19.5075C2.60417 19.57 2.66667 19.6116 2.75 19.6325L8.40625 21.2575ZM21.5 22.0387L17.9375 21.2262C17.8958 21.2679 17.8542 21.32 17.8125 21.3825C17.7708 21.445 17.7292 21.4971 17.6875 21.5387L23.7812 27.6012C23.8438 27.6637 23.9271 27.695 24.0312 27.695C24.1354 27.695 24.2188 27.6637 24.2812 27.6012C24.3438 27.5387 24.3802 27.471 24.3906 27.3981C24.401 27.3252 24.3854 27.2471 24.3438 27.1637L21.5 22.0387ZM2.5 28.945V26.445H8.75V28.945H2.5Z" fill="#101622"/>
<path d="M35.2301 25L38.9101 11H43.5101L47.1901 25H44.4701L43.7101 21.92H38.7101L37.9501 25H35.2301ZM39.3301 19.48H43.0901L41.3901 12.66H41.0301L39.3301 19.48ZM48.8701 25V11H57.8701V13.4H51.5101V16.74H57.3101V19.14H51.5101V22.6H57.9901V25H48.8701ZM59.9501 25V11H66.0301C66.9101 11 67.6768 11.1533 68.3301 11.46C68.9835 11.7667 69.4901 12.2 69.8501 12.76C70.2101 13.32 70.3901 13.98 70.3901 14.74V14.98C70.3901 15.82 70.1901 16.5 69.7901 17.02C69.3901 17.54 68.8968 17.92 68.3101 18.16V18.52C68.8435 18.5467 69.2568 18.73 69.5501 19.07C69.8435 19.41 69.9901 19.86 69.9901 20.42V25H67.3501V20.8C67.3501 20.48 67.2668 20.22 67.1001 20.02C66.9335 19.82 66.6568 19.72 66.2701 19.72H62.5901V25H59.9501ZM62.5901 17.32H65.7501C66.3768 17.32 66.8668 17.15 67.2201 16.81C67.5735 16.47 67.7501 16.02 67.7501 15.46V15.26C67.7501 14.7 67.5768 14.25 67.2301 13.91C66.8835 13.57 66.3901 13.4 65.7501 13.4H62.5901V17.32ZM78.0301 25.28C76.2701 25.28 74.8701 24.7967 73.8301 23.83C72.7901 22.8633 72.2701 21.48 72.2701 19.68V16.32C72.2701 14.52 72.7901 13.1367 73.8301 12.17C74.8701 11.2033 76.2701 10.72 78.0301 10.72C79.7901 10.72 81.1901 11.2033 82.2301 12.17C83.2701 13.1367 83.7901 14.52 83.7901 16.32V19.68C83.7901 21.48 83.2701 22.8633 82.2301 23.83C81.1901 24.7967 79.7901 25.28 78.0301 25.28ZM78.0301 22.92C79.0168 22.92 79.7835 22.6333 80.3301 22.06C80.8768 21.4867 81.1501 20.72 81.1501 19.76V16.24C81.1501 15.28 80.8768 14.5133 80.3301 13.94C79.7835 13.3667 79.0168 13.08 78.0301 13.08C77.0568 13.08 76.2935 13.3667 75.7401 13.94C75.1868 14.5133 74.9101 15.28 74.9101 16.24V19.76C74.9101 20.72 75.1868 21.4867 75.7401 22.06C76.2935 22.6333 77.0568 22.92 78.0301 22.92ZM90.9701 25.28C89.8901 25.28 88.9368 25.0867 88.1101 24.7C87.2834 24.3133 86.6368 23.76 86.1701 23.04C85.7034 22.32 85.4701 21.4533 85.4701 20.44V19.88H88.0701V20.44C88.0701 21.28 88.3301 21.91 88.8501 22.33C89.3701 22.75 90.0768 22.96 90.9701 22.96C91.8768 22.96 92.5534 22.78 93.0001 22.42C93.4468 22.06 93.6701 21.6 93.6701 21.04C93.6701 20.6533 93.5601 20.34 93.3401 20.1C93.1201 19.86 92.8001 19.6633 92.3801 19.51C91.9601 19.3567 91.4501 19.2133 90.8501 19.08L90.3901 18.98C89.4301 18.7667 88.6068 18.4967 87.9201 18.17C87.2334 17.8433 86.7068 17.4133 86.3401 16.88C85.9734 16.3467 85.7901 15.6533 85.7901 14.8C85.7901 13.9467 85.9934 13.2167 86.4001 12.61C86.8068 12.0033 87.3801 11.5367 88.1201 11.21C88.8601 10.8833 89.7301 10.72 90.7301 10.72C91.7301 10.72 92.6201 10.89 93.4001 11.23C94.1801 11.57 94.7934 12.0767 95.2401 12.75C95.6868 13.4233 95.9101 14.2667 95.9101 15.28V15.88H93.3101V15.28C93.3101 14.7467 93.2068 14.3167 93.0001 13.99C92.7934 13.6633 92.4968 13.4233 92.1101 13.27C91.7234 13.1167 91.2634 13.04 90.7301 13.04C89.9301 13.04 89.3401 13.19 88.9601 13.49C88.5801 13.79 88.3901 14.2 88.3901 14.72C88.3901 15.0667 88.4801 15.36 88.6601 15.6C88.8401 15.84 89.1101 16.04 89.4701 16.2C89.8301 16.36 90.2901 16.5 90.8501 16.62L91.3101 16.72C92.3101 16.9333 93.1801 17.2067 93.9201 17.54C94.6601 17.8733 95.2368 18.3133 95.6501 18.86C96.0634 19.4067 96.2701 20.1067 96.2701 20.96C96.2701 21.8133 96.0534 22.5633 95.6201 23.21C95.1868 23.8567 94.5734 24.3633 93.7801 24.73C92.9868 25.0967 92.0501 25.28 90.9701 25.28ZM101.03 25V13.4H96.9501V11H107.75V13.4H103.67V25H101.03ZM109.55 25V11H115.63C116.51 11 117.277 11.1533 117.93 11.46C118.583 11.7667 119.09 12.2 119.45 12.76C119.81 13.32 119.99 13.98 119.99 14.74V14.98C119.99 15.82 119.79 16.5 119.39 17.02C118.99 17.54 118.497 17.92 117.91 18.16V18.52C118.443 18.5467 118.857 18.73 119.15 19.07C119.443 19.41 119.59 19.86 119.59 20.42V25H116.95V20.8C116.95 20.48 116.867 20.22 116.7 20.02C116.533 19.82 116.257 19.72 115.87 19.72H112.19V25H109.55ZM112.19 17.32H115.35C115.977 17.32 116.467 17.15 116.82 16.81C117.173 16.47 117.35 16.02 117.35 15.46V15.26C117.35 14.7 117.177 14.25 116.83 13.91C116.483 13.57 115.99 13.4 115.35 13.4H112.19V17.32ZM122.19 25V11H131.19V13.4H124.83V16.74H130.63V19.14H124.83V22.6H131.31V25H122.19ZM132.31 25L135.99 11H140.59L144.27 25H141.55L140.79 21.92H135.79L135.03 25H132.31ZM136.41 19.48H140.17L138.47 12.66H138.11L136.41 19.48ZM145.95 25V11H150.85L153.27 23.2H153.63L156.05 11H160.95V25H158.39V12.94H158.03L155.63 25H151.27L148.87 12.94H148.51V25H145.95Z" fill="#101622"/>
</svg>
