<svg width="424" height="234" viewBox="0 0 424 234" fill="none" xmlns="http://www.w3.org/2000/svg">
<rect x="12.5" y="2.5" width="399" height="209" rx="31.5" fill="white"/>
<rect x="12.5" y="2.5" width="399" height="209" rx="31.5" stroke="#E5E7EB"/>
<g filter="url(#filter0_dd_23_1702)">
<rect x="12" y="2" width="400" height="210" rx="32" fill="white" fill-opacity="0.01" shape-rendering="crispEdges"/>
</g>
<g clip-path="url(#clip0_23_1702)">
<rect x="21" y="11" width="382" height="192" rx="24" fill="#F5F7F8"/>
<mask id="path-4-inside-1_23_1702" fill="white">
<path d="M21 11H212V203H21V11Z"/>
</mask>
<path d="M21 11H212V203H21V11Z" fill="white"/>
<path d="M212 11H211V203H212H213V11H212Z" fill="#E5E7EB" mask="url(#path-4-inside-1_23_1702)"/>
<rect x="85" y="64.5" width="62" height="62" rx="15" stroke="#D1D5DB" stroke-width="2" stroke-dasharray="6 4"/>
<path d="M115 102.925V96.075L109 92.6V99.45L115 102.925ZM117 102.925L123 99.45V92.6L117 96.075V102.925ZM116 94.35L121.925 90.925L116 87.5L110.075 90.925L116 94.35ZM108 101.2C107.683 101.017 107.438 100.775 107.262 100.475C107.087 100.175 107 99.8417 107 99.475V91.525C107 91.1583 107.087 90.825 107.262 90.525C107.438 90.225 107.683 89.9833 108 89.8L115 85.775C115.317 85.5917 115.65 85.5 116 85.5C116.35 85.5 116.683 85.5917 117 85.775L124 89.8C124.317 89.9833 124.562 90.225 124.737 90.525C124.912 90.825 125 91.1583 125 91.525V99.475C125 99.8417 124.912 100.175 124.737 100.475C124.562 100.775 124.317 101.017 124 101.2L117 105.225C116.683 105.408 116.35 105.5 116 105.5C115.65 105.5 115.317 105.408 115 105.225L108 101.2Z" fill="#9CA3AF"/>
<path d="M83.7568 138.913H88.2295V140.026H86.7109V144.387H88.2295V145.5H83.7568V144.387H85.2754V140.026H83.7568V138.913ZM92.6436 145.5L90.7686 140.568C90.7946 140.803 90.8174 141.027 90.8369 141.242C90.8467 141.333 90.8556 141.428 90.8638 141.525C90.8719 141.623 90.8792 141.718 90.8857 141.811C90.8923 141.904 90.8971 141.992 90.9004 142.075C90.9036 142.158 90.9053 142.232 90.9053 142.297V145.5H89.6504V138.913H91.2959L93.2148 143.977C93.1888 143.758 93.166 143.542 93.1465 143.327C93.1302 143.142 93.1147 142.947 93.1001 142.744C93.0854 142.54 93.0781 142.357 93.0781 142.194V138.913H94.333V145.5H92.6436ZM100.568 140.993C100.568 141.289 100.519 141.57 100.419 141.835C100.32 142.101 100.168 142.333 99.9629 142.531C99.7578 142.73 99.4974 142.887 99.1816 143.002C98.8659 143.118 98.4915 143.176 98.0586 143.176H97.0967V145.5H95.6562V138.913H98C98.4395 138.913 98.8203 138.961 99.1426 139.057C99.4648 139.153 99.7318 139.291 99.9434 139.47C100.155 139.649 100.312 139.867 100.415 140.124C100.517 140.381 100.568 140.671 100.568 140.993ZM99.1182 141.018C99.1182 140.663 99.0116 140.41 98.7983 140.258C98.5851 140.107 98.2653 140.031 97.8389 140.031H97.0967V142.067H97.8779C98.3076 142.067 98.6217 141.979 98.8203 141.801C99.0189 141.624 99.1182 141.363 99.1182 141.018ZM103.918 145.598C103.563 145.598 103.243 145.553 102.958 145.463C102.674 145.374 102.433 145.226 102.236 145.019C102.039 144.812 101.888 144.538 101.782 144.196C101.676 143.854 101.623 143.43 101.623 142.922V138.913H103.063V142.907C103.063 143.197 103.08 143.442 103.112 143.642C103.145 143.842 103.196 144.003 103.266 144.125C103.336 144.248 103.428 144.335 103.542 144.389C103.656 144.443 103.794 144.47 103.957 144.47C104.12 144.47 104.261 144.441 104.382 144.384C104.502 144.327 104.603 144.235 104.685 144.108C104.766 143.981 104.826 143.815 104.865 143.61C104.904 143.405 104.924 143.155 104.924 142.858V138.913H106.364V142.849C106.364 143.356 106.307 143.785 106.193 144.135C106.079 144.485 105.916 144.768 105.703 144.985C105.489 145.201 105.232 145.358 104.931 145.454C104.63 145.55 104.292 145.598 103.918 145.598ZM110.715 140.026V145.5H109.274V140.026H107.292V138.913H112.697V140.026H110.715ZM123.43 145.5V141.262C123.43 141.096 123.434 140.926 123.442 140.754C123.45 140.581 123.459 140.424 123.469 140.28C123.482 140.114 123.495 139.951 123.508 139.792C123.462 140.017 123.418 140.233 123.376 140.441C123.356 140.529 123.337 140.62 123.317 140.715C123.298 140.809 123.278 140.901 123.259 140.991C123.239 141.08 123.22 141.165 123.2 141.245C123.181 141.324 123.161 141.395 123.142 141.457L122.536 143.742H121.472L120.856 141.457C120.843 141.408 120.827 141.346 120.808 141.271C120.788 141.197 120.769 141.115 120.749 141.027C120.729 140.939 120.709 140.848 120.688 140.754C120.667 140.66 120.646 140.567 120.627 140.476C120.581 140.261 120.534 140.033 120.485 139.792C120.495 139.948 120.507 140.111 120.52 140.28C120.529 140.427 120.537 140.585 120.544 140.756C120.55 140.927 120.554 141.096 120.554 141.262V145.5H119.479V138.913H121.174L121.833 141.35C121.859 141.434 121.883 141.54 121.904 141.667C121.925 141.794 121.944 141.918 121.96 142.038C121.979 142.178 121.999 142.325 122.019 142.478C122.038 142.325 122.059 142.178 122.082 142.038C122.102 141.918 122.123 141.795 122.146 141.669C122.168 141.544 122.191 141.439 122.214 141.354L122.878 138.913H124.514V145.5H123.43ZM130.646 142.185C130.646 143.308 130.419 144.157 129.963 144.733C129.507 145.31 128.853 145.598 128 145.598C127.147 145.598 126.492 145.31 126.035 144.733C125.577 144.157 125.349 143.308 125.349 142.185C125.349 141.062 125.577 140.218 126.035 139.655C126.492 139.092 127.147 138.811 128 138.811C128.853 138.811 129.507 139.092 129.963 139.655C130.419 140.218 130.646 141.062 130.646 142.185ZM129.187 142.185C129.187 141.426 129.087 140.863 128.889 140.495C128.69 140.127 128.394 139.943 128 139.943C127.606 139.943 127.309 140.13 127.109 140.502C126.909 140.875 126.809 141.436 126.809 142.185C126.809 142.933 126.909 143.5 127.109 143.886C127.309 144.272 127.606 144.465 128 144.465C128.394 144.465 128.69 144.272 128.889 143.886C129.087 143.5 129.187 142.933 129.187 142.185ZM136.608 142.155C136.608 142.702 136.543 143.184 136.413 143.601C136.283 144.017 136.094 144.366 135.847 144.648C135.599 144.93 135.296 145.142 134.936 145.285C134.576 145.428 134.169 145.5 133.713 145.5H131.657V138.913H133.42C133.934 138.913 134.39 138.977 134.787 139.104C135.184 139.23 135.518 139.426 135.788 139.689C136.058 139.953 136.263 140.289 136.401 140.698C136.539 141.106 136.608 141.592 136.608 142.155ZM135.158 142.155C135.158 141.774 135.122 141.45 135.051 141.181C134.979 140.913 134.871 140.693 134.726 140.522C134.581 140.351 134.398 140.226 134.177 140.146C133.955 140.066 133.695 140.026 133.396 140.026H133.098V144.387H133.596C134.123 144.387 134.515 144.2 134.772 143.828C135.03 143.455 135.158 142.897 135.158 142.155ZM137.668 145.5V138.913H142.395V140.026H139.108V141.608H142.097V142.722H139.108V144.387H142.595V145.5H137.668ZM144.03 145.5V138.913H145.471V144.387H148.479V145.5H144.03Z" fill="#6B7280"/>
<rect width="191" height="192" transform="translate(212 11)" fill="#1B69AC" fill-opacity="0.05"/>
<g filter="url(#filter1_d_23_1702)">
<rect x="275.5" y="63.5" width="64" height="64" rx="16" fill="white" shape-rendering="crispEdges"/>
<rect x="276" y="64" width="63" height="63" rx="15.5" stroke="#1B69AC" stroke-opacity="0.2" shape-rendering="crispEdges"/>
<path d="M306.5 102.975L301.5 100.1C301.183 99.9167 300.938 99.675 300.763 99.375C300.588 99.075 300.5 98.7417 300.5 98.375V92.625C300.5 92.2583 300.588 91.925 300.763 91.625C300.938 91.325 301.183 91.0833 301.5 90.9L306.5 88.025C306.817 87.8417 307.15 87.75 307.5 87.75C307.85 87.75 308.183 87.8417 308.5 88.025L313.5 90.9C313.817 91.0833 314.062 91.325 314.237 91.625C314.412 91.925 314.5 92.2583 314.5 92.625V98.375C314.5 98.7417 314.412 99.075 314.237 99.375C314.062 99.675 313.817 99.9167 313.5 100.1L308.5 102.975C308.183 103.158 307.85 103.25 307.5 103.25C307.15 103.25 306.817 103.158 306.5 102.975ZM306.5 100.675V96.075L302.5 93.75V98.375L306.5 100.675ZM308.5 100.675L312.5 98.375V93.75L308.5 96.075V100.675ZM297.5 90.5V87.5C297.5 86.95 297.696 86.4792 298.087 86.0875C298.479 85.6958 298.95 85.5 299.5 85.5H302.5V87.5H299.5V90.5H297.5ZM302.5 105.5H299.5C298.95 105.5 298.479 105.304 298.087 104.913C297.696 104.521 297.5 104.05 297.5 103.5V100.5H299.5V103.5H302.5V105.5ZM312.5 105.5V103.5H315.5V100.5H317.5V103.5C317.5 104.05 317.304 104.521 316.913 104.913C316.521 105.304 316.05 105.5 315.5 105.5H312.5ZM315.5 90.5V87.5H312.5V85.5H315.5C316.05 85.5 316.521 85.6958 316.913 86.0875C317.304 86.4792 317.5 86.95 317.5 87.5V90.5H315.5ZM307.5 94.35L311.45 92.025L307.5 89.75L303.55 92.025L307.5 94.35Z" fill="#1B69AC"/>
</g>
<path d="M258.741 140.026V141.901H261.773V143.015H258.741V145.5H257.301V138.913H261.886V140.026H258.741ZM268.487 145.5H267.052L266.603 143.889H264.376L263.927 145.5H262.486L264.649 138.913H266.329L268.487 145.5ZM265.489 139.802C265.483 139.834 265.471 139.891 265.453 139.973C265.435 140.054 265.413 140.147 265.387 140.251C265.361 140.355 265.332 140.468 265.301 140.59C265.27 140.712 265.239 140.832 265.206 140.949L264.679 142.805H266.3L265.772 140.949C265.74 140.832 265.708 140.712 265.677 140.59C265.646 140.468 265.618 140.355 265.592 140.251C265.566 140.147 265.544 140.054 265.526 139.973C265.508 139.891 265.496 139.834 265.489 139.802ZM274.278 143.62C274.278 143.955 274.216 144.242 274.093 144.479C273.969 144.717 273.803 144.912 273.595 145.063C273.386 145.214 273.145 145.325 272.87 145.395C272.595 145.465 272.304 145.5 271.998 145.5H269.156V138.913H271.72C272.058 138.913 272.361 138.946 272.628 139.013C272.895 139.08 273.121 139.182 273.307 139.318C273.492 139.455 273.635 139.628 273.734 139.836C273.833 140.044 273.883 140.288 273.883 140.568C273.883 140.943 273.775 141.258 273.561 141.513C273.346 141.769 273.015 141.944 272.569 142.038C273.126 142.097 273.55 142.263 273.841 142.536C274.133 142.81 274.278 143.171 274.278 143.62ZM272.433 140.764C272.433 140.48 272.359 140.279 272.213 140.161C272.066 140.042 271.868 139.982 271.617 139.982H270.597V141.54H271.627C271.891 141.54 272.091 141.475 272.228 141.345C272.364 141.215 272.433 141.021 272.433 140.764ZM272.828 143.498C272.828 143.329 272.8 143.187 272.745 143.073C272.69 142.959 272.616 142.867 272.523 142.797C272.43 142.727 272.323 142.678 272.201 142.648C272.079 142.619 271.951 142.604 271.817 142.604H270.597V144.431H271.852C271.982 144.431 272.106 144.416 272.225 144.387C272.344 144.357 272.448 144.308 272.538 144.238C272.627 144.168 272.698 144.073 272.75 143.952C272.802 143.832 272.828 143.68 272.828 143.498ZM278.858 145.5L277.442 142.985H276.598V145.5H275.157V138.913H277.569C278.429 138.913 279.072 139.081 279.498 139.416C279.924 139.751 280.138 140.235 280.138 140.866C280.138 141.107 280.104 141.325 280.035 141.521C279.967 141.716 279.872 141.888 279.752 142.036C279.632 142.184 279.488 142.311 279.322 142.417C279.156 142.522 278.974 142.604 278.775 142.663L280.479 145.5H278.858ZM278.688 140.925C278.688 140.759 278.659 140.619 278.602 140.505C278.545 140.391 278.463 140.299 278.355 140.229C278.248 140.159 278.115 140.109 277.958 140.078C277.8 140.047 277.62 140.031 277.418 140.031H276.598V141.867H277.457C277.887 141.867 278.199 141.787 278.395 141.625C278.59 141.464 278.688 141.231 278.688 140.925ZM281.256 138.913H285.729V140.026H284.21V144.387H285.729V145.5H281.256V144.387H282.774V140.026H281.256V138.913ZM288.346 142.175C288.346 142.907 288.46 143.472 288.688 143.869C288.915 144.266 289.256 144.465 289.708 144.465C289.854 144.465 289.988 144.436 290.108 144.377C290.229 144.318 290.337 144.236 290.433 144.13C290.529 144.025 290.614 143.898 290.687 143.752C290.76 143.605 290.825 143.446 290.88 143.273L292.213 143.527C292.112 143.85 291.986 144.139 291.834 144.394C291.683 144.65 291.504 144.866 291.297 145.043C291.091 145.221 290.855 145.358 290.589 145.454C290.324 145.55 290.025 145.598 289.693 145.598C289.199 145.598 288.774 145.515 288.419 145.351C288.064 145.187 287.773 144.955 287.545 144.655C287.317 144.356 287.149 143.996 287.042 143.576C286.935 143.156 286.881 142.689 286.881 142.175C286.881 141.631 286.936 141.151 287.047 140.734C287.158 140.318 287.328 139.966 287.557 139.68C287.787 139.393 288.076 139.177 288.424 139.03C288.772 138.884 289.182 138.811 289.654 138.811C289.993 138.811 290.293 138.858 290.555 138.952C290.817 139.047 291.047 139.178 291.244 139.345C291.441 139.513 291.607 139.713 291.744 139.946C291.881 140.179 291.992 140.433 292.076 140.71L290.748 141.032C290.706 140.876 290.651 140.731 290.584 140.598C290.518 140.464 290.439 140.349 290.348 140.251C290.257 140.153 290.155 140.078 290.042 140.024C289.93 139.97 289.807 139.943 289.674 139.943C289.231 139.943 288.899 140.131 288.678 140.507C288.456 140.883 288.346 141.439 288.346 142.175ZM298.492 145.5H297.057L296.607 143.889H294.381L293.932 145.5H292.491L294.654 138.913H296.334L298.492 145.5ZM295.494 139.802C295.488 139.834 295.475 139.891 295.458 139.973C295.44 140.054 295.418 140.147 295.392 140.251C295.366 140.355 295.337 140.468 295.306 140.59C295.275 140.712 295.243 140.832 295.211 140.949L294.684 142.805H296.305L295.777 140.949C295.745 140.832 295.713 140.712 295.682 140.59C295.651 140.468 295.623 140.355 295.597 140.251C295.571 140.147 295.549 140.054 295.531 139.973C295.513 139.891 295.501 139.834 295.494 139.802ZM302.213 140.026V145.5H300.772V140.026H298.79V138.913H304.195V140.026H302.213ZM305.26 138.913H309.732V140.026H308.214V144.387H309.732V145.5H305.26V144.387H306.778V140.026H305.26V138.913ZM316.144 142.185C316.144 143.308 315.916 144.157 315.46 144.733C315.004 145.31 314.35 145.598 313.497 145.598C312.644 145.598 311.989 145.31 311.532 144.733C311.074 144.157 310.846 143.308 310.846 142.185C310.846 141.062 311.074 140.218 311.532 139.655C311.989 139.092 312.644 138.811 313.497 138.811C314.35 138.811 315.004 139.092 315.46 139.655C315.916 140.218 316.144 141.062 316.144 142.185ZM314.684 142.185C314.684 141.426 314.584 140.863 314.386 140.495C314.187 140.127 313.891 139.943 313.497 139.943C313.103 139.943 312.806 140.13 312.606 140.502C312.406 140.875 312.306 141.436 312.306 142.185C312.306 142.933 312.406 143.5 312.606 143.886C312.806 144.272 313.103 144.465 313.497 144.465C313.891 144.465 314.187 144.272 314.386 143.886C314.584 143.5 314.684 142.933 314.684 142.185ZM320.147 145.5L318.272 140.568C318.299 140.803 318.321 141.027 318.341 141.242C318.351 141.333 318.36 141.428 318.368 141.525C318.376 141.623 318.383 141.718 318.39 141.811C318.396 141.904 318.401 141.992 318.404 142.075C318.408 142.158 318.409 142.232 318.409 142.297V145.5H317.154V138.913H318.8L320.719 143.977C320.693 143.758 320.67 143.542 320.65 143.327C320.634 143.142 320.619 142.947 320.604 142.744C320.589 142.54 320.582 142.357 320.582 142.194V138.913H321.837V145.5H320.147ZM332.867 145.5L331.451 142.985H330.606V145.5H329.166V138.913H331.578C332.438 138.913 333.08 139.081 333.507 139.416C333.933 139.751 334.146 140.235 334.146 140.866C334.146 141.107 334.112 141.325 334.044 141.521C333.976 141.716 333.881 141.888 333.761 142.036C333.64 142.184 333.497 142.311 333.331 142.417C333.165 142.522 332.983 142.604 332.784 142.663L334.488 145.5H332.867ZM332.696 140.925C332.696 140.759 332.668 140.619 332.611 140.505C332.554 140.391 332.472 140.299 332.364 140.229C332.257 140.159 332.124 140.109 331.966 140.078C331.808 140.047 331.629 140.031 331.427 140.031H330.606V141.867H331.466C331.896 141.867 332.208 141.787 332.403 141.625C332.599 141.464 332.696 141.231 332.696 140.925ZM335.167 145.5V138.913H339.894V140.026H336.607V141.608H339.596V142.722H336.607V144.387H340.094V145.5H335.167ZM346.5 145.5H345.064L344.615 143.889H342.389L341.939 145.5H340.499L342.662 138.913H344.342L346.5 145.5ZM343.502 139.802C343.495 139.834 343.483 139.891 343.465 139.973C343.447 140.054 343.425 140.147 343.399 140.251C343.373 140.355 343.345 140.468 343.314 140.59C343.283 140.712 343.251 140.832 343.219 140.949L342.691 142.805H344.312L343.785 140.949C343.753 140.832 343.721 140.712 343.69 140.59C343.659 140.468 343.631 140.355 343.604 140.251C343.578 140.147 343.556 140.054 343.539 139.973C343.521 139.891 343.508 139.834 343.502 139.802ZM352.11 142.155C352.11 142.702 352.045 143.184 351.915 143.601C351.785 144.017 351.596 144.366 351.349 144.648C351.101 144.93 350.798 145.142 350.438 145.285C350.078 145.428 349.671 145.5 349.215 145.5H347.159V138.913H348.922C349.436 138.913 349.892 138.977 350.289 139.104C350.686 139.23 351.02 139.426 351.29 139.689C351.56 139.953 351.764 140.289 351.903 140.698C352.041 141.106 352.11 141.592 352.11 142.155ZM350.66 142.155C350.66 141.774 350.624 141.45 350.553 141.181C350.481 140.913 350.373 140.693 350.228 140.522C350.083 140.351 349.9 140.226 349.679 140.146C349.457 140.066 349.197 140.026 348.897 140.026H348.6V144.387H349.098C349.625 144.387 350.017 144.2 350.274 143.828C350.532 143.455 350.66 142.897 350.66 142.155ZM356.217 142.785V145.5H354.781V142.785L352.516 138.913H354.024L355.489 141.677L356.974 138.913H358.482L356.217 142.785Z" fill="#1B69AC"/>
<rect x="196.5" y="91.5" width="31" height="31" rx="15.5" fill="white"/>
<rect x="196.5" y="91.5" width="31" height="31" rx="15.5" stroke="#E5E7EB"/>
<g filter="url(#filter2_dd_23_1702)">
<rect x="196" y="91" width="32" height="32" rx="16" fill="white" fill-opacity="0.01" shape-rendering="crispEdges"/>
</g>
<path d="M214.435 107.583H207.333V106.417H214.435L211.168 103.15L212 102.333L216.666 107L212 111.667L211.168 110.85L214.435 107.583Z" fill="#1B69AC"/>
</g>
<defs>
<filter id="filter0_dd_23_1702" x="0" y="0" width="424" height="234" filterUnits="userSpaceOnUse" color-interpolation-filters="sRGB">
<feFlood flood-opacity="0" result="BackgroundImageFix"/>
<feColorMatrix in="SourceAlpha" type="matrix" values="0 0 0 0 0 0 0 0 0 0 0 0 0 0 0 0 0 0 127 0" result="hardAlpha"/>
<feMorphology radius="4" operator="erode" in="SourceAlpha" result="effect1_dropShadow_23_1702"/>
<feOffset dy="4"/>
<feGaussianBlur stdDeviation="3"/>
<feComposite in2="hardAlpha" operator="out"/>
<feColorMatrix type="matrix" values="0 0 0 0 0.898039 0 0 0 0 0.905882 0 0 0 0 0.921569 0 0 0 0.5 0"/>
<feBlend mode="normal" in2="BackgroundImageFix" result="effect1_dropShadow_23_1702"/>
<feColorMatrix in="SourceAlpha" type="matrix" values="0 0 0 0 0 0 0 0 0 0 0 0 0 0 0 0 0 0 127 0" result="hardAlpha"/>
<feMorphology radius="3" operator="erode" in="SourceAlpha" result="effect2_dropShadow_23_1702"/>
<feOffset dy="10"/>
<feGaussianBlur stdDeviation="7.5"/>
<feComposite in2="hardAlpha" operator="out"/>
<feColorMatrix type="matrix" values="0 0 0 0 0.898039 0 0 0 0 0.905882 0 0 0 0 0.921569 0 0 0 0.5 0"/>
<feBlend mode="normal" in2="effect1_dropShadow_23_1702" result="effect2_dropShadow_23_1702"/>
<feBlend mode="normal" in="SourceGraphic" in2="effect2_dropShadow_23_1702" result="shape"/>
</filter>
<filter id="filter1_d_23_1702" x="273.5" y="62.5" width="68" height="68" filterUnits="userSpaceOnUse" color-interpolation-filters="sRGB">
<feFlood flood-opacity="0" result="BackgroundImageFix"/>
<feColorMatrix in="SourceAlpha" type="matrix" values="0 0 0 0 0 0 0 0 0 0 0 0 0 0 0 0 0 0 127 0" result="hardAlpha"/>
<feOffset dy="1"/>
<feGaussianBlur stdDeviation="1"/>
<feComposite in2="hardAlpha" operator="out"/>
<feColorMatrix type="matrix" values="0 0 0 0 0 0 0 0 0 0 0 0 0 0 0 0 0 0 0.05 0"/>
<feBlend mode="normal" in2="BackgroundImageFix" result="effect1_dropShadow_23_1702"/>
<feBlend mode="normal" in="SourceGraphic" in2="effect1_dropShadow_23_1702" result="shape"/>
</filter>
<filter id="filter2_dd_23_1702" x="191" y="90" width="42" height="42" filterUnits="userSpaceOnUse" color-interpolation-filters="sRGB">
<feFlood flood-opacity="0" result="BackgroundImageFix"/>
<feColorMatrix in="SourceAlpha" type="matrix" values="0 0 0 0 0 0 0 0 0 0 0 0 0 0 0 0 0 0 127 0" result="hardAlpha"/>
<feMorphology radius="2" operator="erode" in="SourceAlpha" result="effect1_dropShadow_23_1702"/>
<feOffset dy="2"/>
<feGaussianBlur stdDeviation="2"/>
<feComposite in2="hardAlpha" operator="out"/>
<feColorMatrix type="matrix" values="0 0 0 0 0 0 0 0 0 0 0 0 0 0 0 0 0 0 0.1 0"/>
<feBlend mode="normal" in2="BackgroundImageFix" result="effect1_dropShadow_23_1702"/>
<feColorMatrix in="SourceAlpha" type="matrix" values="0 0 0 0 0 0 0 0 0 0 0 0 0 0 0 0 0 0 127 0" result="hardAlpha"/>
<feMorphology radius="1" operator="erode" in="SourceAlpha" result="effect2_dropShadow_23_1702"/>
<feOffset dy="4"/>
<feGaussianBlur stdDeviation="3"/>
<feComposite in2="hardAlpha" operator="out"/>
<feColorMatrix type="matrix" values="0 0 0 0 0 0 0 0 0 0 0 0 0 0 0 0 0 0 0.1 0"/>
<feBlend mode="normal" in2="effect1_dropShadow_23_1702" result="effect2_dropShadow_23_1702"/>
<feBlend mode="normal" in="SourceGraphic" in2="effect2_dropShadow_23_1702" result="shape"/>
</filter>
<clipPath id="clip0_23_1702">
<rect x="21" y="11" width="382" height="192" rx="24" fill="white"/>
</clipPath>
</defs>
</svg>
