<svg width="128" height="36" viewBox="0 0 128 36" fill="none" xmlns="http://www.w3.org/2000/svg">
<path d="M8.1875 25.75L14.6562 18H9.65625L10.5625 10.9062L4.78125 19.25H9.125L8.1875 25.75ZM5 30.5L6.25 21.75H0L11.25 5.5H13.75L12.5 15.5H20L7.5 30.5H5Z" fill="#101622"/>
<path d="M29.32 25V11H38.32V13.4H31.96V16.74H37.76V19.14H31.96V22.6H38.44V25H29.32ZM40.4 25V11H45.42L48.2 23.2H48.56V11H51.16V25H46.14L43.36 12.8H43V25H40.4ZM53.8 25V11H62.8V13.4H56.44V16.74H62.24V19.14H56.44V22.6H62.92V25H53.8ZM64.88 25V11H70.96C71.84 11 72.6067 11.1533 73.26 11.46C73.9133 11.7667 74.42 12.2 74.78 12.76C75.14 13.32 75.32 13.98 75.32 14.74V14.98C75.32 15.82 75.12 16.5 74.72 17.02C74.32 17.54 73.8267 17.92 73.24 18.16V18.52C73.7733 18.5467 74.1867 18.73 74.48 19.07C74.7733 19.41 74.92 19.86 74.92 20.42V25H72.28V20.8C72.28 20.48 72.1967 20.22 72.03 20.02C71.8633 19.82 71.5867 19.72 71.2 19.72H67.52V25H64.88ZM67.52 17.32H70.68C71.3067 17.32 71.7967 17.15 72.15 16.81C72.5033 16.47 72.68 16.02 72.68 15.46V15.26C72.68 14.7 72.5067 14.25 72.16 13.91C71.8133 13.57 71.32 13.4 70.68 13.4H67.52V17.32ZM82.36 25.28C81.4 25.28 80.53 25.0633 79.75 24.63C78.97 24.1967 78.35 23.5633 77.89 22.73C77.43 21.8967 77.2 20.88 77.2 19.68V16.32C77.2 14.52 77.7067 13.1367 78.72 12.17C79.7333 11.2033 81.1067 10.72 82.84 10.72C84.56 10.72 85.89 11.1767 86.83 12.09C87.77 13.0033 88.24 14.24 88.24 15.8V15.88H85.64V15.72C85.64 15.2267 85.5367 14.78 85.33 14.38C85.1233 13.98 84.8133 13.6633 84.4 13.43C83.9867 13.1967 83.4667 13.08 82.84 13.08C81.9067 13.08 81.1733 13.3667 80.64 13.94C80.1067 14.5133 79.84 15.2933 79.84 16.28V19.72C79.84 20.6933 80.1067 21.4767 80.64 22.07C81.1733 22.6633 81.92 22.96 82.88 22.96C83.84 22.96 84.54 22.7067 84.98 22.2C85.42 21.6933 85.64 21.0533 85.64 20.28V20.08H82.32V17.84H88.24V25H85.8V23.66H85.44C85.3467 23.8867 85.1967 24.1267 84.99 24.38C84.7833 24.6333 84.4733 24.8467 84.06 25.02C83.6467 25.1933 83.08 25.28 82.36 25.28ZM93.68 25V20.18L88.92 11H91.86L94.82 17H95.18L98.14 11H101.08L96.32 20.18V25H93.68ZM107.32 25.28C105.587 25.28 104.213 24.7967 103.2 23.83C102.187 22.8633 101.68 21.48 101.68 19.68V16.32C101.68 14.52 102.187 13.1367 103.2 12.17C104.213 11.2033 105.587 10.72 107.32 10.72C109.04 10.72 110.37 11.19 111.31 12.13C112.25 13.07 112.72 14.36 112.72 16V16.12H110.12V15.92C110.12 15.0933 109.89 14.4133 109.43 13.88C108.97 13.3467 108.267 13.08 107.32 13.08C106.387 13.08 105.653 13.3667 105.12 13.94C104.587 14.5133 104.32 15.2933 104.32 16.28V19.72C104.32 20.6933 104.587 21.47 105.12 22.05C105.653 22.63 106.387 22.92 107.32 22.92C108.267 22.92 108.97 22.65 109.43 22.11C109.89 21.57 110.12 20.8933 110.12 20.08V19.72H112.72V20C112.72 21.64 112.25 22.93 111.31 23.87C110.37 24.81 109.04 25.28 107.32 25.28ZM120.32 25.28C118.56 25.28 117.16 24.7967 116.12 23.83C115.08 22.8633 114.56 21.48 114.56 19.68V16.32C114.56 14.52 115.08 13.1367 116.12 12.17C117.16 11.2033 118.56 10.72 120.32 10.72C122.08 10.72 123.48 11.2033 124.52 12.17C125.56 13.1367 126.08 14.52 126.08 16.32V19.68C126.08 21.48 125.56 22.8633 124.52 23.83C123.48 24.7967 122.08 25.28 120.32 25.28ZM120.32 22.92C121.307 22.92 122.073 22.6333 122.62 22.06C123.167 21.4867 123.44 20.72 123.44 19.76V16.24C123.44 15.28 123.167 14.5133 122.62 13.94C122.073 13.3667 121.307 13.08 120.32 13.08C119.347 13.08 118.583 13.3667 118.03 13.94C117.477 14.5133 117.2 15.28 117.2 16.24V19.76C117.2 20.72 117.477 21.4867 118.03 22.06C118.583 22.6333 119.347 22.92 120.32 22.92Z" fill="#101622"/>
</svg>
