<svg width="340" height="340" viewBox="0 0 340 340" fill="none" xmlns="http://www.w3.org/2000/svg">
<g filter="url(#filter0_d_23_1569)">
<g clip-path="url(#clip0_23_1569)">
<rect x="43.9561" y="21.978" width="251.429" height="251.872" rx="28.1319" fill="white"/>
<rect x="72.9668" y="52.5715" width="32" height="32" rx="16" fill="#1B69AC"/>
<path d="M86.6668 76.6851L85.2418 74.2851L82.5418 73.6851L82.8043 70.9101L80.9668 68.8101L82.8043 66.7101L82.5418 63.9351L85.2418 63.3351L86.6668 60.9351L89.2168 62.0226L91.7668 60.9351L93.1918 63.3351L95.8918 63.9351L95.6293 66.7101L97.4668 68.8101L95.6293 70.9101L95.8918 73.6851L93.1918 74.2851L91.7668 76.6851L89.2168 75.5976L86.6668 76.6851ZM87.3043 74.7726L89.2168 73.9476L91.1668 74.7726L92.2168 72.9726L94.2793 72.4851L94.0918 70.3851L95.4793 68.8101L94.0918 67.1976L94.2793 65.0976L92.2168 64.6476L91.1293 62.8476L89.2168 63.6726L87.2668 62.8476L86.2168 64.6476L84.1543 65.0976L84.3418 67.1976L82.9543 68.8101L84.3418 70.3851L84.1543 72.5226L86.2168 72.9726L87.3043 74.7726ZM88.4293 71.4726L92.6668 67.2351L91.6168 66.1476L88.4293 69.3351L86.8168 67.7601L85.7668 68.8101L88.4293 71.4726Z" fill="white"/>
<path d="M117.8 58.8965C117.8 59.7979 117.94 60.493 118.221 60.9818C118.501 61.4706 118.92 61.715 119.477 61.715C119.657 61.715 119.821 61.6789 119.97 61.6068C120.118 61.5347 120.25 61.4345 120.366 61.3063C120.487 61.1741 120.591 61.0179 120.679 60.8376C120.771 60.6573 120.851 60.461 120.919 60.2486L122.56 60.5611C122.436 60.9578 122.279 61.3143 122.091 61.6308C121.907 61.9433 121.686 62.2098 121.43 62.4301C121.178 62.6465 120.887 62.8147 120.559 62.9349C120.234 63.0511 119.868 63.1092 119.459 63.1092C118.85 63.1092 118.327 63.009 117.89 62.8087C117.454 62.6044 117.095 62.3179 116.815 61.9494C116.534 61.5808 116.328 61.1381 116.196 60.6212C116.063 60.1044 115.997 59.5295 115.997 58.8965C115.997 58.2274 116.065 57.6364 116.202 57.1236C116.338 56.6108 116.546 56.1781 116.827 55.8256C117.111 55.473 117.468 55.2066 117.896 55.0263C118.325 54.846 118.83 54.7558 119.411 54.7558C119.827 54.7558 120.196 54.8139 120.517 54.9301C120.841 55.0463 121.124 55.2086 121.364 55.4169C121.608 55.6212 121.815 55.8676 121.983 56.1561C122.151 56.4405 122.287 56.753 122.392 57.0936L120.757 57.4902C120.705 57.2979 120.637 57.1196 120.553 56.9554C120.473 56.7911 120.376 56.6489 120.264 56.5287C120.152 56.4085 120.026 56.3163 119.886 56.2522C119.749 56.1841 119.599 56.1501 119.435 56.1501C118.89 56.1501 118.481 56.3824 118.209 56.8472C117.936 57.3079 117.8 57.991 117.8 58.8965ZM124.963 62.989V54.882H130.78V56.2522H126.735V58.1994H130.413V59.5695H126.735V61.6188H131.026V62.989H124.963ZM138.14 62.989L136.398 59.8941H135.358V62.989H133.585V54.882H136.554C137.612 54.882 138.403 55.0884 138.928 55.501C139.453 55.9137 139.715 56.5086 139.715 57.2859C139.715 57.5824 139.673 57.8508 139.589 58.0912C139.505 58.3316 139.388 58.5439 139.24 58.7282C139.092 58.9085 138.916 59.0647 138.711 59.1969C138.507 59.3252 138.283 59.4253 138.038 59.4974L140.136 62.989H138.14ZM137.93 57.358C137.93 57.1537 137.894 56.9814 137.822 56.8412C137.754 56.701 137.654 56.5888 137.521 56.5046C137.389 56.4165 137.225 56.3544 137.029 56.3183C136.836 56.2783 136.616 56.2582 136.368 56.2582H135.358V58.5179H136.416C136.944 58.5179 137.329 58.4197 137.569 58.2234C137.81 58.0231 137.93 57.7346 137.93 57.358ZM145.964 56.2522V62.989H144.191V56.2522H141.751V54.882H148.404V56.2522H145.964ZM150.95 54.882H156.455V56.2522H154.586V61.6188H156.455V62.989H150.95V61.6188H152.819V56.2522H150.95V54.882ZM161.406 56.2522V58.5599H165.138V59.9301H161.406V62.989H159.633V54.882H165.276V56.2522H161.406ZM168.196 54.882H173.7V56.2522H171.832V61.6188H173.7V62.989H168.196V61.6188H170.065V56.2522H168.196V54.882ZM178.158 58.8965C178.158 59.7979 178.299 60.493 178.579 60.9818C178.86 61.4706 179.278 61.715 179.835 61.715C180.015 61.715 180.18 61.6789 180.328 61.6068C180.476 61.5347 180.608 61.4345 180.725 61.3063C180.845 61.1741 180.949 61.0179 181.037 60.8376C181.129 60.6573 181.209 60.461 181.277 60.2486L182.918 60.5611C182.794 60.9578 182.638 61.3143 182.449 61.6308C182.265 61.9433 182.045 62.2098 181.788 62.4301C181.536 62.6465 181.245 62.8147 180.917 62.9349C180.592 63.0511 180.226 63.1092 179.817 63.1092C179.208 63.1092 178.685 63.009 178.249 62.8087C177.812 62.6044 177.453 62.3179 177.173 61.9494C176.892 61.5808 176.686 61.1381 176.554 60.6212C176.422 60.1044 176.356 59.5295 176.356 58.8965C176.356 58.2274 176.424 57.6364 176.56 57.1236C176.696 56.6108 176.904 56.1781 177.185 55.8256C177.469 55.473 177.826 55.2066 178.255 55.0263C178.683 54.846 179.188 54.7558 179.769 54.7558C180.186 54.7558 180.554 54.8139 180.875 54.9301C181.199 55.0463 181.482 55.2086 181.722 55.4169C181.967 55.6212 182.173 55.8676 182.341 56.1561C182.509 56.4405 182.646 56.753 182.75 57.0936L181.115 57.4902C181.063 57.2979 180.995 57.1196 180.911 56.9554C180.831 56.7911 180.735 56.6489 180.622 56.5287C180.51 56.4085 180.384 56.3163 180.244 56.2522C180.108 56.1841 179.957 56.1501 179.793 56.1501C179.248 56.1501 178.84 56.3824 178.567 56.8472C178.295 57.3079 178.158 57.991 178.158 58.8965ZM191.883 62.989H190.116L189.563 61.0058H186.823L186.27 62.989H184.497L187.16 54.882H189.227L191.883 62.989ZM188.193 55.9758C188.185 56.0159 188.169 56.086 188.145 56.1861C188.125 56.2863 188.099 56.4005 188.067 56.5287C188.035 56.6569 187.999 56.7971 187.959 56.9494C187.923 57.0976 187.885 57.2438 187.845 57.3881L187.196 59.6717H189.191L188.542 57.3881C188.502 57.2438 188.462 57.0976 188.422 56.9494C188.386 56.7971 188.352 56.6569 188.319 56.5287C188.287 56.4005 188.259 56.2863 188.235 56.1861C188.215 56.086 188.201 56.0159 188.193 55.9758ZM197.699 56.2522V62.989H195.926V56.2522H193.487V54.882H200.139V56.2522H197.699ZM202.686 54.882H208.191V56.2522H206.322V61.6188H208.191V62.989H202.686V61.6188H204.555V56.2522H202.686V54.882ZM217.318 58.9085C217.318 60.2907 217.038 61.3364 216.477 62.0455C215.916 62.7546 215.111 63.1092 214.061 63.1092C213.011 63.1092 212.204 62.7546 211.639 62.0455C211.078 61.3364 210.798 60.2907 210.798 58.9085C210.798 57.5263 211.078 56.4886 211.639 55.7955C212.204 55.1024 213.011 54.7558 214.061 54.7558C215.111 54.7558 215.916 55.1024 216.477 55.7955C217.038 56.4886 217.318 57.5263 217.318 58.9085ZM215.521 58.9085C215.521 57.975 215.399 57.2819 215.155 56.8292C214.91 56.3764 214.546 56.1501 214.061 56.1501C213.576 56.1501 213.21 56.3804 212.961 56.8412C212.717 57.2979 212.595 57.987 212.595 58.9085C212.595 59.83 212.717 60.5291 212.961 61.0058C213.21 61.4786 213.576 61.715 214.061 61.715C214.546 61.715 214.91 61.4786 215.155 61.0058C215.399 60.5291 215.521 59.83 215.521 58.9085ZM223.483 62.989L221.175 56.9193C221.207 57.2078 221.235 57.4842 221.259 57.7486C221.271 57.8608 221.281 57.977 221.289 58.0972C221.301 58.2174 221.311 58.3356 221.319 58.4518C221.327 58.5639 221.334 58.6721 221.338 58.7763C221.342 58.8764 221.344 58.9666 221.344 59.0467V62.989H219.799V54.882H221.824L224.186 61.114C224.154 60.8456 224.126 60.5792 224.102 60.3147C224.082 60.0864 224.062 59.848 224.042 59.5996C224.026 59.3472 224.018 59.1208 224.018 58.9205V54.882H225.562V62.989H223.483ZM243.186 58.9085C243.186 60.2907 242.906 61.3364 242.345 62.0455C241.784 62.7546 240.979 63.1092 239.929 63.1092C238.879 63.1092 238.072 62.7546 237.507 62.0455C236.946 61.3364 236.666 60.2907 236.666 58.9085C236.666 57.5263 236.946 56.4886 237.507 55.7955C238.072 55.1024 238.879 54.7558 239.929 54.7558C240.979 54.7558 241.784 55.1024 242.345 55.7955C242.906 56.4886 243.186 57.5263 243.186 58.9085ZM241.389 58.9085C241.389 57.975 241.267 57.2819 241.023 56.8292C240.778 56.3764 240.414 56.1501 239.929 56.1501C239.444 56.1501 239.077 56.3804 238.829 56.8412C238.585 57.2979 238.463 57.987 238.463 58.9085C238.463 59.83 238.585 60.5291 238.829 61.0058C239.077 61.4786 239.444 61.715 239.929 61.715C240.414 61.715 240.778 61.4786 241.023 61.0058C241.267 60.5291 241.389 59.83 241.389 58.9085ZM247.632 56.2522V58.5599H251.364V59.9301H247.632V62.989H245.859V54.882H251.502V56.2522H247.632ZM122.47 76.9085C122.47 78.2907 122.189 79.3364 121.628 80.0455C121.067 80.7546 120.262 81.1092 119.213 81.1092C118.163 81.1092 117.356 80.7546 116.791 80.0455C116.23 79.3364 115.949 78.2907 115.949 76.9085C115.949 75.5263 116.23 74.4886 116.791 73.7955C117.356 73.1024 118.163 72.7558 119.213 72.7558C120.262 72.7558 121.067 73.1024 121.628 73.7955C122.189 74.4886 122.47 75.5263 122.47 76.9085ZM120.673 76.9085C120.673 75.975 120.551 75.2819 120.306 74.8292C120.062 74.3764 119.697 74.1501 119.213 74.1501C118.728 74.1501 118.361 74.3804 118.113 74.8412C117.868 75.2979 117.746 75.987 117.746 76.9085C117.746 77.83 117.868 78.5291 118.113 79.0058C118.361 79.4786 118.728 79.715 119.213 79.715C119.697 79.715 120.062 79.4786 120.306 79.0058C120.551 78.5291 120.673 77.83 120.673 76.9085ZM130.257 80.989H128.767L128.382 79.3844C128.362 79.3083 128.338 79.2182 128.31 79.114C128.282 79.0098 128.252 78.8997 128.22 78.7835C128.192 78.6633 128.162 78.5411 128.13 78.4169C128.102 78.2887 128.073 78.1645 128.045 78.0443C127.977 77.7639 127.909 77.4714 127.841 77.1669C127.769 77.4754 127.699 77.7699 127.631 78.0503C127.603 78.1705 127.573 78.2947 127.541 78.4229C127.513 78.5471 127.483 78.6693 127.45 78.7895C127.422 78.9057 127.394 79.0159 127.366 79.12C127.338 79.2202 127.314 79.3083 127.294 79.3844L126.898 80.989H125.407L124.139 72.882H125.696L126.231 77.0587C126.251 77.215 126.267 77.3852 126.279 77.5695C126.291 77.7538 126.301 77.9281 126.309 78.0924C126.317 78.2847 126.323 78.473 126.327 78.6573C126.351 78.5131 126.381 78.3608 126.417 78.2006C126.449 78.0603 126.485 77.9041 126.525 77.7318C126.565 77.5555 126.609 77.3752 126.657 77.1909L127.252 75.1537H128.424L129.019 77.1909C129.071 77.3712 129.115 77.5495 129.151 77.7258C129.191 77.8981 129.227 78.0543 129.259 78.1945C129.295 78.3548 129.325 78.509 129.35 78.6573C129.354 78.6573 129.358 78.6032 129.362 78.495C129.366 78.3869 129.372 78.2526 129.38 78.0924C129.388 77.9321 129.398 77.7598 129.41 77.5756C129.422 77.3873 129.438 77.215 129.458 77.0587L129.963 72.882H131.519L130.257 80.989ZM137.257 80.989L134.949 74.9193C134.981 75.2078 135.009 75.4842 135.033 75.7486C135.045 75.8608 135.055 75.977 135.063 76.0972C135.075 76.2174 135.086 76.3356 135.094 76.4518C135.102 76.5639 135.108 76.6721 135.112 76.7763C135.116 76.8764 135.118 76.9666 135.118 77.0467V80.989H133.573V72.882H135.598L137.96 79.114C137.928 78.8456 137.9 78.5792 137.876 78.3147C137.856 78.0864 137.836 77.848 137.816 77.5996C137.8 77.3472 137.792 77.1208 137.792 76.9205V72.882H139.336V80.989H137.257ZM142.208 80.989V72.882H148.025V74.2522H143.981V76.1994H147.658V77.5695H143.981V79.6188H148.271V80.989H142.208ZM155.386 80.989L153.643 77.8941H152.603V80.989H150.83V72.882H153.799C154.857 72.882 155.648 73.0884 156.173 73.501C156.698 73.9137 156.96 74.5086 156.96 75.2859C156.96 75.5824 156.918 75.8508 156.834 76.0912C156.75 76.3316 156.634 76.5439 156.485 76.7282C156.337 76.9085 156.161 77.0647 155.957 77.1969C155.752 77.3252 155.528 77.4253 155.283 77.4974L157.381 80.989H155.386ZM155.175 75.358C155.175 75.1537 155.139 74.9814 155.067 74.8412C154.999 74.701 154.899 74.5888 154.767 74.5046C154.634 74.4165 154.47 74.3544 154.274 74.3183C154.082 74.2783 153.861 74.2582 153.613 74.2582H152.603V76.5179H153.661C154.19 76.5179 154.574 76.4197 154.815 76.2234C155.055 76.0231 155.175 75.7346 155.175 75.358ZM165.631 78.6393C165.631 78.9918 165.563 79.3203 165.426 79.6248C165.29 79.9253 165.084 80.1857 164.807 80.4061C164.531 80.6264 164.184 80.7987 163.768 80.9229C163.351 81.0471 162.862 81.1092 162.301 81.1092C161.36 81.1092 160.593 80.9109 160 80.5143C159.407 80.1176 159.026 79.5407 158.858 78.7835L160.571 78.5611C160.663 78.9377 160.855 79.2362 161.148 79.4566C161.44 79.6729 161.841 79.7811 162.35 79.7811C162.59 79.7811 162.804 79.7631 162.993 79.727C163.185 79.6909 163.349 79.6328 163.485 79.5527C163.622 79.4726 163.726 79.3664 163.798 79.2342C163.87 79.098 163.906 78.9337 163.906 78.7414C163.906 78.5251 163.842 78.3488 163.714 78.2126C163.59 78.0723 163.429 77.9582 163.233 77.87C163.041 77.7779 162.826 77.7038 162.59 77.6477C162.354 77.5876 162.125 77.5275 161.905 77.4674C161.717 77.4153 161.518 77.3592 161.31 77.2991C161.106 77.235 160.905 77.1589 160.709 77.0707C160.513 76.9826 160.326 76.8804 160.15 76.7643C159.974 76.6441 159.819 76.5018 159.687 76.3376C159.555 76.1733 159.449 75.985 159.369 75.7727C159.293 75.5563 159.255 75.3099 159.255 75.0335C159.255 74.6409 159.339 74.3023 159.507 74.0179C159.679 73.7294 159.908 73.493 160.192 73.3087C160.477 73.1204 160.803 72.9822 161.172 72.8941C161.54 72.8019 161.925 72.7558 162.325 72.7558C163.223 72.7558 163.924 72.9341 164.429 73.2907C164.934 73.6433 165.26 74.1921 165.408 74.9373L163.69 75.1116C163.602 74.747 163.443 74.4726 163.215 74.2883C162.987 74.104 162.678 74.0119 162.289 74.0119C162.037 74.0119 161.827 74.0379 161.658 74.09C161.494 74.1381 161.36 74.2062 161.256 74.2943C161.156 74.3784 161.084 74.4766 161.039 74.5888C160.999 74.6969 160.979 74.8111 160.979 74.9313C160.979 75.1236 161.029 75.2839 161.13 75.4121C161.23 75.5363 161.36 75.6405 161.52 75.7246C161.684 75.8087 161.871 75.8808 162.079 75.9409C162.291 75.997 162.506 76.0531 162.722 76.1092C162.934 76.1613 163.153 76.2214 163.377 76.2895C163.602 76.3536 163.822 76.4317 164.038 76.5239C164.255 76.612 164.459 76.7182 164.651 76.8424C164.844 76.9626 165.012 77.1068 165.156 77.2751C165.3 77.4433 165.414 77.6397 165.499 77.864C165.587 78.0884 165.631 78.3468 165.631 78.6393ZM172.036 80.989V77.5395H169.854V80.989H168.082V72.882H169.854V76.0731H172.036V72.882H173.809V80.989H172.036ZM176.818 72.882H182.323V74.2522H180.454V79.6188H182.323V80.989H176.818V79.6188H178.687V74.2522H176.818V72.882ZM191.36 75.4421C191.36 75.8067 191.298 76.1533 191.174 76.4818C191.054 76.8063 190.868 77.0908 190.615 77.3352C190.363 77.5796 190.042 77.7739 189.654 77.9181C189.265 78.0583 188.804 78.1284 188.271 78.1284H187.088V80.989H185.315V72.882H188.199C188.74 72.882 189.209 72.9421 189.606 73.0623C190.002 73.1785 190.331 73.3468 190.591 73.5671C190.852 73.7875 191.044 74.0559 191.168 74.3724C191.296 74.6889 191.36 75.0455 191.36 75.4421ZM189.576 75.4722C189.576 75.0355 189.443 74.725 189.179 74.5407C188.918 74.3524 188.526 74.2582 188.001 74.2582H187.088V76.7643H188.049C188.578 76.7643 188.965 76.6561 189.209 76.4397C189.453 76.2194 189.576 75.8969 189.576 75.4722Z" fill="#101622"/>
<mask id="path-6-inside-1_23_1569" fill="white">
<path d="M72.9668 107.253H266.373V130.165H72.9668V107.253Z"/>
</mask>
<path d="M266.373 130.165V129.286H72.9668V130.165V131.044H266.373V130.165Z" fill="#F3F4F6" mask="url(#path-6-inside-1_23_1569)"/>
<path d="M77.8002 114.329C77.8002 114.825 77.7502 115.259 77.65 115.634C77.5498 116.009 77.4053 116.324 77.2165 116.579C77.0276 116.831 76.7958 117.021 76.5211 117.15C76.2492 117.276 75.9416 117.339 75.5982 117.339C75.2347 117.339 74.9156 117.271 74.6409 117.137C74.3662 117.002 74.1372 116.808 73.9541 116.553C73.7709 116.295 73.6336 115.981 73.542 115.609C73.4504 115.234 73.4046 114.807 73.4046 114.329C73.4046 113.834 73.4533 113.402 73.5506 113.033C73.6479 112.664 73.7895 112.356 73.9756 112.11C74.1616 111.864 74.3905 111.679 74.6624 111.556C74.9371 111.433 75.2519 111.372 75.6067 111.372C76.3136 111.372 76.8559 111.621 77.2336 112.119C77.6114 112.614 77.8002 113.351 77.8002 114.329ZM76.9374 114.329C76.9374 113.557 76.8244 112.983 76.5983 112.608C76.3722 112.23 76.0417 112.041 75.6067 112.041C75.1603 112.041 74.8255 112.23 74.6023 112.608C74.3791 112.983 74.2674 113.557 74.2674 114.329C74.2674 115.102 74.3805 115.686 74.6066 116.081C74.8326 116.476 75.1646 116.673 75.6024 116.673C76.0689 116.673 76.408 116.473 76.6198 116.072C76.8316 115.672 76.9374 115.091 76.9374 114.329ZM82.9041 115.149C82.9041 115.541 82.8626 115.876 82.7796 116.154C82.6967 116.431 82.5693 116.659 82.3976 116.836C82.2288 117.011 82.0141 117.138 81.7537 117.218C81.4962 117.298 81.1928 117.339 80.8437 117.339C80.5117 117.339 80.2213 117.301 79.9723 117.227C79.7233 117.15 79.5158 117.028 79.3499 116.862C79.1867 116.693 79.0637 116.476 78.9807 116.21C78.8977 115.941 78.8562 115.613 78.8562 115.227V111.462H79.6761V115.115C79.6761 115.393 79.6933 115.63 79.7276 115.828C79.7648 116.025 79.8263 116.187 79.9122 116.313C80.0009 116.439 80.1197 116.53 80.2685 116.587C80.4202 116.645 80.6105 116.673 80.8394 116.673C81.0769 116.673 81.2744 116.645 81.4318 116.587C81.592 116.53 81.7208 116.439 81.8181 116.313C81.9154 116.184 81.9841 116.016 82.0241 115.81C82.0671 115.604 82.0885 115.354 82.0885 115.059V111.462H82.9041V115.149ZM86.57 112.132V117.253H85.7544V112.132H83.8528V111.462H88.4716V112.132H86.57ZM90.1543 114.329C90.1543 114.704 90.1829 115.038 90.2401 115.33C90.2974 115.619 90.3861 115.863 90.5063 116.064C90.6265 116.264 90.7796 116.416 90.9656 116.519C91.1545 116.622 91.3805 116.673 91.6438 116.673C91.8241 116.673 91.9858 116.639 92.1289 116.57C92.2748 116.501 92.4036 116.411 92.5152 116.3C92.6297 116.188 92.7284 116.059 92.8114 115.913C92.8944 115.767 92.9659 115.617 93.026 115.463L93.7086 115.742C93.6284 115.942 93.5297 116.138 93.4124 116.33C93.295 116.519 93.1534 116.689 92.9874 116.841C92.8214 116.989 92.6268 117.11 92.4036 117.201C92.1833 117.293 91.9271 117.339 91.6352 117.339C91.2317 117.339 90.8826 117.267 90.5878 117.124C90.296 116.978 90.0527 116.773 89.8581 116.51C89.6664 116.247 89.5233 115.931 89.4289 115.561C89.3373 115.192 89.2915 114.782 89.2915 114.329C89.2915 113.854 89.3373 113.434 89.4289 113.067C89.5204 112.698 89.6607 112.389 89.8495 112.14C90.0384 111.888 90.2774 111.698 90.5664 111.569C90.8554 111.438 91.1974 111.372 91.5923 111.372C91.8813 111.372 92.1346 111.412 92.3521 111.492C92.5696 111.569 92.757 111.675 92.9144 111.81C93.0747 111.941 93.2092 112.094 93.3179 112.269C93.4295 112.441 93.5211 112.621 93.5927 112.81L92.8715 113.089C92.8286 112.957 92.7699 112.828 92.6955 112.703C92.6211 112.577 92.531 112.465 92.4251 112.368C92.3221 112.27 92.2004 112.192 92.0602 112.132C91.9228 112.072 91.7683 112.041 91.5966 112.041C91.3419 112.041 91.123 112.09 90.9398 112.187C90.7596 112.285 90.6107 112.431 90.4934 112.625C90.3761 112.817 90.2902 113.056 90.2359 113.342C90.1815 113.625 90.1543 113.955 90.1543 114.329ZM98.9198 114.329C98.9198 114.825 98.8697 115.259 98.7695 115.634C98.6694 116.009 98.5248 116.324 98.336 116.579C98.1471 116.831 97.9153 117.021 97.6406 117.15C97.3687 117.276 97.0611 117.339 96.7177 117.339C96.3542 117.339 96.0351 117.271 95.7604 117.137C95.4857 117.002 95.2567 116.808 95.0736 116.553C94.8904 116.295 94.7531 115.981 94.6615 115.609C94.5699 115.234 94.5241 114.807 94.5241 114.329C94.5241 113.834 94.5728 113.402 94.6701 113.033C94.7674 112.664 94.909 112.356 95.0951 112.11C95.2811 111.864 95.51 111.679 95.7819 111.556C96.0566 111.433 96.3714 111.372 96.7262 111.372C97.4331 111.372 97.9754 111.621 98.3531 112.119C98.7309 112.614 98.9198 113.351 98.9198 114.329ZM98.0569 114.329C98.0569 113.557 97.9439 112.983 97.7178 112.608C97.4918 112.23 97.1612 112.041 96.7262 112.041C96.2798 112.041 95.945 112.23 95.7218 112.608C95.4986 112.983 95.387 113.557 95.387 114.329C95.387 115.102 95.5 115.686 95.7261 116.081C95.9521 116.476 96.2841 116.673 96.7219 116.673C97.1884 116.673 97.5275 116.473 97.7393 116.072C97.9511 115.672 98.0569 115.091 98.0569 114.329ZM103.388 117.253V113.527C103.388 113.381 103.388 113.232 103.388 113.08C103.391 112.929 103.395 112.79 103.401 112.664C103.407 112.518 103.411 112.375 103.414 112.235C103.365 112.392 103.317 112.547 103.268 112.698C103.228 112.827 103.184 112.963 103.135 113.106C103.089 113.249 103.046 113.375 103.006 113.484L102.302 115.364H101.714L101.002 113.484C100.984 113.441 100.966 113.391 100.946 113.334C100.926 113.273 100.904 113.211 100.881 113.145C100.861 113.076 100.84 113.007 100.817 112.939C100.794 112.867 100.771 112.797 100.748 112.728C100.697 112.571 100.644 112.406 100.59 112.235C100.592 112.372 100.595 112.515 100.598 112.664C100.601 112.793 100.602 112.933 100.602 113.085C100.605 113.233 100.607 113.381 100.607 113.527V117.253H99.9199V111.462H100.937L101.731 113.561C101.757 113.627 101.786 113.716 101.817 113.827C101.852 113.936 101.884 114.045 101.916 114.153C101.95 114.279 101.986 114.412 102.023 114.553C102.063 114.418 102.101 114.289 102.135 114.166C102.166 114.06 102.199 113.952 102.234 113.84C102.268 113.728 102.298 113.637 102.324 113.565L103.118 111.462H104.084V117.253H103.388ZM105.341 117.253V111.462H109.286V112.132H106.161V113.943H109.029V114.604H106.161V116.583H109.462V117.253H105.341ZM120.048 115.664C120.048 115.908 120.003 116.132 119.915 116.338C119.826 116.542 119.69 116.718 119.507 116.866C119.327 117.015 119.096 117.131 118.816 117.214C118.538 117.297 118.208 117.339 117.824 117.339C117.155 117.339 116.632 117.207 116.257 116.944C115.885 116.68 115.648 116.3 115.545 115.802L116.339 115.643C116.373 115.8 116.425 115.943 116.494 116.072C116.562 116.201 116.657 116.313 116.777 116.407C116.897 116.499 117.044 116.57 117.219 116.622C117.394 116.673 117.603 116.699 117.846 116.699C118.052 116.699 118.239 116.68 118.408 116.643C118.58 116.603 118.726 116.542 118.846 116.459C118.969 116.376 119.065 116.27 119.134 116.141C119.202 116.012 119.237 115.858 119.237 115.677C119.237 115.477 119.189 115.314 119.095 115.188C119.003 115.062 118.882 114.959 118.73 114.879C118.578 114.799 118.407 114.734 118.215 114.686C118.026 114.634 117.834 114.584 117.64 114.535C117.497 114.498 117.352 114.46 117.206 114.42C117.06 114.377 116.92 114.328 116.785 114.274C116.651 114.216 116.525 114.151 116.408 114.076C116.293 113.999 116.192 113.907 116.103 113.801C116.017 113.693 115.95 113.567 115.901 113.424C115.853 113.278 115.828 113.109 115.828 112.917C115.828 112.642 115.88 112.408 115.983 112.213C116.086 112.016 116.227 111.855 116.408 111.732C116.588 111.607 116.801 111.515 117.047 111.458C117.293 111.4 117.56 111.372 117.846 111.372C118.178 111.372 118.46 111.402 118.691 111.462C118.926 111.519 119.124 111.607 119.284 111.724C119.447 111.841 119.577 111.987 119.674 112.162C119.772 112.333 119.849 112.534 119.906 112.763L119.099 112.904C119.068 112.758 119.02 112.628 118.958 112.514C118.897 112.399 118.816 112.303 118.713 112.226C118.613 112.149 118.491 112.09 118.348 112.05C118.205 112.01 118.036 111.99 117.841 111.99C117.613 111.99 117.421 112.014 117.266 112.063C117.112 112.109 116.987 112.173 116.893 112.256C116.798 112.336 116.73 112.432 116.687 112.544C116.647 112.655 116.627 112.776 116.627 112.904C116.627 113.076 116.664 113.216 116.738 113.325C116.816 113.431 116.919 113.52 117.047 113.591C117.179 113.66 117.331 113.717 117.502 113.763C117.677 113.809 117.863 113.857 118.06 113.909C118.218 113.949 118.377 113.992 118.537 114.038C118.697 114.08 118.85 114.132 118.996 114.192C119.145 114.252 119.282 114.324 119.408 114.407C119.537 114.487 119.649 114.586 119.743 114.703C119.838 114.82 119.912 114.958 119.966 115.115C120.021 115.272 120.048 115.456 120.048 115.664ZM123.529 112.132V117.253H122.714V112.132H120.812V111.462H125.431V112.132H123.529ZM130.204 117.253L129.612 115.613H127.195L126.607 117.253H125.766L127.955 111.462H128.886L131.037 117.253H130.204ZM128.775 113.158C128.737 113.049 128.699 112.939 128.659 112.827C128.619 112.715 128.581 112.61 128.547 112.509C128.516 112.409 128.487 112.322 128.461 112.248C128.438 112.17 128.421 112.114 128.41 112.08C128.398 112.114 128.381 112.17 128.358 112.248C128.335 112.325 128.307 112.414 128.272 112.514C128.241 112.614 128.207 112.72 128.169 112.831C128.135 112.943 128.099 113.052 128.062 113.158L127.414 114.973H129.401L128.775 113.158ZM134.089 112.132V117.253H133.273V112.132H131.372V111.462H135.99V112.132H134.089ZM140.983 115.149C140.983 115.541 140.941 115.876 140.858 116.154C140.775 116.431 140.648 116.659 140.476 116.836C140.307 117.011 140.093 117.138 139.832 117.218C139.575 117.298 139.271 117.339 138.922 117.339C138.59 117.339 138.3 117.301 138.051 117.227C137.802 117.15 137.594 117.028 137.429 116.862C137.265 116.693 137.142 116.476 137.059 116.21C136.976 115.941 136.935 115.613 136.935 115.227V111.462H137.755V115.115C137.755 115.393 137.772 115.63 137.806 115.828C137.843 116.025 137.905 116.187 137.991 116.313C138.08 116.439 138.198 116.53 138.347 116.587C138.499 116.645 138.689 116.673 138.918 116.673C139.156 116.673 139.353 116.645 139.51 116.587C139.671 116.53 139.799 116.439 139.897 116.313C139.994 116.184 140.063 116.016 140.103 115.81C140.146 115.604 140.167 115.354 140.167 115.059V111.462H140.983V115.149ZM146.447 115.664C146.447 115.908 146.403 116.132 146.314 116.338C146.225 116.542 146.09 116.718 145.906 116.866C145.726 117.015 145.496 117.131 145.215 117.214C144.938 117.297 144.607 117.339 144.224 117.339C143.554 117.339 143.032 117.207 142.657 116.944C142.285 116.68 142.047 116.3 141.944 115.802L142.738 115.643C142.773 115.8 142.824 115.943 142.893 116.072C142.962 116.201 143.056 116.313 143.176 116.407C143.296 116.499 143.444 116.57 143.618 116.622C143.793 116.673 144.002 116.699 144.245 116.699C144.451 116.699 144.639 116.68 144.807 116.643C144.979 116.603 145.125 116.542 145.245 116.459C145.368 116.376 145.464 116.27 145.533 116.141C145.602 116.012 145.636 115.858 145.636 115.677C145.636 115.477 145.589 115.314 145.494 115.188C145.403 115.062 145.281 114.959 145.129 114.879C144.978 114.799 144.806 114.734 144.614 114.686C144.425 114.634 144.234 114.584 144.039 114.535C143.896 114.498 143.751 114.46 143.606 114.42C143.46 114.377 143.319 114.328 143.185 114.274C143.05 114.216 142.924 114.151 142.807 114.076C142.693 113.999 142.591 113.907 142.502 113.801C142.416 113.693 142.349 113.567 142.301 113.424C142.252 113.278 142.228 113.109 142.228 112.917C142.228 112.642 142.279 112.408 142.382 112.213C142.485 112.016 142.627 111.855 142.807 111.732C142.987 111.607 143.201 111.515 143.447 111.458C143.693 111.4 143.959 111.372 144.245 111.372C144.577 111.372 144.859 111.402 145.091 111.462C145.325 111.519 145.523 111.607 145.683 111.724C145.846 111.841 145.976 111.987 146.074 112.162C146.171 112.333 146.248 112.534 146.306 112.763L145.499 112.904C145.467 112.758 145.42 112.628 145.357 112.514C145.297 112.399 145.215 112.303 145.112 112.226C145.012 112.149 144.89 112.09 144.747 112.05C144.604 112.01 144.435 111.99 144.241 111.99C144.012 111.99 143.82 112.014 143.666 112.063C143.511 112.109 143.387 112.173 143.292 112.256C143.198 112.336 143.129 112.432 143.086 112.544C143.046 112.655 143.026 112.776 143.026 112.904C143.026 113.076 143.063 113.216 143.138 113.325C143.215 113.431 143.318 113.52 143.447 113.591C143.578 113.66 143.73 113.717 143.902 113.763C144.076 113.809 144.262 113.857 144.46 113.909C144.617 113.949 144.776 113.992 144.936 114.038C145.096 114.08 145.25 114.132 145.396 114.192C145.544 114.252 145.682 114.324 145.808 114.407C145.936 114.487 146.048 114.586 146.142 114.703C146.237 114.82 146.311 114.958 146.366 115.115C146.42 115.272 146.447 115.456 146.447 115.664Z" fill="#9CA3AF"/>
<path d="M240.333 113.755C240.333 114.94 240.092 115.836 239.612 116.444C239.131 117.052 238.441 117.356 237.541 117.356C236.641 117.356 235.949 117.052 235.465 116.444C234.984 115.836 234.744 114.94 234.744 113.755C234.744 112.57 234.984 111.681 235.465 111.087C235.949 110.493 236.641 110.196 237.541 110.196C238.441 110.196 239.131 110.493 239.612 111.087C240.092 111.681 240.333 112.57 240.333 113.755ZM238.793 113.755C238.793 112.955 238.688 112.361 238.478 111.973C238.269 111.585 237.956 111.391 237.541 111.391C237.125 111.391 236.811 111.588 236.598 111.983C236.389 112.375 236.284 112.965 236.284 113.755C236.284 114.545 236.389 115.144 236.598 115.553C236.811 115.958 237.125 116.161 237.541 116.161C237.956 116.161 238.269 115.958 238.478 115.553C238.688 115.144 238.793 114.545 238.793 113.755ZM245.953 117.253H244.675L244.346 115.877C244.328 115.812 244.308 115.735 244.284 115.646C244.26 115.556 244.234 115.462 244.206 115.362C244.182 115.259 244.157 115.154 244.129 115.048C244.105 114.938 244.081 114.832 244.057 114.729C243.999 114.488 243.94 114.238 243.882 113.977C243.82 114.241 243.76 114.493 243.702 114.734C243.678 114.837 243.652 114.943 243.624 115.053C243.6 115.16 243.575 115.264 243.547 115.367C243.523 115.467 243.499 115.561 243.475 115.651C243.451 115.737 243.43 115.812 243.413 115.877L243.073 117.253H241.796L240.709 110.304H242.043L242.501 113.884C242.519 114.018 242.532 114.164 242.543 114.322C242.553 114.48 242.562 114.629 242.568 114.77C242.575 114.935 242.58 115.096 242.584 115.254C242.605 115.13 242.63 115 242.661 114.863C242.689 114.742 242.72 114.608 242.754 114.461C242.788 114.31 242.826 114.155 242.867 113.997L243.377 112.251H244.382L244.892 113.997C244.936 114.152 244.974 114.305 245.005 114.456C245.039 114.603 245.07 114.737 245.098 114.857C245.129 114.995 245.154 115.127 245.175 115.254C245.178 115.254 245.182 115.208 245.185 115.115C245.189 115.022 245.194 114.907 245.201 114.77C245.208 114.632 245.216 114.485 245.226 114.327C245.237 114.165 245.25 114.018 245.268 113.884L245.7 110.304H247.034L245.953 117.253ZM250.898 117.253L248.92 112.05C248.947 112.297 248.971 112.534 248.992 112.761C249.002 112.857 249.011 112.957 249.018 113.06C249.028 113.163 249.037 113.264 249.043 113.364C249.05 113.46 249.055 113.552 249.059 113.642C249.062 113.728 249.064 113.805 249.064 113.874V117.253H247.74V110.304H249.476L251.5 115.646C251.473 115.415 251.449 115.187 251.428 114.96C251.411 114.765 251.394 114.56 251.377 114.347C251.363 114.131 251.356 113.937 251.356 113.765V110.304H252.68V117.253H250.898ZM254.086 117.253V110.304H259.073V111.478H255.606V113.147H258.758V114.322H255.606V116.078H259.284V117.253H254.086ZM265.635 113.724C265.635 114.301 265.566 114.809 265.429 115.249C265.292 115.688 265.092 116.058 264.831 116.356C264.571 116.652 264.249 116.875 263.868 117.026C263.49 117.177 263.061 117.253 262.58 117.253H260.412V110.304H262.271C262.814 110.304 263.295 110.371 263.714 110.505C264.133 110.639 264.485 110.845 264.77 111.123C265.055 111.401 265.269 111.756 265.414 112.189C265.561 112.618 265.635 113.13 265.635 113.724ZM264.105 113.724C264.105 113.322 264.067 112.981 263.992 112.699C263.916 112.414 263.801 112.182 263.647 112.004C263.496 111.822 263.303 111.689 263.07 111.607C262.836 111.521 262.562 111.478 262.246 111.478H261.931V116.078H262.457C263.013 116.078 263.427 115.882 263.698 115.491C263.97 115.096 264.105 114.507 264.105 113.724Z" fill="#1B69AC"/>
<mask id="path-10-inside-2_23_1569" fill="white">
<path d="M72.9668 144.231H266.373V167.143H72.9668V144.231Z"/>
</mask>
<path d="M266.373 167.143V166.264H72.9668V167.143V168.022H266.373V167.143Z" fill="#F3F4F6" mask="url(#path-10-inside-2_23_1569)"/>
<path d="M76.0102 149.11V154.231H75.1946V149.11H73.293V148.44H77.9119V149.11H76.0102ZM78.9421 154.231V148.44H82.887V149.11H79.762V150.921H82.6294V151.582H79.762V153.561H83.063V154.231H78.9421ZM84.8744 151.307C84.8744 151.682 84.903 152.016 84.9603 152.308C85.0175 152.597 85.1062 152.841 85.2264 153.042C85.3466 153.242 85.4997 153.394 85.6857 153.497C85.8746 153.6 86.1007 153.651 86.3639 153.651C86.5442 153.651 86.7059 153.617 86.849 153.548C86.995 153.48 87.1237 153.389 87.2353 153.278C87.3498 153.166 87.4485 153.037 87.5315 152.891C87.6145 152.745 87.6861 152.595 87.7462 152.441L88.4287 152.72C88.3486 152.92 88.2498 153.116 88.1325 153.308C88.0152 153.497 87.8735 153.667 87.7075 153.819C87.5415 153.967 87.3469 154.088 87.1237 154.179C86.9034 154.271 86.6473 154.317 86.3554 154.317C85.9519 154.317 85.6027 154.245 85.308 154.102C85.0161 153.956 84.7728 153.751 84.5782 153.488C84.3865 153.225 84.2434 152.909 84.149 152.539C84.0574 152.17 84.0116 151.76 84.0116 151.307C84.0116 150.832 84.0574 150.412 84.149 150.045C84.2405 149.676 84.3808 149.367 84.5696 149.118C84.7585 148.866 84.9975 148.676 85.2865 148.547C85.5755 148.416 85.9175 148.35 86.3124 148.35C86.6015 148.35 86.8547 148.39 87.0722 148.47C87.2897 148.547 87.4772 148.653 87.6346 148.788C87.7948 148.919 87.9293 149.072 88.0381 149.247C88.1497 149.419 88.2412 149.599 88.3128 149.788L87.5916 150.067C87.5487 149.935 87.49 149.806 87.4156 149.681C87.3412 149.555 87.2511 149.443 87.1452 149.346C87.0422 149.248 86.9206 149.17 86.7803 149.11C86.643 149.05 86.4884 149.02 86.3167 149.02C86.062 149.02 85.8431 149.068 85.66 149.165C85.4797 149.263 85.3309 149.409 85.2135 149.603C85.0962 149.795 85.0104 150.034 84.956 150.32C84.9016 150.603 84.8744 150.933 84.8744 151.307ZM92.5624 154.231V151.556H90.3217V154.231H89.5018V148.44H90.3217V150.87H92.5624V148.44H93.3823V154.231H92.5624ZM97.6749 154.231L95.4428 149.38C95.4542 149.503 95.4657 149.629 95.4771 149.758C95.4857 149.867 95.4928 149.985 95.4986 150.114C95.5071 150.24 95.5114 150.359 95.5114 150.47V154.231H94.7817V148.44H95.7347L98.0011 153.325C97.9868 153.211 97.974 153.087 97.9625 152.956C97.9511 152.844 97.941 152.718 97.9325 152.578C97.9267 152.438 97.9239 152.295 97.9239 152.149V148.44H98.6622V154.231H97.6749ZM100.233 148.44H103.766V149.11H102.41V153.561H103.766V154.231H100.233V153.561H101.59V149.11H100.233V148.44ZM105.994 151.307C105.994 151.682 106.023 152.016 106.08 152.308C106.137 152.597 106.226 152.841 106.346 153.042C106.466 153.242 106.619 153.394 106.805 153.497C106.994 153.6 107.22 153.651 107.483 153.651C107.664 153.651 107.825 153.617 107.969 153.548C108.114 153.48 108.243 153.389 108.355 153.278C108.469 153.166 108.568 153.037 108.651 152.891C108.734 152.745 108.806 152.595 108.866 152.441L109.548 152.72C109.468 152.92 109.369 153.116 109.252 153.308C109.135 153.497 108.993 153.667 108.827 153.819C108.661 153.967 108.466 154.088 108.243 154.179C108.023 154.271 107.767 154.317 107.475 154.317C107.071 154.317 106.722 154.245 106.427 154.102C106.136 153.956 105.892 153.751 105.698 153.488C105.506 153.225 105.363 152.909 105.268 152.539C105.177 152.17 105.131 151.76 105.131 151.307C105.131 150.832 105.177 150.412 105.268 150.045C105.36 149.676 105.5 149.367 105.689 149.118C105.878 148.866 106.117 148.676 106.406 148.547C106.695 148.416 107.037 148.35 107.432 148.35C107.721 148.35 107.974 148.39 108.192 148.47C108.409 148.547 108.597 148.653 108.754 148.788C108.914 148.919 109.049 149.072 109.158 149.247C109.269 149.419 109.361 149.599 109.432 149.788L108.711 150.067C108.668 149.935 108.61 149.806 108.535 149.681C108.461 149.555 108.371 149.443 108.265 149.346C108.162 149.248 108.04 149.17 107.9 149.11C107.762 149.05 107.608 149.02 107.436 149.02C107.182 149.02 106.963 149.068 106.779 149.165C106.599 149.263 106.45 149.409 106.333 149.603C106.216 149.795 106.13 150.034 106.075 150.32C106.021 150.603 105.994 150.933 105.994 151.307ZM114.364 154.231L113.772 152.591H111.355L110.767 154.231H109.926L112.115 148.44H113.047L115.197 154.231H114.364ZM112.935 150.136C112.898 150.027 112.859 149.917 112.819 149.805C112.779 149.693 112.742 149.588 112.708 149.487C112.676 149.387 112.647 149.3 112.622 149.226C112.599 149.148 112.582 149.092 112.57 149.058C112.559 149.092 112.542 149.148 112.519 149.226C112.496 149.303 112.467 149.392 112.433 149.492C112.401 149.592 112.367 149.698 112.33 149.809C112.295 149.921 112.26 150.03 112.222 150.136L111.574 151.951H113.562L112.935 150.136ZM116.223 154.231V148.44H117.043V153.561H119.928V154.231H116.223ZM130.608 152.642C130.608 152.886 130.563 153.11 130.475 153.316C130.386 153.52 130.25 153.696 130.067 153.844C129.886 153.993 129.656 154.109 129.376 154.192C129.098 154.275 128.768 154.317 128.384 154.317C127.714 154.317 127.192 154.185 126.817 153.922C126.445 153.658 126.208 153.278 126.105 152.78L126.899 152.621C126.933 152.778 126.985 152.921 127.053 153.05C127.122 153.179 127.216 153.291 127.337 153.385C127.457 153.477 127.604 153.548 127.779 153.6C127.953 153.651 128.162 153.677 128.406 153.677C128.612 153.677 128.799 153.658 128.968 153.621C129.14 153.581 129.285 153.52 129.406 153.437C129.529 153.354 129.625 153.248 129.693 153.119C129.762 152.99 129.796 152.836 129.796 152.655C129.796 152.455 129.749 152.292 129.655 152.166C129.563 152.04 129.441 151.937 129.29 151.857C129.138 151.777 128.966 151.712 128.775 151.664C128.586 151.612 128.394 151.562 128.199 151.514C128.056 151.476 127.912 151.438 127.766 151.398C127.62 151.355 127.48 151.306 127.345 151.252C127.211 151.194 127.085 151.129 126.967 151.054C126.853 150.977 126.751 150.885 126.663 150.779C126.577 150.671 126.51 150.545 126.461 150.402C126.412 150.256 126.388 150.087 126.388 149.895C126.388 149.62 126.439 149.386 126.543 149.191C126.646 148.994 126.787 148.834 126.967 148.71C127.148 148.585 127.361 148.493 127.607 148.436C127.853 148.378 128.119 148.35 128.406 148.35C128.737 148.35 129.019 148.38 129.251 148.44C129.486 148.497 129.683 148.585 129.844 148.702C130.007 148.819 130.137 148.965 130.234 149.14C130.331 149.311 130.409 149.512 130.466 149.741L129.659 149.882C129.627 149.736 129.58 149.606 129.517 149.492C129.457 149.377 129.376 149.281 129.273 149.204C129.172 149.127 129.051 149.068 128.908 149.028C128.765 148.988 128.596 148.968 128.401 148.968C128.172 148.968 127.981 148.992 127.826 149.041C127.671 149.087 127.547 149.151 127.453 149.234C127.358 149.314 127.289 149.41 127.247 149.522C127.206 149.633 127.186 149.754 127.186 149.882C127.186 150.054 127.224 150.194 127.298 150.303C127.375 150.409 127.478 150.498 127.607 150.569C127.739 150.638 127.89 150.695 128.062 150.741C128.237 150.787 128.423 150.835 128.62 150.887C128.778 150.927 128.936 150.97 129.097 151.016C129.257 151.058 129.41 151.11 129.556 151.17C129.705 151.23 129.842 151.302 129.968 151.385C130.097 151.465 130.208 151.564 130.303 151.681C130.397 151.798 130.472 151.936 130.526 152.093C130.58 152.25 130.608 152.434 130.608 152.642ZM132.393 151.307C132.393 151.682 132.422 152.016 132.479 152.308C132.536 152.597 132.625 152.841 132.745 153.042C132.865 153.242 133.019 153.394 133.205 153.497C133.393 153.6 133.62 153.651 133.883 153.651C134.063 153.651 134.225 153.617 134.368 153.548C134.514 153.48 134.643 153.389 134.754 153.278C134.869 153.166 134.967 153.037 135.05 152.891C135.133 152.745 135.205 152.595 135.265 152.441L135.948 152.72C135.867 152.92 135.769 153.116 135.651 153.308C135.534 153.497 135.392 153.667 135.226 153.819C135.06 153.967 134.866 154.088 134.643 154.179C134.422 154.271 134.166 154.317 133.874 154.317C133.471 154.317 133.122 154.245 132.827 154.102C132.535 153.956 132.292 153.751 132.097 153.488C131.905 153.225 131.762 152.909 131.668 152.539C131.576 152.17 131.531 151.76 131.531 151.307C131.531 150.832 131.576 150.412 131.668 150.045C131.759 149.676 131.9 149.367 132.089 149.118C132.277 148.866 132.516 148.676 132.805 148.547C133.094 148.416 133.436 148.35 133.831 148.35C134.12 148.35 134.374 148.39 134.591 148.47C134.809 148.547 134.996 148.653 135.153 148.788C135.314 148.919 135.448 149.072 135.557 149.247C135.669 149.419 135.76 149.599 135.832 149.788L135.111 150.067C135.068 149.935 135.009 149.806 134.935 149.681C134.86 149.555 134.77 149.443 134.664 149.346C134.561 149.248 134.439 149.17 134.299 149.11C134.162 149.05 134.007 149.02 133.836 149.02C133.581 149.02 133.362 149.068 133.179 149.165C132.999 149.263 132.85 149.409 132.732 149.603C132.615 149.795 132.529 150.034 132.475 150.32C132.42 150.603 132.393 150.933 132.393 151.307ZM141.159 151.307C141.159 151.803 141.109 152.238 141.009 152.612C140.908 152.987 140.764 153.302 140.575 153.557C140.386 153.809 140.154 153.999 139.88 154.128C139.608 154.254 139.3 154.317 138.957 154.317C138.593 154.317 138.274 154.249 137.999 154.115C137.725 153.98 137.496 153.786 137.313 153.531C137.129 153.273 136.992 152.959 136.901 152.587C136.809 152.212 136.763 151.785 136.763 151.307C136.763 150.812 136.812 150.38 136.909 150.011C137.006 149.642 137.148 149.334 137.334 149.088C137.52 148.842 137.749 148.658 138.021 148.534C138.296 148.411 138.61 148.35 138.965 148.35C139.672 148.35 140.214 148.599 140.592 149.097C140.97 149.592 141.159 150.329 141.159 151.307ZM140.296 151.307C140.296 150.535 140.183 149.961 139.957 149.586C139.731 149.208 139.4 149.02 138.965 149.02C138.519 149.02 138.184 149.208 137.961 149.586C137.738 149.961 137.626 150.535 137.626 151.307C137.626 152.08 137.739 152.664 137.965 153.059C138.191 153.454 138.523 153.651 138.961 153.651C139.427 153.651 139.767 153.451 139.978 153.05C140.19 152.65 140.296 152.069 140.296 151.307ZM146.409 150.174C146.409 150.415 146.366 150.646 146.28 150.87C146.197 151.09 146.068 151.286 145.893 151.458C145.722 151.629 145.506 151.767 145.245 151.87C144.985 151.973 144.679 152.024 144.327 152.024H143.12V154.231H142.301V148.44H144.275C144.633 148.44 144.945 148.482 145.211 148.565C145.477 148.647 145.699 148.765 145.876 148.916C146.054 149.068 146.187 149.251 146.276 149.466C146.364 149.678 146.409 149.914 146.409 150.174ZM145.584 150.187C145.584 149.829 145.467 149.559 145.232 149.376C144.998 149.19 144.646 149.097 144.176 149.097H143.12V151.376H144.211C144.445 151.376 144.649 151.346 144.82 151.286C144.995 151.223 145.138 151.139 145.25 151.033C145.364 150.927 145.448 150.801 145.503 150.655C145.557 150.509 145.584 150.353 145.584 150.187ZM147.58 154.231V148.44H151.525V149.11H148.4V150.921H151.268V151.582H148.4V153.561H151.701V154.231H147.58Z" fill="#9CA3AF"/>
<path d="M228.46 154.231V147.282H229.98V153.056H233.153V154.231H228.46ZM239.669 150.733C239.669 151.918 239.428 152.814 238.948 153.422C238.467 154.03 237.777 154.334 236.877 154.334C235.977 154.334 235.285 154.03 234.801 153.422C234.32 152.814 234.08 151.918 234.08 150.733C234.08 149.548 234.32 148.659 234.801 148.065C235.285 147.471 235.977 147.174 236.877 147.174C237.777 147.174 238.467 147.471 238.948 148.065C239.428 148.659 239.669 149.548 239.669 150.733ZM238.129 150.733C238.129 149.933 238.024 149.339 237.814 148.951C237.605 148.563 237.292 148.369 236.877 148.369C236.461 148.369 236.147 148.566 235.934 148.961C235.725 149.353 235.62 149.943 235.62 150.733C235.62 151.523 235.725 152.122 235.934 152.531C236.147 152.936 236.461 153.139 236.877 153.139C237.292 153.139 237.605 152.936 237.814 152.531C238.024 152.122 238.129 151.523 238.129 150.733ZM242.002 150.723C242.002 151.495 242.122 152.091 242.363 152.51C242.603 152.929 242.962 153.139 243.439 153.139C243.594 153.139 243.735 153.108 243.862 153.046C243.989 152.984 244.102 152.898 244.202 152.788C244.305 152.675 244.394 152.541 244.47 152.387C244.549 152.232 244.617 152.064 244.676 151.882L246.082 152.15C245.975 152.49 245.841 152.795 245.68 153.067C245.522 153.334 245.333 153.563 245.113 153.752C244.897 153.937 244.648 154.081 244.367 154.184C244.088 154.284 243.774 154.334 243.424 154.334C242.902 154.334 242.454 154.248 242.079 154.076C241.705 153.901 241.398 153.656 241.157 153.34C240.917 153.024 240.74 152.644 240.627 152.201C240.514 151.758 240.457 151.265 240.457 150.723C240.457 150.149 240.515 149.643 240.632 149.203C240.749 148.764 240.927 148.393 241.168 148.091C241.412 147.788 241.717 147.56 242.085 147.406C242.452 147.251 242.885 147.174 243.383 147.174C243.74 147.174 244.056 147.224 244.33 147.323C244.609 147.423 244.851 147.562 245.057 147.74C245.266 147.915 245.443 148.127 245.587 148.374C245.732 148.618 245.848 148.886 245.938 149.177L244.537 149.517C244.492 149.353 244.433 149.2 244.361 149.059C244.293 148.918 244.21 148.796 244.114 148.693C244.018 148.59 243.91 148.511 243.79 148.456C243.673 148.398 243.544 148.369 243.403 148.369C242.936 148.369 242.586 148.568 242.352 148.966C242.119 149.361 242.002 149.947 242.002 150.723ZM250.919 154.231L249.255 151.362L248.601 152.093V154.231H247.081V147.282H248.601V150.367L250.847 147.282H252.613L250.244 150.264L252.711 154.231H250.919ZM253.422 154.231V147.282H258.408V148.456H254.942V150.125H258.094V151.3H254.942V153.056H258.62V154.231H253.422ZM264.971 150.702C264.971 151.279 264.902 151.787 264.765 152.227C264.628 152.666 264.428 153.036 264.167 153.334C263.906 153.63 263.585 153.853 263.204 154.004C262.826 154.155 262.397 154.231 261.916 154.231H259.748V147.282H261.607C262.15 147.282 262.631 147.349 263.05 147.483C263.469 147.617 263.821 147.823 264.106 148.101C264.391 148.379 264.605 148.734 264.749 149.167C264.897 149.596 264.971 150.108 264.971 150.702ZM263.441 150.702C263.441 150.3 263.403 149.959 263.328 149.677C263.252 149.392 263.137 149.16 262.983 148.982C262.831 148.8 262.639 148.668 262.406 148.585C262.172 148.499 261.897 148.456 261.581 148.456H261.267V153.056H261.793C262.349 153.056 262.763 152.861 263.034 152.469C263.305 152.074 263.441 151.485 263.441 150.702Z" fill="#101622"/>
<mask id="path-14-inside-3_23_1569" fill="white">
<path d="M72.9668 181.209H266.373V204.121H72.9668V181.209Z"/>
</mask>
<path d="M266.373 204.121V203.242H72.9668V204.121V205H266.373V204.121Z" fill="#F3F4F6" mask="url(#path-14-inside-3_23_1569)"/>
<path d="M77.0748 191.209L75.5037 188.741H74.4821V191.209H73.6622V185.418H75.7312C76.0746 185.418 76.3737 185.455 76.6284 185.53C76.8859 185.601 77.0991 185.707 77.268 185.847C77.4397 185.985 77.567 186.152 77.65 186.35C77.7359 186.547 77.7788 186.77 77.7788 187.019C77.7788 187.197 77.7502 187.374 77.6929 187.551C77.6386 187.726 77.5513 187.888 77.4311 188.037C77.3109 188.182 77.1578 188.31 76.9718 188.419C76.7858 188.527 76.5626 188.603 76.3021 188.646L78.0192 191.209H77.0748ZM76.9546 187.032C76.9546 186.394 76.5196 186.075 75.6497 186.075H74.4821V188.092H75.684C75.9215 188.092 76.1204 188.064 76.2807 188.006C76.4438 187.949 76.574 187.873 76.6713 187.779C76.7715 187.682 76.843 187.569 76.8859 187.44C76.9317 187.311 76.9546 187.175 76.9546 187.032ZM79.1138 185.418H82.6466V186.088H81.2901V190.539H82.6466V191.209H79.1138V190.539H80.4702V186.088H79.1138V185.418ZM88.3686 189.62C88.3686 189.864 88.3242 190.088 88.2355 190.294C88.1468 190.498 88.0109 190.674 87.8277 190.822C87.6474 190.971 87.4171 191.087 87.1366 191.17C86.859 191.253 86.5285 191.295 86.145 191.295C85.4754 191.295 84.9531 191.163 84.5782 190.9C84.2062 190.636 83.9687 190.256 83.8657 189.758L84.6598 189.599C84.6941 189.756 84.7456 189.9 84.8143 190.028C84.883 190.157 84.9774 190.269 85.0976 190.363C85.2178 190.455 85.3652 190.526 85.5398 190.578C85.7143 190.629 85.9232 190.655 86.1665 190.655C86.3725 190.655 86.56 190.636 86.7288 190.599C86.9005 190.559 87.0465 190.498 87.1667 190.415C87.2897 190.332 87.3856 190.226 87.4543 190.097C87.5229 189.968 87.5573 189.814 87.5573 189.633C87.5573 189.433 87.5101 189.27 87.4156 189.144C87.3241 189.018 87.2024 188.915 87.0508 188.835C86.8991 188.755 86.7274 188.69 86.5357 188.642C86.3468 188.59 86.155 188.54 85.9604 188.492C85.8174 188.454 85.6728 188.416 85.5269 188.376C85.3809 188.333 85.2407 188.284 85.1062 188.23C84.9717 188.172 84.8458 188.107 84.7285 188.032C84.614 187.955 84.5124 187.863 84.4237 187.758C84.3378 187.649 84.2706 187.523 84.2219 187.38C84.1733 187.234 84.149 187.065 84.149 186.873C84.149 186.599 84.2005 186.364 84.3035 186.169C84.4065 185.972 84.5482 185.812 84.7285 185.688C84.9088 185.563 85.122 185.471 85.3681 185.414C85.6142 185.357 85.8803 185.328 86.1665 185.328C86.4984 185.328 86.7803 185.358 87.0121 185.418C87.2468 185.475 87.4442 185.563 87.6045 185.68C87.7676 185.797 87.8978 185.943 87.9951 186.118C88.0924 186.289 88.1697 186.49 88.2269 186.719L87.4199 186.86C87.3884 186.714 87.3412 186.584 87.2783 186.47C87.2182 186.355 87.1366 186.259 87.0336 186.182C86.9334 186.105 86.8118 186.046 86.6687 186.006C86.5256 185.966 86.3568 185.946 86.1622 185.946C85.9333 185.946 85.7415 185.97 85.587 186.019C85.4325 186.065 85.308 186.129 85.2135 186.212C85.1191 186.292 85.0504 186.388 85.0075 186.5C84.9674 186.611 84.9474 186.732 84.9474 186.86C84.9474 187.032 84.9846 187.172 85.059 187.281C85.1363 187.387 85.2393 187.476 85.3681 187.547C85.4997 187.616 85.6514 187.673 85.8231 187.719C85.9976 187.765 86.1837 187.813 86.3811 187.865C86.5385 187.905 86.6973 187.948 86.8576 187.994C87.0179 188.037 87.171 188.088 87.3169 188.148C87.4657 188.208 87.6031 188.28 87.729 188.363C87.8578 188.443 87.9694 188.542 88.0638 188.659C88.1582 188.776 88.2327 188.914 88.287 189.071C88.3414 189.228 88.3686 189.412 88.3686 189.62ZM93.1119 191.209L91.0214 188.47L90.3217 189.196V191.209H89.5018V185.418H90.3217V188.307L92.7771 185.418H93.7429L91.5794 187.873L94.0734 191.209H93.1119ZM100.384 191.209V185.418H101.203V190.539H104.088V191.209H100.384ZM105.513 185.418H109.046V186.088H107.689V190.539H109.046V191.209H105.513V190.539H106.87V186.088H105.513V185.418ZM114.364 191.209L113.772 189.569H111.355L110.767 191.209H109.926L112.115 185.418H113.047L115.197 191.209H114.364ZM112.935 187.114C112.898 187.005 112.859 186.895 112.819 186.783C112.779 186.671 112.742 186.566 112.708 186.465C112.676 186.365 112.647 186.278 112.622 186.204C112.599 186.126 112.582 186.071 112.57 186.036C112.559 186.071 112.542 186.126 112.519 186.204C112.496 186.281 112.467 186.37 112.433 186.47C112.401 186.57 112.367 186.676 112.33 186.787C112.295 186.899 112.26 187.008 112.222 187.114L111.574 188.929H113.562L112.935 187.114ZM120.151 189.578C120.151 189.872 120.091 190.123 119.971 190.329C119.85 190.535 119.689 190.704 119.486 190.835C119.282 190.964 119.046 191.058 118.777 191.119C118.508 191.179 118.225 191.209 117.927 191.209H115.901V185.418H117.67C118.005 185.418 118.304 185.445 118.567 185.5C118.83 185.554 119.053 185.638 119.237 185.753C119.42 185.864 119.558 186.009 119.653 186.186C119.75 186.364 119.799 186.576 119.799 186.822C119.799 186.982 119.775 187.135 119.726 187.281C119.68 187.424 119.609 187.554 119.511 187.672C119.417 187.786 119.298 187.886 119.155 187.972C119.012 188.055 118.843 188.117 118.648 188.157C118.892 188.182 119.106 188.235 119.292 188.316C119.481 188.396 119.639 188.499 119.765 188.625C119.89 188.748 119.986 188.891 120.052 189.054C120.118 189.214 120.151 189.389 120.151 189.578ZM118.975 186.925C118.975 186.619 118.866 186.401 118.648 186.272C118.434 186.141 118.11 186.075 117.678 186.075H116.721V187.861H117.687C117.919 187.861 118.116 187.839 118.279 187.796C118.442 187.75 118.575 187.687 118.679 187.607C118.782 187.524 118.856 187.426 118.902 187.311C118.95 187.197 118.975 187.068 118.975 186.925ZM119.322 189.505C119.322 189.324 119.285 189.171 119.211 189.045C119.139 188.919 119.036 188.816 118.902 188.736C118.77 188.653 118.611 188.593 118.425 188.556C118.239 188.519 118.032 188.5 117.803 188.5H116.721V190.552H117.863C118.072 190.552 118.265 190.536 118.442 190.505C118.623 190.47 118.777 190.413 118.906 190.333C119.038 190.253 119.139 190.146 119.211 190.011C119.285 189.877 119.322 189.708 119.322 189.505ZM121.353 185.418H124.886V186.088H123.529V190.539H124.886V191.209H121.353V190.539H122.709V186.088H121.353V185.418ZM126.783 191.209V185.418H127.603V190.539H130.487V191.209H126.783ZM131.913 185.418H135.445V186.088H134.089V190.539H135.445V191.209H131.913V190.539H133.269V186.088H131.913V185.418ZM139.369 186.088V191.209H138.553V186.088H136.652V185.418H141.27V186.088H139.369ZM144.644 188.702V191.209H143.837V188.702L141.76 185.418H142.64L144.245 188.041L145.842 185.418H146.722L144.644 188.702Z" fill="#9CA3AF"/>
<path d="M200.298 185.434V191.209H198.779V185.434H196.687V184.26H202.39V185.434H200.298ZM207.319 191.209L205.825 188.556H204.934V191.209H203.415V184.26H205.959C206.866 184.26 207.544 184.437 207.994 184.79C208.444 185.144 208.669 185.654 208.669 186.32C208.669 186.574 208.633 186.805 208.561 187.011C208.488 187.217 208.389 187.399 208.262 187.557C208.135 187.711 207.984 187.845 207.808 187.958C207.633 188.068 207.441 188.154 207.232 188.216L209.029 191.209H207.319ZM207.139 186.382C207.139 186.207 207.108 186.059 207.046 185.939C206.988 185.819 206.902 185.723 206.789 185.651C206.675 185.575 206.534 185.522 206.366 185.491C206.201 185.457 206.012 185.44 205.8 185.44H204.934V187.376H205.841C206.294 187.376 206.624 187.292 206.83 187.124C207.036 186.952 207.139 186.705 207.139 186.382ZM215.375 191.209H213.861L213.387 189.509H211.038L210.564 191.209H209.045L211.327 184.26H213.099L215.375 191.209ZM212.213 185.197C212.206 185.232 212.192 185.292 212.171 185.378C212.154 185.464 212.132 185.561 212.105 185.671C212.077 185.781 212.046 185.901 212.012 186.032C211.981 186.159 211.948 186.284 211.914 186.408L211.358 188.365H213.068L212.511 186.408C212.477 186.284 212.443 186.159 212.408 186.032C212.378 185.901 212.348 185.781 212.321 185.671C212.293 185.561 212.269 185.464 212.249 185.378C212.232 185.292 212.22 185.232 212.213 185.197ZM219.234 191.209L217.256 186.006C217.283 186.253 217.307 186.49 217.328 186.717C217.338 186.813 217.347 186.913 217.353 187.016C217.364 187.119 217.372 187.22 217.379 187.32C217.386 187.416 217.391 187.509 217.395 187.598C217.398 187.684 217.4 187.761 217.4 187.83V191.209H216.076V184.26H217.812L219.836 189.602C219.809 189.372 219.785 189.143 219.764 188.917C219.747 188.721 219.73 188.516 219.713 188.304C219.699 188.087 219.692 187.893 219.692 187.721V184.26H221.016V191.209H219.234ZM227.717 189.195C227.717 189.497 227.659 189.778 227.542 190.039C227.426 190.297 227.249 190.52 227.012 190.709C226.775 190.898 226.478 191.046 226.121 191.152C225.764 191.259 225.345 191.312 224.864 191.312C224.057 191.312 223.399 191.142 222.891 190.802C222.383 190.462 222.056 189.967 221.912 189.318L223.38 189.128C223.459 189.45 223.624 189.706 223.875 189.895C224.125 190.081 224.469 190.173 224.905 190.173C225.111 190.173 225.295 190.158 225.456 190.127C225.621 190.096 225.762 190.046 225.879 189.978C225.995 189.909 226.085 189.818 226.146 189.705C226.208 189.588 226.239 189.447 226.239 189.282C226.239 189.097 226.184 188.946 226.074 188.829C225.968 188.709 225.83 188.611 225.662 188.535C225.497 188.456 225.314 188.393 225.111 188.345C224.908 188.293 224.713 188.242 224.524 188.19C224.362 188.146 224.192 188.097 224.014 188.046C223.839 187.991 223.667 187.926 223.499 187.85C223.33 187.775 223.171 187.687 223.02 187.588C222.869 187.484 222.736 187.363 222.623 187.222C222.51 187.081 222.419 186.92 222.35 186.738C222.285 186.552 222.252 186.341 222.252 186.104C222.252 185.767 222.324 185.477 222.469 185.233C222.616 184.986 222.812 184.784 223.056 184.626C223.3 184.464 223.579 184.346 223.895 184.27C224.211 184.191 224.541 184.152 224.884 184.152C225.654 184.152 226.255 184.305 226.687 184.61C227.12 184.912 227.4 185.383 227.527 186.022L226.054 186.171C225.978 185.858 225.842 185.623 225.647 185.465C225.451 185.307 225.187 185.228 224.853 185.228C224.637 185.228 224.457 185.251 224.313 185.295C224.172 185.336 224.057 185.395 223.967 185.47C223.882 185.543 223.82 185.627 223.782 185.723C223.748 185.816 223.731 185.913 223.731 186.016C223.731 186.181 223.773 186.319 223.859 186.429C223.945 186.535 224.057 186.624 224.194 186.696C224.335 186.768 224.495 186.83 224.673 186.882C224.855 186.93 225.039 186.978 225.224 187.026C225.406 187.071 225.594 187.122 225.786 187.181C225.978 187.236 226.167 187.302 226.352 187.381C226.538 187.457 226.713 187.548 226.878 187.654C227.043 187.758 227.187 187.881 227.311 188.025C227.434 188.17 227.532 188.338 227.604 188.53C227.68 188.722 227.717 188.944 227.717 189.195ZM230.432 185.434V187.412H233.631V188.587H230.432V191.209H228.913V184.26H233.749V185.434H230.432ZM235.094 191.209V184.26H240.08V185.434H236.613V187.103H239.766V188.278H236.613V190.034H240.291V191.209H235.094ZM245.334 191.209L243.84 188.556H242.949V191.209H241.43V184.26H243.974C244.881 184.26 245.559 184.437 246.009 184.79C246.459 185.144 246.684 185.654 246.684 186.32C246.684 186.574 246.648 186.805 246.576 187.011C246.504 187.217 246.404 187.399 246.277 187.557C246.15 187.711 245.999 187.845 245.824 187.958C245.648 188.068 245.456 188.154 245.247 188.216L247.044 191.209H245.334ZM245.154 186.382C245.154 186.207 245.123 186.059 245.061 185.939C245.003 185.819 244.917 185.723 244.804 185.651C244.69 185.575 244.55 185.522 244.381 185.491C244.216 185.457 244.028 185.44 243.815 185.44H242.949V187.376H243.856C244.309 187.376 244.639 187.292 244.845 187.124C245.051 186.952 245.154 186.705 245.154 186.382ZM251.67 191.209L250.176 188.556H249.285V191.209H247.766V184.26H250.31C251.217 184.26 251.895 184.437 252.345 184.79C252.795 185.144 253.02 185.654 253.02 186.32C253.02 186.574 252.984 186.805 252.912 187.011C252.839 187.217 252.74 187.399 252.613 187.557C252.486 187.711 252.335 187.845 252.159 187.958C251.984 188.068 251.792 188.154 251.583 188.216L253.38 191.209H251.67ZM251.49 186.382C251.49 186.207 251.459 186.059 251.397 185.939C251.339 185.819 251.253 185.723 251.14 185.651C251.026 185.575 250.885 185.522 250.717 185.491C250.552 185.457 250.363 185.44 250.151 185.44H249.285V187.376H250.192C250.645 187.376 250.975 187.292 251.181 187.124C251.387 186.952 251.49 186.705 251.49 186.382ZM254.101 191.209V184.26H259.088V185.434H255.621V187.103H258.773V188.278H255.621V190.034H259.299V191.209H254.101ZM265.65 187.68C265.65 188.257 265.581 188.765 265.444 189.205C265.307 189.645 265.108 190.014 264.847 190.312C264.586 190.608 264.265 190.831 263.883 190.982C263.506 191.133 263.076 191.209 262.596 191.209H260.427V184.26H262.287C262.829 184.26 263.31 184.327 263.729 184.461C264.148 184.595 264.5 184.801 264.785 185.079C265.07 185.357 265.284 185.713 265.429 186.145C265.576 186.574 265.65 187.086 265.65 187.68ZM264.12 187.68C264.12 187.278 264.083 186.937 264.007 186.655C263.931 186.37 263.816 186.138 263.662 185.96C263.511 185.778 263.318 185.646 263.085 185.563C262.851 185.477 262.577 185.434 262.261 185.434H261.947V190.034H262.472C263.028 190.034 263.442 189.839 263.713 189.447C263.985 189.052 264.12 188.463 264.12 187.68Z" fill="#101622"/>
<rect x="107.104" y="225.22" width="125.132" height="22.1099" rx="7.03297" fill="#F5F7F8"/>
<path d="M124.867 237.615L123.453 235.394H122.534V237.615H121.796V232.404H123.658C123.967 232.404 124.236 232.437 124.465 232.504C124.697 232.569 124.889 232.664 125.041 232.79C125.196 232.914 125.31 233.064 125.385 233.242C125.462 233.42 125.501 233.621 125.501 233.845C125.501 234.005 125.475 234.164 125.423 234.324C125.375 234.481 125.296 234.627 125.188 234.76C125.08 234.892 124.942 235.006 124.774 235.104C124.607 235.202 124.406 235.27 124.172 235.309L125.717 237.615H124.867ZM124.759 233.856C124.759 233.282 124.367 232.995 123.584 232.995H122.534V234.811H123.615C123.829 234.811 124.008 234.785 124.152 234.733C124.299 234.682 124.416 234.614 124.504 234.529C124.594 234.441 124.659 234.339 124.697 234.223C124.738 234.108 124.759 233.985 124.759 233.856ZM126.152 237.615V232.404H129.702V233.007H126.89V234.637H129.471V235.232H126.89V237.013H129.861V237.615H126.152ZM131.37 233.007V234.915H133.981V235.525H131.37V237.615H130.632V232.404H134.074V233.007H131.37ZM135.529 235.823V235.205H137.693V235.823H135.529ZM139.375 232.404H142.555V233.007H141.334V237.013H142.555V237.615H139.375V237.013H140.596V233.007H139.375V232.404ZM147.298 234.958C147.298 235.39 147.246 235.773 147.143 236.105C147.04 236.435 146.891 236.711 146.695 236.936C146.499 237.16 146.258 237.33 145.972 237.445C145.689 237.559 145.367 237.615 145.007 237.615H143.577V232.404H144.779C145.186 232.404 145.545 232.454 145.857 232.555C146.171 232.652 146.435 232.806 146.649 233.014C146.862 233.223 147.023 233.488 147.131 233.81C147.242 234.132 147.298 234.515 147.298 234.958ZM146.556 234.958C146.556 234.61 146.52 234.312 146.448 234.065C146.376 233.818 146.266 233.617 146.119 233.462C145.972 233.305 145.788 233.191 145.567 233.119C145.345 233.044 145.084 233.007 144.783 233.007H144.315V237.013H144.941C145.487 237.013 145.893 236.842 146.158 236.499C146.423 236.156 146.556 235.643 146.556 234.958ZM149.224 237.615V236.46H150.132V237.615H149.224ZM149.224 234.59V233.435H150.132V234.59H149.224ZM160.378 236.186C160.378 236.405 160.338 236.607 160.258 236.793C160.178 236.975 160.056 237.134 159.891 237.268C159.729 237.402 159.522 237.506 159.269 237.581C159.019 237.655 158.722 237.693 158.377 237.693C157.774 237.693 157.304 237.574 156.967 237.337C156.632 237.1 156.418 236.758 156.325 236.31L157.04 236.167C157.071 236.308 157.117 236.437 157.179 236.553C157.241 236.669 157.326 236.769 157.434 236.854C157.542 236.937 157.675 237.001 157.832 237.048C157.989 237.094 158.177 237.117 158.396 237.117C158.582 237.117 158.75 237.1 158.902 237.067C159.057 237.031 159.188 236.975 159.296 236.901C159.407 236.826 159.493 236.731 159.555 236.615C159.617 236.499 159.648 236.36 159.648 236.198C159.648 236.017 159.605 235.871 159.52 235.757C159.438 235.644 159.328 235.551 159.192 235.479C159.055 235.407 158.901 235.349 158.728 235.305C158.558 235.259 158.386 235.214 158.211 235.17C158.082 235.137 157.952 235.102 157.821 235.066C157.689 235.027 157.563 234.983 157.442 234.934C157.321 234.883 157.208 234.824 157.102 234.757C156.999 234.687 156.907 234.605 156.828 234.509C156.75 234.411 156.69 234.298 156.646 234.169C156.602 234.038 156.58 233.886 156.58 233.714C156.58 233.466 156.627 233.255 156.719 233.08C156.812 232.902 156.94 232.758 157.102 232.647C157.264 232.534 157.456 232.452 157.678 232.4C157.899 232.348 158.139 232.323 158.396 232.323C158.695 232.323 158.949 232.35 159.157 232.404C159.368 232.455 159.546 232.534 159.69 232.64C159.837 232.745 159.954 232.876 160.042 233.034C160.129 233.188 160.199 233.368 160.251 233.574L159.524 233.702C159.496 233.571 159.453 233.453 159.397 233.35C159.343 233.247 159.269 233.161 159.177 233.092C159.086 233.022 158.977 232.969 158.848 232.933C158.719 232.897 158.567 232.879 158.392 232.879C158.186 232.879 158.014 232.901 157.875 232.945C157.736 232.986 157.623 233.044 157.538 233.119C157.453 233.191 157.392 233.277 157.353 233.377C157.317 233.478 157.299 233.586 157.299 233.702C157.299 233.856 157.332 233.983 157.399 234.081C157.469 234.176 157.562 234.256 157.678 234.32C157.796 234.382 157.933 234.433 158.087 234.475C158.244 234.516 158.412 234.56 158.589 234.606C158.731 234.642 158.874 234.681 159.018 234.722C159.162 234.76 159.3 234.807 159.432 234.861C159.565 234.915 159.689 234.979 159.802 235.054C159.918 235.126 160.019 235.215 160.104 235.321C160.189 235.426 160.256 235.55 160.305 235.692C160.354 235.833 160.378 235.998 160.378 236.186ZM161.667 235.823V235.205H163.83V235.823H161.667ZM165.359 237.615V232.404H168.909V233.007H166.097V234.637H168.677V235.232H166.097V237.013H169.067V237.615H165.359ZM172.319 237.615L170.31 233.25C170.32 233.361 170.33 233.474 170.341 233.59C170.348 233.688 170.355 233.795 170.36 233.911C170.368 234.024 170.372 234.131 170.372 234.231V237.615H169.715V232.404H170.573L172.612 236.8C172.6 236.697 172.588 236.587 172.578 236.468C172.567 236.368 172.558 236.254 172.551 236.128C172.545 236.002 172.543 235.873 172.543 235.742V232.404H173.207V237.615H172.319ZM177.699 237.102C177.606 237.163 177.498 237.229 177.374 237.299C177.253 237.368 177.118 237.433 176.969 237.492C176.819 237.549 176.656 237.596 176.478 237.635C176.303 237.673 176.115 237.693 175.914 237.693C175.569 237.693 175.269 237.626 175.014 237.492C174.759 237.355 174.548 237.167 174.38 236.928C174.213 236.688 174.088 236.404 174.006 236.074C173.923 235.742 173.882 235.379 173.882 234.985C173.882 234.554 173.922 234.175 174.002 233.845C174.081 233.513 174.205 233.234 174.373 233.01C174.54 232.784 174.752 232.612 175.01 232.497C175.268 232.381 175.573 232.323 175.926 232.323C176.183 232.323 176.409 232.356 176.602 232.423C176.797 232.49 176.966 232.582 177.108 232.697C177.252 232.811 177.372 232.946 177.467 233.103C177.565 233.258 177.645 233.424 177.707 233.601L177.046 233.818C176.948 233.535 176.809 233.316 176.629 233.161C176.451 233.004 176.219 232.925 175.933 232.925C175.702 232.925 175.504 232.97 175.342 233.061C175.18 233.148 175.047 233.28 174.944 233.455C174.844 233.627 174.77 233.842 174.724 234.1C174.68 234.355 174.658 234.65 174.658 234.985C174.658 235.675 174.767 236.199 174.983 236.557C175.202 236.915 175.533 237.094 175.976 237.094C176.099 237.094 176.214 237.084 176.32 237.063C176.428 237.04 176.524 237.014 176.609 236.986C176.697 236.955 176.772 236.924 176.833 236.893C176.898 236.86 176.947 236.831 176.98 236.808V235.51H175.848V234.892H177.699V237.102ZM179.092 235.823V235.205H181.255V235.823H179.092ZM185.778 236.383V237.615H185.082V236.383H182.556V235.842L185.009 232.404H185.778V235.834H186.504V236.383H185.778ZM185.082 233.157L183.151 235.834H185.082V233.157ZM187.071 237.615V237.163C187.184 236.914 187.333 236.683 187.519 236.472C187.704 236.261 187.901 236.062 188.11 235.877C188.321 235.689 188.532 235.51 188.743 235.34C188.957 235.17 189.149 235.003 189.319 234.838C189.492 234.67 189.632 234.502 189.74 234.332C189.848 234.159 189.902 233.978 189.902 233.787C189.902 233.632 189.877 233.5 189.825 233.389C189.776 233.276 189.705 233.183 189.613 233.111C189.522 233.036 189.414 232.982 189.288 232.949C189.164 232.913 189.027 232.894 188.875 232.894C188.736 232.894 188.606 232.914 188.484 232.952C188.366 232.991 188.262 233.049 188.172 233.126C188.081 233.204 188.008 233.3 187.951 233.416C187.895 233.529 187.857 233.662 187.839 233.814L187.128 233.748C187.152 233.553 187.204 233.368 187.287 233.196C187.369 233.023 187.481 232.873 187.623 232.744C187.767 232.612 187.944 232.509 188.152 232.435C188.361 232.36 188.602 232.323 188.875 232.323C189.145 232.323 189.387 232.354 189.601 232.415C189.817 232.477 190 232.569 190.15 232.69C190.302 232.808 190.417 232.956 190.497 233.134C190.577 233.312 190.617 233.515 190.617 233.744C190.617 233.987 190.562 234.212 190.451 234.421C190.34 234.627 190.197 234.822 190.022 235.008C189.85 235.193 189.658 235.37 189.446 235.537C189.235 235.704 189.029 235.871 188.828 236.035C188.627 236.2 188.445 236.366 188.28 236.534C188.115 236.699 187.991 236.871 187.909 237.051H190.702V237.615H187.071ZM192.161 235.823V235.205H194.324V235.823H192.161ZM199.573 234.958C199.573 235.39 199.521 235.773 199.418 236.105C199.315 236.435 199.166 236.711 198.97 236.936C198.775 237.16 198.534 237.33 198.248 237.445C197.965 237.559 197.643 237.615 197.282 237.615H195.853V232.404H197.054C197.461 232.404 197.82 232.454 198.132 232.555C198.446 232.652 198.71 232.806 198.924 233.014C199.138 233.223 199.299 233.488 199.407 233.81C199.518 234.132 199.573 234.515 199.573 234.958ZM198.831 234.958C198.831 234.61 198.795 234.312 198.723 234.065C198.651 233.818 198.541 233.617 198.395 233.462C198.248 233.305 198.064 233.191 197.842 233.119C197.621 233.044 197.359 233.007 197.058 233.007H196.591V237.013H197.216C197.762 237.013 198.168 236.842 198.433 236.499C198.699 236.156 198.831 235.643 198.831 234.958ZM200.209 237.615V232.404H203.759V233.007H200.947V234.637H203.527V235.232H200.947V237.013H203.918V237.615H200.209ZM204.855 237.615V232.404H205.593V237.013H208.189V237.615H204.855ZM211.035 233.007V237.615H210.301V233.007H208.589V232.404H212.746V233.007H211.035ZM216.647 237.615L216.113 236.14H213.938L213.409 237.615H212.652L214.622 232.404H215.461L217.396 237.615H216.647ZM215.36 233.93C215.327 233.832 215.292 233.733 215.256 233.632C215.22 233.532 215.186 233.437 215.155 233.347C215.127 233.256 215.101 233.178 215.078 233.111C215.057 233.041 215.042 232.991 215.032 232.96C215.021 232.991 215.006 233.041 214.985 233.111C214.965 233.18 214.939 233.26 214.908 233.35C214.88 233.441 214.849 233.536 214.815 233.636C214.784 233.737 214.752 233.835 214.719 233.93L214.135 235.564H215.924L215.36 233.93Z" fill="#6B7280"/>
</g>
<rect x="44.3956" y="22.4176" width="250.549" height="250.993" rx="27.6923" stroke="#F3F4F6" stroke-width="0.879121"/>
</g>
<defs>
<filter id="filter0_d_23_1569" x="1.14441e-05" y="5.72205e-06" width="339.341" height="339.784" filterUnits="userSpaceOnUse" color-interpolation-filters="sRGB">
<feFlood flood-opacity="0" result="BackgroundImageFix"/>
<feColorMatrix in="SourceAlpha" type="matrix" values="0 0 0 0 0 0 0 0 0 0 0 0 0 0 0 0 0 0 127 0" result="hardAlpha"/>
<feOffset dy="21.978"/>
<feGaussianBlur stdDeviation="21.978"/>
<feComposite in2="hardAlpha" operator="out"/>
<feColorMatrix type="matrix" values="0 0 0 0 0 0 0 0 0 0 0 0 0 0 0 0 0 0 0.12 0"/>
<feBlend mode="normal" in2="BackgroundImageFix" result="effect1_dropShadow_23_1569"/>
<feBlend mode="normal" in="SourceGraphic" in2="effect1_dropShadow_23_1569" result="shape"/>
</filter>
<clipPath id="clip0_23_1569">
<rect x="43.9561" y="21.978" width="251.429" height="251.872" rx="28.1319" fill="white"/>
</clipPath>
</defs>
</svg>
