<svg width="136" height="36" viewBox="0 0 136 36" fill="none" xmlns="http://www.w3.org/2000/svg">
<path d="M1.25 29.5662V25.8162H5.125L1.9375 15.3787C1.375 15.0662 0.911458 14.6079 0.546875 14.0037C0.182292 13.3995 0 12.7537 0 12.0662C0 11.0245 0.364583 10.1391 1.09375 9.40994C1.82292 8.68077 2.70833 8.31619 3.75 8.31619C4.5625 8.31619 5.28646 8.55057 5.92188 9.01932C6.55729 9.48807 7 10.087 7.25 10.8162H11.25V9.56619C11.25 9.21202 11.3698 8.91515 11.6094 8.67557C11.849 8.43598 12.1458 8.31619 12.5 8.31619C12.6875 8.31619 12.8698 8.35786 13.0469 8.44119C13.224 8.52452 13.375 8.64952 13.5 8.81619L15.625 6.81619C15.8125 6.62869 16.0365 6.5089 16.2969 6.45682C16.5573 6.40473 16.8125 6.44119 17.0625 6.56619L21.9375 8.81619C22.1875 8.94119 22.3594 9.12348 22.4531 9.36307C22.5469 9.60265 22.5417 9.83702 22.4375 10.0662C22.3125 10.3162 22.1302 10.4776 21.8906 10.5506C21.651 10.6235 21.4167 10.6079 21.1875 10.5037L16.6875 8.44119L13.75 11.1912V12.9412L16.6875 15.6287L21.1875 13.5662C21.4167 13.462 21.6562 13.4516 21.9062 13.5349C22.1562 13.6183 22.3333 13.7745 22.4375 14.0037C22.5625 14.2537 22.5729 14.4933 22.4688 14.7224C22.3646 14.9516 22.1875 15.1287 21.9375 15.2537L17.0625 17.5662C16.8125 17.6912 16.5573 17.7276 16.2969 17.6756C16.0365 17.6235 15.8125 17.5037 15.625 17.3162L13.5 15.3162C13.375 15.4412 13.224 15.5558 13.0469 15.6599C12.8698 15.7641 12.6875 15.8162 12.5 15.8162C12.1458 15.8162 11.849 15.6964 11.6094 15.4568C11.3698 15.2172 11.25 14.9204 11.25 14.5662V13.3162H7.25C7.1875 13.4829 7.11979 13.6391 7.04688 13.7849C6.97396 13.9308 6.875 14.087 6.75 14.2537L13 25.8162H17.5V29.5662H1.25ZM3.75 13.3162C4.10417 13.3162 4.40104 13.1964 4.64062 12.9568C4.88021 12.7172 5 12.4204 5 12.0662C5 11.712 4.88021 11.4151 4.64062 11.1756C4.40104 10.936 4.10417 10.8162 3.75 10.8162C3.39583 10.8162 3.09896 10.936 2.85938 11.1756C2.61979 11.4151 2.5 11.712 2.5 12.0662C2.5 12.4204 2.61979 12.7172 2.85938 12.9568C3.09896 13.1964 3.39583 13.3162 3.75 13.3162ZM7.6875 25.8162H10.125L4.75 15.8162C4.75 15.8162 4.72917 15.8162 4.6875 15.8162C4.64583 15.8162 4.625 15.8162 4.625 15.8162L7.6875 25.8162Z" fill="#101622"/>
<path d="M31.86 25V11H36.76L39.18 23.2H39.54L41.96 11H46.86V25H44.3V12.94H43.94L41.54 25H37.18L34.78 12.94H34.42V25H31.86ZM49.5 25V11H58.5V13.4H52.14V16.74H57.94V19.14H52.14V22.6H58.62V25H49.5ZM65.9 25.28C64.1667 25.28 62.7934 24.7967 61.78 23.83C60.7667 22.8633 60.26 21.48 60.26 19.68V16.32C60.26 14.52 60.7667 13.1367 61.78 12.17C62.7934 11.2033 64.1667 10.72 65.9 10.72C67.62 10.72 68.95 11.19 69.89 12.13C70.83 13.07 71.3 14.36 71.3 16V16.12H68.7V15.92C68.7 15.0933 68.47 14.4133 68.01 13.88C67.55 13.3467 66.8467 13.08 65.9 13.08C64.9667 13.08 64.2334 13.3667 63.7 13.94C63.1667 14.5133 62.9 15.2933 62.9 16.28V19.72C62.9 20.6933 63.1667 21.47 63.7 22.05C64.2334 22.63 64.9667 22.92 65.9 22.92C66.8467 22.92 67.55 22.65 68.01 22.11C68.47 21.57 68.7 20.8933 68.7 20.08V19.72H71.3V20C71.3 21.64 70.83 22.93 69.89 23.87C68.95 24.81 67.62 25.28 65.9 25.28ZM73.46 25V11H76.1V16.78H81.3V11H83.94V25H81.3V19.18H76.1V25H73.46ZM91.9 25.28C90.1667 25.28 88.7934 24.7967 87.78 23.83C86.7667 22.8633 86.26 21.48 86.26 19.68V16.32C86.26 14.52 86.7667 13.1367 87.78 12.17C88.7934 11.2033 90.1667 10.72 91.9 10.72C93.62 10.72 94.95 11.19 95.89 12.13C96.83 13.07 97.3 14.36 97.3 16V16.12H94.7V15.92C94.7 15.0933 94.47 14.4133 94.01 13.88C93.55 13.3467 92.8467 13.08 91.9 13.08C90.9667 13.08 90.2334 13.3667 89.7 13.94C89.1667 14.5133 88.9 15.2933 88.9 16.28V19.72C88.9 20.6933 89.1667 21.47 89.7 22.05C90.2334 22.63 90.9667 22.92 91.9 22.92C92.8467 22.92 93.55 22.65 94.01 22.11C94.47 21.57 94.7 20.8933 94.7 20.08V19.72H97.3V20C97.3 21.64 96.83 22.93 95.89 23.87C94.95 24.81 93.62 25.28 91.9 25.28ZM104.9 25.28C103.14 25.28 101.74 24.7967 100.7 23.83C99.66 22.8633 99.14 21.48 99.14 19.68V16.32C99.14 14.52 99.66 13.1367 100.7 12.17C101.74 11.2033 103.14 10.72 104.9 10.72C106.66 10.72 108.06 11.2033 109.1 12.17C110.14 13.1367 110.66 14.52 110.66 16.32V19.68C110.66 21.48 110.14 22.8633 109.1 23.83C108.06 24.7967 106.66 25.28 104.9 25.28ZM104.9 22.92C105.887 22.92 106.653 22.6333 107.2 22.06C107.747 21.4867 108.02 20.72 108.02 19.76V16.24C108.02 15.28 107.747 14.5133 107.2 13.94C106.653 13.3667 105.887 13.08 104.9 13.08C103.927 13.08 103.163 13.3667 102.61 13.94C102.057 14.5133 101.78 15.28 101.78 16.24V19.76C101.78 20.72 102.057 21.4867 102.61 22.06C103.163 22.6333 103.927 22.92 104.9 22.92ZM112.98 25V11H119.06C119.94 11 120.707 11.1533 121.36 11.46C122.013 11.7667 122.52 12.2 122.88 12.76C123.24 13.32 123.42 13.98 123.42 14.74V14.98C123.42 15.82 123.22 16.5 122.82 17.02C122.42 17.54 121.927 17.92 121.34 18.16V18.52C121.873 18.5467 122.287 18.73 122.58 19.07C122.873 19.41 123.02 19.86 123.02 20.42V25H120.38V20.8C120.38 20.48 120.297 20.22 120.13 20.02C119.963 19.82 119.687 19.72 119.3 19.72H115.62V25H112.98ZM115.62 17.32H118.78C119.407 17.32 119.897 17.15 120.25 16.81C120.603 16.47 120.78 16.02 120.78 15.46V15.26C120.78 14.7 120.607 14.25 120.26 13.91C119.913 13.57 119.42 13.4 118.78 13.4H115.62V17.32ZM125.62 25V11H134.62V13.4H128.26V16.74H134.06V19.14H128.26V22.6H134.74V25H125.62Z" fill="#101622"/>
</svg>
