<svg width="157" height="36" viewBox="0 0 157 36" fill="none" xmlns="http://www.w3.org/2000/svg">
<path d="M0 28.4375V26C0.604167 26 1.11979 25.9062 1.54688 25.7188C1.97396 25.5312 2.40625 25.3281 2.84375 25.1094C3.28125 24.8906 3.76562 24.6927 4.29688 24.5156C4.82812 24.3385 5.48438 24.25 6.26562 24.25C7.04688 24.25 7.69271 24.3385 8.20312 24.5156C8.71354 24.6927 9.1875 24.8906 9.625 25.1094C10.0625 25.3281 10.5 25.5312 10.9375 25.7188C11.375 25.9062 11.8958 26 12.5 26C13.1042 26 13.625 25.9062 14.0625 25.7188C14.5 25.5312 14.9375 25.3281 15.375 25.1094C15.8125 24.8906 16.2917 24.6927 16.8125 24.5156C17.3333 24.3385 17.9844 24.25 18.7656 24.25C19.5469 24.25 20.1979 24.3385 20.7188 24.5156C21.2396 24.6927 21.7188 24.8906 22.1562 25.1094C22.5938 25.3281 23.0312 25.5312 23.4688 25.7188C23.9062 25.9062 24.4167 26 25 26V28.4375C24.2083 28.4375 23.5469 28.3438 23.0156 28.1562C22.4844 27.9688 22 27.7656 21.5625 27.5469C21.125 27.3281 20.6979 27.1302 20.2812 26.9531C19.8646 26.776 19.3542 26.6875 18.75 26.6875C18.1667 26.6875 17.6615 26.776 17.2344 26.9531C16.8073 27.1302 16.3802 27.3281 15.9531 27.5469C15.526 27.7656 15.0469 27.9688 14.5156 28.1562C13.9844 28.3438 13.3125 28.4375 12.5 28.4375C11.6875 28.4375 11.0156 28.3438 10.4844 28.1562C9.95312 27.9688 9.47396 27.7656 9.04688 27.5469C8.61979 27.3281 8.19792 27.1302 7.78125 26.9531C7.36458 26.776 6.85938 26.6875 6.26562 26.6875C5.67188 26.6875 5.16146 26.776 4.73438 26.9531C4.30729 27.1302 3.875 27.3281 3.4375 27.5469C3 27.7656 2.51562 27.9688 1.98438 28.1562C1.45312 28.3438 0.791667 28.4375 0 28.4375ZM0 22.875V20.4375C0.604167 20.4375 1.11979 20.3438 1.54688 20.1562C1.97396 19.9688 2.40625 19.7656 2.84375 19.5469C3.28125 19.3281 3.76562 19.1302 4.29688 18.9531C4.82812 18.776 5.48438 18.6875 6.26562 18.6875C7.04688 18.6875 7.69271 18.776 8.20312 18.9531C8.71354 19.1302 9.1875 19.3281 9.625 19.5469C10.0625 19.7656 10.5 19.9688 10.9375 20.1562C11.375 20.3438 11.8958 20.4375 12.5 20.4375C13.1042 20.4375 13.625 20.3438 14.0625 20.1562C14.5 19.9688 14.9375 19.7656 15.375 19.5469C15.8125 19.3281 16.2917 19.1302 16.8125 18.9531C17.3333 18.776 17.9792 18.6875 18.75 18.6875C19.5417 18.6875 20.1979 18.776 20.7188 18.9531C21.2396 19.1302 21.7188 19.3281 22.1562 19.5469C22.5938 19.7656 23.0312 19.9688 23.4688 20.1562C23.9062 20.3438 24.4167 20.4375 25 20.4375V22.875C24.2083 22.875 23.5469 22.7812 23.0156 22.5938C22.4844 22.4062 22 22.2031 21.5625 21.9844C21.125 21.7656 20.6979 21.5677 20.2812 21.3906C19.8646 21.2135 19.3542 21.125 18.75 21.125C18.1458 21.125 17.6302 21.2135 17.2031 21.3906C16.776 21.5677 16.349 21.7656 15.9219 21.9844C15.4948 22.2031 15.0208 22.4062 14.5 22.5938C13.9792 22.7812 13.3125 22.875 12.5 22.875C11.6875 22.875 11.0156 22.7812 10.4844 22.5938C9.95312 22.4062 9.47396 22.2031 9.04688 21.9844C8.61979 21.7656 8.19792 21.5677 7.78125 21.3906C7.36458 21.2135 6.85938 21.125 6.26562 21.125C5.67188 21.125 5.16146 21.2135 4.73438 21.3906C4.30729 21.5677 3.875 21.7656 3.4375 21.9844C3 22.2031 2.51562 22.4062 1.98438 22.5938C1.45312 22.7812 0.791667 22.875 0 22.875ZM0 17.3125V14.875C0.604167 14.875 1.11979 14.7812 1.54688 14.5938C1.97396 14.4062 2.40625 14.2031 2.84375 13.9844C3.28125 13.7656 3.76562 13.5677 4.29688 13.3906C4.82812 13.2135 5.48438 13.125 6.26562 13.125C7.04688 13.125 7.69271 13.2135 8.20312 13.3906C8.71354 13.5677 9.1875 13.7656 9.625 13.9844C10.0625 14.2031 10.5 14.4062 10.9375 14.5938C11.375 14.7812 11.8958 14.875 12.5 14.875C13.1042 14.875 13.625 14.7812 14.0625 14.5938C14.5 14.4062 14.9375 14.2031 15.375 13.9844C15.8125 13.7656 16.2917 13.5677 16.8125 13.3906C17.3333 13.2135 17.9792 13.125 18.75 13.125C19.5417 13.125 20.1979 13.2135 20.7188 13.3906C21.2396 13.5677 21.7188 13.7656 22.1562 13.9844C22.5938 14.2031 23.0312 14.4062 23.4688 14.5938C23.9062 14.7812 24.4167 14.875 25 14.875V17.3125C24.2083 17.3125 23.5469 17.2188 23.0156 17.0312C22.4844 16.8438 22 16.6406 21.5625 16.4219C21.125 16.2031 20.6979 16.0052 20.2812 15.8281C19.8646 15.651 19.3542 15.5625 18.75 15.5625C18.1667 15.5625 17.6615 15.651 17.2344 15.8281C16.8073 16.0052 16.3802 16.2031 15.9531 16.4219C15.526 16.6406 15.0469 16.8438 14.5156 17.0312C13.9844 17.2188 13.3125 17.3125 12.5 17.3125C11.6875 17.3125 11.0156 17.2188 10.4844 17.0312C9.95312 16.8438 9.47396 16.6406 9.04688 16.4219C8.61979 16.2031 8.19792 16.0052 7.78125 15.8281C7.36458 15.651 6.85938 15.5625 6.26562 15.5625C5.67188 15.5625 5.16146 15.651 4.73438 15.8281C4.30729 16.0052 3.875 16.2031 3.4375 16.4219C3 16.6406 2.51562 16.8438 1.98438 17.0312C1.45312 17.2188 0.791667 17.3125 0 17.3125ZM0 11.75V9.3125C0.604167 9.3125 1.11979 9.21875 1.54688 9.03125C1.97396 8.84375 2.40625 8.64062 2.84375 8.42188C3.28125 8.20312 3.76562 8.00521 4.29688 7.82812C4.82812 7.65104 5.48438 7.5625 6.26562 7.5625C7.04688 7.5625 7.69271 7.65104 8.20312 7.82812C8.71354 8.00521 9.1875 8.20312 9.625 8.42188C10.0625 8.64062 10.5 8.84375 10.9375 9.03125C11.375 9.21875 11.8958 9.3125 12.5 9.3125C13.1042 9.3125 13.625 9.21875 14.0625 9.03125C14.5 8.84375 14.9375 8.64062 15.375 8.42188C15.8125 8.20312 16.2917 8.00521 16.8125 7.82812C17.3333 7.65104 17.9792 7.5625 18.75 7.5625C19.5417 7.5625 20.1979 7.65104 20.7188 7.82812C21.2396 8.00521 21.7188 8.20312 22.1562 8.42188C22.5938 8.64062 23.0312 8.84375 23.4688 9.03125C23.9062 9.21875 24.4167 9.3125 25 9.3125V11.75C24.2083 11.75 23.5469 11.6562 23.0156 11.4688C22.4844 11.2812 22 11.0781 21.5625 10.8594C21.125 10.6406 20.6979 10.4427 20.2812 10.2656C19.8646 10.0885 19.3542 10 18.75 10C18.1667 10 17.6615 10.0885 17.2344 10.2656C16.8073 10.4427 16.3802 10.6406 15.9531 10.8594C15.526 11.0781 15.0469 11.2812 14.5156 11.4688C13.9844 11.6562 13.3125 11.75 12.5 11.75C11.6875 11.75 11.0156 11.6562 10.4844 11.4688C9.95312 11.2812 9.47396 11.0781 9.04688 10.8594C8.61979 10.6406 8.19792 10.4427 7.78125 10.2656C7.36458 10.0885 6.85938 10 6.26562 10C5.67188 10 5.16146 10.0885 4.73438 10.2656C4.30729 10.4427 3.875 10.6406 3.4375 10.8594C3 11.0781 2.51562 11.2812 1.98438 11.4688C1.45312 11.6562 0.791667 11.75 0 11.75Z" fill="#101622"/>
<path d="M34.32 25V11H40.08C40.96 11 41.7367 11.1767 42.41 11.53C43.0833 11.8833 43.61 12.38 43.99 13.02C44.37 13.66 44.56 14.42 44.56 15.3V15.58C44.56 16.4467 44.3633 17.2033 43.97 17.85C43.5767 18.4967 43.0433 18.9967 42.37 19.35C41.6967 19.7033 40.9333 19.88 40.08 19.88H36.96V25H34.32ZM36.96 17.48H39.82C40.4467 17.48 40.9533 17.3067 41.34 16.96C41.7267 16.6133 41.92 16.14 41.92 15.54V15.34C41.92 14.74 41.7267 14.2667 41.34 13.92C40.9533 13.5733 40.4467 13.4 39.82 13.4H36.96V17.48ZM44.36 25L48.04 11H52.64L56.32 25H53.6L52.84 21.92H47.84L47.08 25H44.36ZM48.46 19.48H52.22L50.52 12.66H50.16L48.46 19.48ZM63.2 25.28C61.4667 25.28 60.0933 24.7967 59.08 23.83C58.0667 22.8633 57.56 21.48 57.56 19.68V16.32C57.56 14.52 58.0667 13.1367 59.08 12.17C60.0933 11.2033 61.4667 10.72 63.2 10.72C64.92 10.72 66.25 11.19 67.19 12.13C68.13 13.07 68.6 14.36 68.6 16V16.12H66V15.92C66 15.0933 65.77 14.4133 65.31 13.88C64.85 13.3467 64.1467 13.08 63.2 13.08C62.2667 13.08 61.5333 13.3667 61 13.94C60.4667 14.5133 60.2 15.2933 60.2 16.28V19.72C60.2 20.6933 60.4667 21.47 61 22.05C61.5333 22.63 62.2667 22.92 63.2 22.92C64.1467 22.92 64.85 22.65 65.31 22.11C65.77 21.57 66 20.8933 66 20.08V19.72H68.6V20C68.6 21.64 68.13 22.93 67.19 23.87C66.25 24.81 64.92 25.28 63.2 25.28ZM70.76 25V11H73.4V25H70.76ZM76.04 25V11H84.84V13.4H78.68V16.78H84.36V19.18H78.68V25H76.04ZM86.72 25V11H89.36V25H86.72ZM97.32 25.28C95.5867 25.28 94.2133 24.7967 93.2 23.83C92.1867 22.8633 91.68 21.48 91.68 19.68V16.32C91.68 14.52 92.1867 13.1367 93.2 12.17C94.2133 11.2033 95.5867 10.72 97.32 10.72C99.04 10.72 100.37 11.19 101.31 12.13C102.25 13.07 102.72 14.36 102.72 16V16.12H100.12V15.92C100.12 15.0933 99.89 14.4133 99.43 13.88C98.97 13.3467 98.2667 13.08 97.32 13.08C96.3867 13.08 95.6533 13.3667 95.12 13.94C94.5867 14.5133 94.32 15.2933 94.32 16.28V19.72C94.32 20.6933 94.5867 21.47 95.12 22.05C95.6533 22.63 96.3867 22.92 97.32 22.92C98.2667 22.92 98.97 22.65 99.43 22.11C99.89 21.57 100.12 20.8933 100.12 20.08V19.72H102.72V20C102.72 21.64 102.25 22.93 101.31 23.87C100.37 24.81 99.04 25.28 97.32 25.28ZM109.56 25V22.68H111.4V13.32H109.56V11H116.76C117.613 11 118.357 11.1433 118.99 11.43C119.623 11.7167 120.117 12.1233 120.47 12.65C120.823 13.1767 121 13.8067 121 14.54V14.74C121 15.38 120.88 15.9033 120.64 16.31C120.4 16.7167 120.117 17.03 119.79 17.25C119.463 17.47 119.153 17.6267 118.86 17.72V18.08C119.153 18.16 119.473 18.31 119.82 18.53C120.167 18.75 120.463 19.0667 120.71 19.48C120.957 19.8933 121.08 20.4333 121.08 21.1V21.3C121.08 22.0733 120.9 22.7367 120.54 23.29C120.18 23.8433 119.683 24.2667 119.05 24.56C118.417 24.8533 117.68 25 116.84 25H109.56ZM114.04 22.6H116.52C117.093 22.6 117.557 22.46 117.91 22.18C118.263 21.9 118.44 21.5 118.44 20.98V20.78C118.44 20.26 118.267 19.86 117.92 19.58C117.573 19.3 117.107 19.16 116.52 19.16H114.04V22.6ZM114.04 16.76H116.48C117.027 16.76 117.477 16.62 117.83 16.34C118.183 16.06 118.36 15.6733 118.36 15.18V14.98C118.36 14.4733 118.187 14.0833 117.84 13.81C117.493 13.5367 117.04 13.4 116.48 13.4H114.04V16.76ZM123.24 25V11H125.88V22.6H132.28V25H123.24ZM139.08 25.28C137.933 25.28 136.95 25.07 136.13 24.65C135.31 24.23 134.683 23.63 134.25 22.85C133.817 22.07 133.6 21.1467 133.6 20.08V11H136.24V20.16C136.24 21.0133 136.483 21.6867 136.97 22.18C137.457 22.6733 138.16 22.92 139.08 22.92C140 22.92 140.703 22.6733 141.19 22.18C141.677 21.6867 141.92 21.0133 141.92 20.16V11H144.56V20.08C144.56 21.1467 144.343 22.07 143.91 22.85C143.477 23.63 142.85 24.23 142.03 24.65C141.21 25.07 140.227 25.28 139.08 25.28ZM147.12 25V11H156.12V13.4H149.76V16.74H155.56V19.14H149.76V22.6H156.24V25H147.12Z" fill="#101622"/>
</svg>
