<svg width="128" height="36" viewBox="0 0 128 36" fill="none" xmlns="http://www.w3.org/2000/svg">
<path d="M1.25 29.25C0.895833 29.25 0.598958 29.1302 0.359375 28.8906C0.119792 28.651 0 28.3542 0 28C0 27.6458 0.119792 27.349 0.359375 27.1094C0.598958 26.8698 0.895833 26.75 1.25 26.75H2.5V19.25H1.25C0.895833 19.25 0.598958 19.1302 0.359375 18.8906C0.119792 18.651 0 18.3542 0 18C0 17.6458 0.119792 17.349 0.359375 17.1094C0.598958 16.8698 0.895833 16.75 1.25 16.75H2.5V9.25H1.25C0.895833 9.25 0.598958 9.13021 0.359375 8.89062C0.119792 8.65104 0 8.35417 0 8C0 7.64583 0.119792 7.34896 0.359375 7.10938C0.598958 6.86979 0.895833 6.75 1.25 6.75H21.25C21.6042 6.75 21.901 6.86979 22.1406 7.10938C22.3802 7.34896 22.5 7.64583 22.5 8C22.5 8.35417 22.3802 8.65104 22.1406 8.89062C21.901 9.13021 21.6042 9.25 21.25 9.25H20V16.75H21.25C21.6042 16.75 21.901 16.8698 22.1406 17.1094C22.3802 17.349 22.5 17.6458 22.5 18C22.5 18.3542 22.3802 18.651 22.1406 18.8906C21.901 19.1302 21.6042 19.25 21.25 19.25H20V26.75H21.25C21.6042 26.75 21.901 26.8698 22.1406 27.1094C22.3802 27.349 22.5 27.6458 22.5 28C22.5 28.3542 22.3802 28.651 22.1406 28.8906C21.901 29.1302 21.6042 29.25 21.25 29.25H1.25ZM5 26.75H17.5V19.25C17.1458 19.25 16.849 19.1302 16.6094 18.8906C16.3698 18.651 16.25 18.3542 16.25 18C16.25 17.6458 16.3698 17.349 16.6094 17.1094C16.849 16.8698 17.1458 16.75 17.5 16.75V9.25H5V16.75C5.35417 16.75 5.65104 16.8698 5.89062 17.1094C6.13021 17.349 6.25 17.6458 6.25 18C6.25 18.3542 6.13021 18.651 5.89062 18.8906C5.65104 19.1302 5.35417 19.25 5 19.25V26.75ZM11.25 23C12.2917 23 13.1771 22.6406 13.9062 21.9219C14.6354 21.2031 15 20.3333 15 19.3125C15 18.5 14.7656 17.8021 14.2969 17.2188C13.8281 16.6354 12.8125 15.4375 11.25 13.625C9.6875 15.4167 8.67188 16.6094 8.20312 17.2031C7.73438 17.7969 7.5 18.5 7.5 19.3125C7.5 20.3333 7.86458 21.2031 8.59375 21.9219C9.32292 22.6406 10.2083 23 11.25 23ZM5 26.75V9.25V26.75Z" fill="#101622"/>
<path d="M31.82 25V11H37.58C38.46 11 39.2333 11.18 39.9 11.54C40.58 11.8867 41.1067 12.38 41.48 13.02C41.8667 13.66 42.06 14.42 42.06 15.3V15.58C42.06 16.4467 41.86 17.2067 41.46 17.86C41.0733 18.5 40.54 19 39.86 19.36C39.1933 19.7067 38.4333 19.88 37.58 19.88H34.46V25H31.82ZM34.46 17.48H37.32C37.9467 17.48 38.4533 17.3067 38.84 16.96C39.2267 16.6133 39.42 16.14 39.42 15.54V15.34C39.42 14.74 39.2267 14.2667 38.84 13.92C38.4533 13.5733 37.9467 13.4 37.32 13.4H34.46V17.48ZM43.8903 25V11H52.8903V13.4H46.5303V16.74H52.3303V19.14H46.5303V22.6H53.0103V25H43.8903ZM58.2045 25V13.4H54.1245V11H64.9245V13.4H60.8445V25H58.2045ZM66.7223 25V11H72.8023C73.6823 11 74.449 11.1533 75.1023 11.46C75.7557 11.7667 76.2623 12.2 76.6223 12.76C76.9823 13.32 77.1623 13.98 77.1623 14.74V14.98C77.1623 15.82 76.9623 16.5 76.5623 17.02C76.1623 17.54 75.669 17.92 75.0823 18.16V18.52C75.6157 18.5467 76.029 18.7333 76.3223 19.08C76.6157 19.4133 76.7623 19.86 76.7623 20.42V25H74.1223V20.8C74.1223 20.48 74.0357 20.22 73.8623 20.02C73.7023 19.82 73.429 19.72 73.0423 19.72H69.3623V25H66.7223ZM69.3623 17.32H72.5223C73.149 17.32 73.6357 17.1533 73.9823 16.82C74.3423 16.4733 74.5223 16.02 74.5223 15.46V15.26C74.5223 14.7 74.349 14.2533 74.0023 13.92C73.6557 13.5733 73.1623 13.4 72.5223 13.4H69.3623V17.32ZM84.7991 25.28C83.0391 25.28 81.6391 24.8 80.5991 23.84C79.5591 22.8667 79.0391 21.48 79.0391 19.68V16.32C79.0391 14.52 79.5591 13.14 80.5991 12.18C81.6391 11.2067 83.0391 10.72 84.7991 10.72C86.5591 10.72 87.9591 11.2067 88.9991 12.18C90.0391 13.14 90.5591 14.52 90.5591 16.32V19.68C90.5591 21.48 90.0391 22.8667 88.9991 23.84C87.9591 24.8 86.5591 25.28 84.7991 25.28ZM84.7991 22.92C85.7857 22.92 86.5524 22.6333 87.0991 22.06C87.6457 21.4867 87.9191 20.72 87.9191 19.76V16.24C87.9191 15.28 87.6457 14.5133 87.0991 13.94C86.5524 13.3667 85.7857 13.08 84.7991 13.08C83.8257 13.08 83.0591 13.3667 82.4991 13.94C81.9524 14.5133 81.6791 15.28 81.6791 16.24V19.76C81.6791 20.72 81.9524 21.4867 82.4991 22.06C83.0591 22.6333 83.8257 22.92 84.7991 22.92ZM95.2013 25L91.6413 11H94.3613L97.3213 23.3H97.6013L100.561 11H103.281L99.7213 25H95.2013ZM104.965 25V11H113.965V13.4H107.605V16.74H113.405V19.14H107.605V22.6H114.085V25H104.965ZM115.159 25L119.259 17.94L115.199 11H118.199L120.979 16.06H121.339L124.119 11H127.119L123.059 17.94L127.159 25H124.159L121.339 19.82H120.979L118.159 25H115.159Z" fill="#101622"/>
</svg>
