<svg width="440" height="250" viewBox="0 0 440 250" fill="none" xmlns="http://www.w3.org/2000/svg">
<g filter="url(#filter0_dd_23_1617)">
<g clip-path="url(#clip0_23_1617)">
<rect x="20" width="400" height="210" rx="32" fill="white"/>
<g opacity="0.5" filter="url(#filter1_f_23_1617)">
<rect x="331" y="-39" width="128" height="128" rx="64" fill="#FEF2F2"/>
</g>
<path d="M50.2441 36L48.5449 32.9824H47.5312V36H45.8027V28.0957H48.6973C49.7285 28.0957 50.5 28.2969 51.0117 28.6992C51.5234 29.1016 51.7793 29.6816 51.7793 30.4395C51.7793 30.7285 51.7383 30.9902 51.6562 31.2246C51.5742 31.459 51.4609 31.665 51.3164 31.8428C51.1719 32.0205 51 32.1729 50.8008 32.2998C50.6016 32.4268 50.3828 32.5254 50.1445 32.5957L52.1895 36H50.2441ZM50.0391 30.5098C50.0391 30.3105 50.0049 30.1426 49.9365 30.0059C49.8682 29.8691 49.7695 29.7588 49.6406 29.6748C49.5117 29.5908 49.3525 29.5303 49.1631 29.4932C48.9736 29.4561 48.7578 29.4375 48.5156 29.4375H47.5312V31.6406H48.5625C49.0781 31.6406 49.4531 31.5439 49.6875 31.3506C49.9219 31.1572 50.0391 30.877 50.0391 30.5098ZM53.1211 28.0957H58.4883V29.4316H56.666V34.6641H58.4883V36H53.1211V34.6641H54.9434V29.4316H53.1211V28.0957ZM66.2285 33.709C66.2285 34.0527 66.1621 34.3721 66.0293 34.667C65.8965 34.9619 65.6953 35.2168 65.4258 35.4316C65.1562 35.6465 64.8184 35.8145 64.4121 35.9355C64.0059 36.0566 63.5293 36.1172 62.9824 36.1172C62.0645 36.1172 61.3164 35.9238 60.7383 35.5371C60.1602 35.1504 59.7891 34.5879 59.625 33.8496L61.2949 33.6328C61.3848 34 61.5723 34.29 61.8574 34.5029C62.1426 34.7158 62.5332 34.8223 63.0293 34.8223C63.2637 34.8223 63.4736 34.8047 63.6592 34.7695C63.8447 34.7344 64.0039 34.6777 64.1367 34.5996C64.2695 34.5215 64.3711 34.417 64.4414 34.2861C64.5117 34.1553 64.5469 33.9961 64.5469 33.8086C64.5469 33.5977 64.4854 33.4248 64.3623 33.29C64.2393 33.1553 64.083 33.0439 63.8936 32.9561C63.7041 32.8682 63.4941 32.7959 63.2637 32.7393C63.0332 32.6826 62.8105 32.625 62.5957 32.5664C62.4121 32.5156 62.2197 32.46 62.0186 32.3994C61.8174 32.3389 61.6211 32.2656 61.4297 32.1797C61.2383 32.0938 61.0566 31.9932 60.8848 31.8779C60.7129 31.7627 60.5625 31.625 60.4336 31.4648C60.3047 31.3047 60.2021 31.1201 60.126 30.9111C60.0498 30.7021 60.0117 30.4629 60.0117 30.1934C60.0117 29.8105 60.0947 29.4795 60.2607 29.2002C60.4268 28.9209 60.6484 28.6904 60.9258 28.5088C61.2031 28.3271 61.5215 28.1924 61.8809 28.1045C62.2402 28.0166 62.6152 27.9727 63.0059 27.9727C63.8809 27.9727 64.5645 28.1455 65.0566 28.4912C65.5488 28.8369 65.8672 29.373 66.0117 30.0996L64.3359 30.2695C64.25 29.9141 64.0957 29.6465 63.873 29.4668C63.6504 29.2871 63.3496 29.1973 62.9707 29.1973C62.7246 29.1973 62.5205 29.2217 62.3584 29.2705C62.1963 29.3193 62.0654 29.3857 61.9658 29.4697C61.8662 29.5537 61.7959 29.6494 61.7549 29.7568C61.7139 29.8643 61.6934 29.9766 61.6934 30.0938C61.6934 30.2812 61.7422 30.4365 61.8398 30.5596C61.9375 30.6826 62.0654 30.7852 62.2236 30.8672C62.3818 30.9492 62.5635 31.0186 62.7686 31.0752C62.9736 31.1318 63.1816 31.1875 63.3926 31.2422C63.5996 31.293 63.8125 31.3506 64.0312 31.415C64.25 31.4795 64.4648 31.5557 64.6758 31.6436C64.8867 31.7314 65.0859 31.835 65.2734 31.9541C65.4609 32.0732 65.625 32.2148 65.7656 32.3789C65.9062 32.543 66.0186 32.7344 66.1025 32.9531C66.1865 33.1719 66.2285 33.4238 66.2285 33.709ZM71.7656 36L69.873 32.7363L69.1289 33.5684V36H67.4004V28.0957H69.1289V31.6055L71.6836 28.0957H73.6934L70.998 31.4883L73.8047 36H71.7656ZM86.3262 36V30.9141C86.3262 30.7148 86.3311 30.5117 86.3408 30.3047C86.3506 30.0977 86.3613 29.9082 86.373 29.7363C86.3887 29.5371 86.4043 29.3418 86.4199 29.1504C86.3652 29.4199 86.3125 29.6797 86.2617 29.9297C86.2383 30.0352 86.2148 30.1445 86.1914 30.2578C86.168 30.3711 86.1445 30.4814 86.1211 30.5889C86.0977 30.6963 86.0742 30.7979 86.0508 30.8936C86.0273 30.9893 86.0039 31.0742 85.9805 31.1484L85.2539 33.8906H83.9766L83.2383 31.1484C83.2227 31.0898 83.2031 31.0156 83.1797 30.9258C83.1562 30.8359 83.1328 30.7383 83.1094 30.6328C83.0859 30.5273 83.0615 30.418 83.0361 30.3047C83.0107 30.1914 82.9863 30.0801 82.9629 29.9707C82.9082 29.7129 82.8516 29.4395 82.793 29.1504C82.8047 29.3379 82.8184 29.5332 82.834 29.7363C82.8457 29.9121 82.8555 30.1025 82.8633 30.3076C82.8711 30.5127 82.875 30.7148 82.875 30.9141V36H81.5859V28.0957H83.6191L84.4102 31.0195C84.4414 31.1211 84.4697 31.248 84.4951 31.4004C84.5205 31.5527 84.543 31.7012 84.5625 31.8457C84.5859 32.0137 84.6094 32.1895 84.6328 32.373C84.6562 32.1895 84.6816 32.0137 84.709 31.8457C84.7324 31.7012 84.7578 31.5537 84.7852 31.4033C84.8125 31.2529 84.8398 31.127 84.8672 31.0254L85.6641 28.0957H87.627V36H86.3262ZM94.9863 32.0215C94.9863 33.3691 94.7129 34.3887 94.166 35.0801C93.6191 35.7715 92.834 36.1172 91.8105 36.1172C90.7871 36.1172 90.001 35.7715 89.4521 35.0801C88.9033 34.3887 88.6289 33.3691 88.6289 32.0215C88.6289 30.6738 88.9033 29.6621 89.4521 28.9863C90.001 28.3105 90.7871 27.9727 91.8105 27.9727C92.834 27.9727 93.6191 28.3105 94.166 28.9863C94.7129 29.6621 94.9863 30.6738 94.9863 32.0215ZM93.2344 32.0215C93.2344 31.1113 93.1152 30.4355 92.877 29.9941C92.6387 29.5527 92.2832 29.332 91.8105 29.332C91.3379 29.332 90.9814 29.5557 90.7412 30.0029C90.501 30.4502 90.3809 31.123 90.3809 32.0215C90.3809 32.9199 90.501 33.6006 90.7412 34.0635C90.9814 34.5264 91.3379 34.7578 91.8105 34.7578C92.2832 34.7578 92.6387 34.5264 92.877 34.0635C93.1152 33.6006 93.2344 32.9199 93.2344 32.0215ZM99.791 36L97.541 30.082C97.5723 30.3633 97.5996 30.6328 97.623 30.8906C97.6348 31 97.6455 31.1133 97.6553 31.2305C97.665 31.3477 97.6738 31.4619 97.6816 31.5732C97.6895 31.6846 97.6953 31.79 97.6992 31.8896C97.7031 31.9893 97.7051 32.0781 97.7051 32.1562V36H96.1992V28.0957H98.1738L100.477 34.1719C100.445 33.9102 100.418 33.6504 100.395 33.3926C100.375 33.1699 100.356 32.9365 100.339 32.6924C100.321 32.4482 100.312 32.2285 100.312 32.0332V28.0957H101.818V36H99.791ZM103.529 28.0957H108.896V29.4316H107.074V34.6641H108.896V36H103.529V34.6641H105.352V29.4316H103.529V28.0957ZM114.275 29.4316V36H112.547V29.4316H110.168V28.0957H116.654V29.4316H114.275ZM123.791 32.0215C123.791 33.3691 123.518 34.3887 122.971 35.0801C122.424 35.7715 121.639 36.1172 120.615 36.1172C119.592 36.1172 118.806 35.7715 118.257 35.0801C117.708 34.3887 117.434 33.3691 117.434 32.0215C117.434 30.6738 117.708 29.6621 118.257 28.9863C118.806 28.3105 119.592 27.9727 120.615 27.9727C121.639 27.9727 122.424 28.3105 122.971 28.9863C123.518 29.6621 123.791 30.6738 123.791 32.0215ZM122.039 32.0215C122.039 31.1113 121.92 30.4355 121.682 29.9941C121.443 29.5527 121.088 29.332 120.615 29.332C120.143 29.332 119.786 29.5557 119.546 30.0029C119.306 30.4502 119.186 31.123 119.186 32.0215C119.186 32.9199 119.306 33.6006 119.546 34.0635C119.786 34.5264 120.143 34.7578 120.615 34.7578C121.088 34.7578 121.443 34.5264 121.682 34.0635C121.92 33.6006 122.039 32.9199 122.039 32.0215ZM129.457 36L127.758 32.9824H126.744V36H125.016V28.0957H127.91C128.941 28.0957 129.713 28.2969 130.225 28.6992C130.736 29.1016 130.992 29.6816 130.992 30.4395C130.992 30.7285 130.951 30.9902 130.869 31.2246C130.787 31.459 130.674 31.665 130.529 31.8428C130.385 32.0205 130.213 32.1729 130.014 32.2998C129.814 32.4268 129.596 32.5254 129.357 32.5957L131.402 36H129.457ZM129.252 30.5098C129.252 30.3105 129.218 30.1426 129.149 30.0059C129.081 29.8691 128.982 29.7588 128.854 29.6748C128.725 29.5908 128.565 29.5303 128.376 29.4932C128.187 29.4561 127.971 29.4375 127.729 29.4375H126.744V31.6406H127.775C128.291 31.6406 128.666 31.5439 128.9 31.3506C129.135 31.1572 129.252 30.877 129.252 30.5098Z" fill="#9CA3AF"/>
<rect x="334.98" y="29" width="8" height="8" rx="4" fill="#EF4444"/>
<path d="M348.836 32.1748C348.836 32.9072 348.95 33.472 349.178 33.8691C349.406 34.2663 349.746 34.4648 350.198 34.4648C350.345 34.4648 350.478 34.4355 350.599 34.377C350.719 34.3184 350.827 34.2362 350.923 34.1304C351.019 34.0246 351.104 33.8984 351.177 33.752C351.25 33.6055 351.315 33.446 351.37 33.2734L352.703 33.5273C352.602 33.8496 352.476 34.1385 352.325 34.394C352.173 34.6496 351.994 34.866 351.788 35.0435C351.581 35.2209 351.345 35.3576 351.08 35.4536C350.814 35.5496 350.516 35.5977 350.184 35.5977C349.689 35.5977 349.264 35.5155 348.909 35.3511C348.554 35.1867 348.263 34.9548 348.035 34.6553C347.807 34.3558 347.64 33.9961 347.532 33.5762C347.425 33.1562 347.371 32.6891 347.371 32.1748C347.371 31.6312 347.426 31.151 347.537 30.7344C347.648 30.3177 347.818 29.9661 348.047 29.6797C348.277 29.3932 348.566 29.1768 348.914 29.0303C349.262 28.8838 349.673 28.8105 350.145 28.8105C350.483 28.8105 350.783 28.8577 351.045 28.9521C351.307 29.0465 351.537 29.1776 351.734 29.3452C351.931 29.5129 352.098 29.7131 352.234 29.9458C352.371 30.1785 352.482 30.4333 352.566 30.71L351.238 31.0322C351.196 30.876 351.141 30.7311 351.075 30.5977C351.008 30.4642 350.929 30.3486 350.838 30.251C350.747 30.1533 350.645 30.0776 350.533 30.0239C350.42 29.9702 350.298 29.9434 350.164 29.9434C349.721 29.9434 349.389 30.1313 349.168 30.5073C348.947 30.8833 348.836 31.4391 348.836 32.1748ZM357.352 35.5L355.936 32.9854H355.091V35.5H353.65V28.9131H356.062C356.922 28.9131 357.565 29.0807 357.991 29.416C358.418 29.7513 358.631 30.2347 358.631 30.8662C358.631 31.1071 358.597 31.3252 358.528 31.5205C358.46 31.7158 358.366 31.8875 358.245 32.0356C358.125 32.1838 357.981 32.3107 357.815 32.4165C357.649 32.5223 357.467 32.6045 357.269 32.6631L358.973 35.5H357.352ZM357.181 30.9248C357.181 30.7588 357.152 30.6188 357.095 30.5049C357.038 30.391 356.956 30.299 356.849 30.229C356.741 30.159 356.609 30.1086 356.451 30.0776C356.293 30.0467 356.113 30.0312 355.911 30.0312H355.091V31.8672H355.95C356.38 31.8672 356.692 31.7866 356.888 31.6255C357.083 31.4644 357.181 31.2308 357.181 30.9248ZM359.749 28.9131H364.222V30.0264H362.703V34.3867H364.222V35.5H359.749V34.3867H361.268V30.0264H359.749V28.9131ZM368.704 30.0264V35.5H367.264V30.0264H365.281V28.9131H370.687V30.0264H368.704ZM371.751 28.9131H376.224V30.0264H374.705V34.3867H376.224V35.5H371.751V34.3867H373.27V30.0264H371.751V28.9131ZM378.841 32.1748C378.841 32.9072 378.955 33.472 379.183 33.8691C379.41 34.2663 379.751 34.4648 380.203 34.4648C380.35 34.4648 380.483 34.4355 380.604 34.377C380.724 34.3184 380.832 34.2362 380.928 34.1304C381.024 34.0246 381.109 33.8984 381.182 33.752C381.255 33.6055 381.32 33.446 381.375 33.2734L382.708 33.5273C382.607 33.8496 382.481 34.1385 382.33 34.394C382.178 34.6496 381.999 34.866 381.792 35.0435C381.586 35.2209 381.35 35.3576 381.084 35.4536C380.819 35.5496 380.521 35.5977 380.188 35.5977C379.694 35.5977 379.269 35.5155 378.914 35.3511C378.559 35.1867 378.268 34.9548 378.04 34.6553C377.812 34.3558 377.645 33.9961 377.537 33.5762C377.43 33.1562 377.376 32.6891 377.376 32.1748C377.376 31.6312 377.431 31.151 377.542 30.7344C377.653 30.3177 377.823 29.9661 378.052 29.6797C378.282 29.3932 378.571 29.1768 378.919 29.0303C379.267 28.8838 379.677 28.8105 380.149 28.8105C380.488 28.8105 380.788 28.8577 381.05 28.9521C381.312 29.0465 381.542 29.1776 381.739 29.3452C381.936 29.5129 382.103 29.7131 382.239 29.9458C382.376 30.1785 382.487 30.4333 382.571 30.71L381.243 31.0322C381.201 30.876 381.146 30.7311 381.08 30.5977C381.013 30.4642 380.934 30.3486 380.843 30.251C380.752 30.1533 380.65 30.0776 380.538 30.0239C380.425 29.9702 380.302 29.9434 380.169 29.9434C379.726 29.9434 379.394 30.1313 379.173 30.5073C378.951 30.8833 378.841 31.4391 378.841 32.1748ZM388.987 35.5H387.552L387.103 33.8887H384.876L384.427 35.5H382.986L385.149 28.9131H386.829L388.987 35.5ZM385.989 29.8018C385.983 29.8343 385.971 29.8913 385.953 29.9727C385.935 30.054 385.913 30.1468 385.887 30.251C385.861 30.3551 385.832 30.4683 385.801 30.5903C385.77 30.7124 385.739 30.832 385.706 30.9492L385.179 32.8047H386.8L386.272 30.9492C386.24 30.832 386.208 30.7124 386.177 30.5903C386.146 30.4683 386.118 30.3551 386.092 30.251C386.066 30.1468 386.044 30.054 386.026 29.9727C386.008 29.8913 385.996 29.8343 385.989 29.8018ZM390.018 35.5V28.9131H391.458V34.3867H394.466V35.5H390.018Z" fill="#EF4444"/>
<g clip-path="url(#clip1_23_1617)">
<rect x="45" y="57" width="350" height="8" rx="4" fill="#F3F4F6"/>
<g filter="url(#filter2_d_23_1617)">
<rect x="45" y="57" width="297.5" height="8" rx="4" fill="url(#paint0_linear_23_1617)"/>
</g>
</g>
<g opacity="0.6">
<rect x="45" y="77" width="350" height="8" rx="4" fill="#F3F4F6"/>
<rect x="45" y="77" width="210" height="8" rx="4" fill="#FCA5A5"/>
</g>
<g opacity="0.3">
<rect x="45" y="97" width="350" height="8" rx="4" fill="#F3F4F6"/>
<rect x="45" y="97" width="140" height="8" rx="4" fill="#FECACA"/>
</g>
<mask id="path-13-inside-1_23_1617" fill="white">
<path d="M45 129H395V185H45V129Z"/>
</mask>
<path d="M45 129V130H395V129V128H45V129Z" fill="#F3F4F6" mask="url(#path-13-inside-1_23_1617)"/>
<path d="M50.2979 149.607C50.2979 150.053 50.2507 150.434 50.1562 150.75C50.0618 151.066 49.9178 151.324 49.7241 151.524C49.5304 151.724 49.2863 151.87 48.9917 151.961C48.6971 152.052 48.3512 152.098 47.9541 152.098C47.5765 152.098 47.2461 152.055 46.9629 151.968C46.6797 151.882 46.4445 151.744 46.2573 151.553C46.0701 151.363 45.9294 151.115 45.835 150.811C45.7406 150.507 45.6934 150.135 45.6934 149.695V145.413H46.626V149.568C46.626 149.884 46.6463 150.154 46.687 150.379C46.7277 150.604 46.7977 150.787 46.897 150.931C46.9963 151.074 47.1313 151.178 47.3022 151.243C47.4731 151.308 47.6888 151.341 47.9492 151.341C48.2194 151.341 48.4448 151.308 48.6255 151.243C48.8062 151.178 48.9518 151.073 49.0625 150.928C49.1732 150.783 49.2521 150.594 49.2993 150.359C49.3465 150.125 49.3701 149.84 49.3701 149.505V145.413H50.2979V149.607ZM55.2393 152V148.606C55.2393 148.346 55.2124 148.132 55.1587 147.964C55.105 147.797 55.0301 147.663 54.9341 147.564C54.8381 147.465 54.7249 147.396 54.5947 147.356C54.4645 147.317 54.3213 147.298 54.165 147.298C53.973 147.298 53.7931 147.334 53.6255 147.408C53.4578 147.481 53.3114 147.587 53.186 147.725C53.0607 147.863 52.9622 148.034 52.8906 148.238C52.819 148.441 52.7832 148.675 52.7832 148.938V152H51.9043V147.845C51.9043 147.734 51.9035 147.618 51.9019 147.496C51.9002 147.374 51.8978 147.258 51.8945 147.149C51.8913 147.04 51.888 146.946 51.8848 146.868C51.8815 146.79 51.8783 146.74 51.875 146.717H52.7051C52.7083 146.733 52.7116 146.777 52.7148 146.849C52.7181 146.92 52.7222 147.002 52.7271 147.095C52.7319 147.188 52.736 147.282 52.7393 147.378C52.7425 147.474 52.7441 147.555 52.7441 147.62H52.7588C52.8369 147.467 52.9289 147.329 53.0347 147.205C53.1405 147.081 53.2625 146.976 53.4009 146.89C53.5392 146.804 53.6947 146.737 53.8672 146.69C54.0397 146.643 54.2334 146.619 54.4482 146.619C54.7184 146.619 54.9577 146.655 55.166 146.727C55.3743 146.798 55.5493 146.909 55.6909 147.059C55.8325 147.208 55.9399 147.4 56.0132 147.635C56.0864 147.869 56.123 148.151 56.123 148.479V152H55.2393ZM57.6367 149.354C57.6367 148.823 57.7067 148.382 57.8467 148.03C57.9867 147.679 58.1714 147.399 58.4009 147.19C58.6304 146.982 58.8916 146.835 59.1846 146.749C59.4775 146.662 59.7786 146.619 60.0879 146.619C60.4069 146.619 60.6917 146.66 60.9424 146.741C61.193 146.823 61.4087 146.934 61.5894 147.076C61.77 147.217 61.9173 147.384 62.0312 147.576C62.1452 147.768 62.2233 147.975 62.2656 148.196L61.3281 148.265C61.276 147.968 61.1458 147.735 60.9375 147.564C60.7292 147.393 60.4329 147.308 60.0488 147.308C59.7689 147.308 59.5337 147.352 59.3433 147.442C59.1528 147.531 58.9998 147.662 58.8843 147.833C58.7687 148.003 58.6857 148.215 58.6353 148.467C58.5848 148.72 58.5596 149.008 58.5596 149.334C58.5596 149.66 58.5848 149.952 58.6353 150.21C58.6857 150.469 58.7687 150.688 58.8843 150.867C58.9998 151.046 59.1528 151.183 59.3433 151.277C59.5337 151.372 59.7673 151.419 60.0439 151.419C60.3955 151.419 60.6868 151.333 60.918 151.16C61.1491 150.988 61.2923 150.724 61.3477 150.369L62.2754 150.428C62.2461 150.646 62.1761 150.856 62.0654 151.058C61.9548 151.259 61.8066 151.437 61.6211 151.59C61.4355 151.743 61.2142 151.866 60.957 151.958C60.6999 152.051 60.4085 152.098 60.083 152.098C59.637 152.098 59.2586 152.028 58.9478 151.888C58.6369 151.748 58.3846 151.555 58.1909 151.309C57.9972 151.063 57.8564 150.774 57.7686 150.44C57.6807 150.106 57.6367 149.744 57.6367 149.354ZM64.5752 149.544C64.5752 149.821 64.6061 150.075 64.668 150.308C64.7298 150.541 64.8226 150.741 64.9463 150.909C65.07 151.076 65.2238 151.207 65.4077 151.299C65.5916 151.392 65.804 151.438 66.0449 151.438C66.224 151.438 66.3892 151.418 66.5405 151.377C66.6919 151.337 66.8278 151.281 66.9482 151.209C67.0687 151.137 67.1696 151.052 67.251 150.953C67.3324 150.853 67.3926 150.745 67.4316 150.628L68.2031 150.848C68.151 150.994 68.0729 151.141 67.9688 151.29C67.8646 151.438 67.7262 151.571 67.5537 151.69C67.3812 151.809 67.1712 151.906 66.9238 151.983C66.6764 152.059 66.3835 152.098 66.0449 152.098C65.6706 152.098 65.3353 152.039 65.0391 151.922C64.7428 151.805 64.4922 151.631 64.2871 151.399C64.082 151.168 63.925 150.879 63.8159 150.533C63.7069 150.186 63.6523 149.783 63.6523 149.324C63.6523 148.816 63.7166 148.39 63.8452 148.045C63.9738 147.7 64.1471 147.422 64.3652 147.21C64.5833 146.998 64.8348 146.847 65.1196 146.756C65.4045 146.665 65.7031 146.619 66.0156 146.619C66.4421 146.619 66.8026 146.688 67.0972 146.824C67.3918 146.961 67.6318 147.152 67.8174 147.398C68.0029 147.644 68.1372 147.939 68.2202 148.284C68.3032 148.629 68.3447 149.01 68.3447 149.427V149.544H64.5752ZM66.0254 147.269C65.8757 147.269 65.7186 147.292 65.5542 147.339C65.3898 147.387 65.2376 147.47 65.0977 147.591C64.9577 147.711 64.8397 147.875 64.7437 148.082C64.6476 148.288 64.5947 148.551 64.585 148.87H67.4365C67.4105 148.564 67.3551 148.309 67.2705 148.104C67.1859 147.898 67.0809 147.734 66.9556 147.61C66.8302 147.487 66.6878 147.399 66.5283 147.347C66.3688 147.295 66.2012 147.269 66.0254 147.269ZM74.1064 147.518C73.9535 147.492 73.7931 147.47 73.6255 147.452C73.4578 147.434 73.2731 147.425 73.0713 147.425C72.7979 147.425 72.5521 147.48 72.334 147.591C72.1159 147.701 71.932 147.852 71.7822 148.042C71.6325 148.233 71.5177 148.455 71.438 148.709C71.3582 148.963 71.3184 149.233 71.3184 149.52V152H70.4395V148.577C70.4395 148.395 70.4297 148.209 70.4102 148.021C70.3906 147.832 70.3678 147.653 70.3418 147.486C70.3158 147.318 70.2881 147.168 70.2588 147.034C70.2295 146.901 70.2051 146.795 70.1855 146.717H71.0205C71.0433 146.795 71.0669 146.884 71.0913 146.985C71.1157 147.086 71.1393 147.191 71.1621 147.3C71.1849 147.409 71.2044 147.519 71.2207 147.63C71.237 147.741 71.2484 147.843 71.2549 147.938H71.2793C71.3704 147.736 71.4665 147.553 71.5674 147.391C71.6683 147.228 71.7879 147.09 71.9263 146.976C72.0646 146.862 72.2282 146.774 72.417 146.712C72.6058 146.65 72.8337 146.619 73.1006 146.619C73.2829 146.619 73.4619 146.627 73.6377 146.644C73.8135 146.66 73.9697 146.679 74.1064 146.702V147.518ZM75.9326 147.41V146.717H76.7627L77.0459 145.34H77.6318V146.717H79.7412V147.41H77.6318V150.594C77.6318 150.851 77.701 151.041 77.8394 151.165C77.9777 151.289 78.2048 151.351 78.5205 151.351C78.6507 151.351 78.785 151.345 78.9233 151.333C79.0617 151.322 79.1951 151.308 79.3237 151.292C79.4523 151.276 79.5728 151.258 79.6851 151.238C79.7974 151.219 79.8926 151.201 79.9707 151.185V151.854C79.8991 151.873 79.8063 151.896 79.6924 151.922C79.5785 151.948 79.4507 151.972 79.3091 151.995C79.1675 152.018 79.0137 152.037 78.8477 152.054C78.6816 152.07 78.5107 152.078 78.335 152.078C77.8076 152.078 77.4121 151.967 77.1484 151.744C76.8848 151.521 76.7529 151.168 76.7529 150.687V147.41H75.9326ZM86.3818 151.458C86.4307 151.458 86.4795 151.455 86.5283 151.448C86.5771 151.442 86.6243 151.434 86.6699 151.424V151.971C86.5592 151.997 86.4494 152.016 86.3403 152.029C86.2313 152.042 86.1149 152.049 85.9912 152.049C85.8252 152.049 85.6828 152.027 85.564 151.983C85.4451 151.939 85.3483 151.872 85.2734 151.783C85.1986 151.693 85.1416 151.583 85.1025 151.451C85.0635 151.319 85.0391 151.165 85.0293 150.989H85C84.9089 151.159 84.8079 151.312 84.6973 151.448C84.5866 151.585 84.4596 151.701 84.3164 151.797C84.1732 151.893 84.0088 151.967 83.8232 152.02C83.6377 152.072 83.4245 152.098 83.1836 152.098C82.6693 152.098 82.2819 151.958 82.0215 151.678C81.7611 151.398 81.6309 151.014 81.6309 150.525C81.6309 150.177 81.6951 149.891 81.8237 149.668C81.9523 149.445 82.1208 149.271 82.3291 149.144C82.5374 149.017 82.7743 148.928 83.0396 148.877C83.3049 148.827 83.5742 148.8 83.8477 148.797L85 148.777V148.489C85 148.271 84.978 148.086 84.9341 147.933C84.8901 147.78 84.8234 147.656 84.7339 147.562C84.6444 147.467 84.5312 147.398 84.3945 147.354C84.2578 147.31 84.0983 147.288 83.916 147.288C83.7533 147.288 83.606 147.3 83.4741 147.325C83.3423 147.349 83.2292 147.393 83.1348 147.457C83.0404 147.52 82.9631 147.606 82.9028 147.715C82.8426 147.824 82.8027 147.962 82.7832 148.128L81.8652 148.045C81.8978 147.837 81.9588 147.645 82.0483 147.471C82.1379 147.297 82.264 147.146 82.4268 147.02C82.5895 146.893 82.7938 146.794 83.0396 146.724C83.2853 146.654 83.5824 146.619 83.9307 146.619C84.5817 146.619 85.0708 146.771 85.3979 147.076C85.7251 147.38 85.8887 147.82 85.8887 148.396V150.672C85.8887 150.932 85.9229 151.128 85.9912 151.26C86.0596 151.392 86.1898 151.458 86.3818 151.458ZM83.4082 151.429C83.6784 151.429 83.9128 151.377 84.1113 151.275C84.3099 151.172 84.4751 151.043 84.6069 150.887C84.7388 150.73 84.8372 150.558 84.9023 150.369C84.9674 150.18 85 150 85 149.827V149.393L84.0723 149.412C83.8932 149.415 83.7134 149.429 83.5327 149.454C83.3521 149.478 83.1893 149.529 83.0444 149.607C82.8996 149.686 82.7816 149.799 82.6904 149.947C82.5993 150.095 82.5537 150.293 82.5537 150.54C82.5537 150.807 82.6261 151.022 82.771 151.185C82.9159 151.347 83.1283 151.429 83.4082 151.429ZM90.6445 151.307H92.5V152H87.7051V151.307H89.7656V147.41H88.208V146.717H90.6445V151.307ZM89.668 145.691V144.754H90.6445V145.691H89.668ZM97.2461 152V148.606C97.2461 148.346 97.2192 148.132 97.1655 147.964C97.1118 147.797 97.0369 147.663 96.9409 147.564C96.8449 147.465 96.7318 147.396 96.6016 147.356C96.4714 147.317 96.3281 147.298 96.1719 147.298C95.9798 147.298 95.8 147.334 95.6323 147.408C95.4647 147.481 95.3182 147.587 95.1929 147.725C95.0675 147.863 94.9691 148.034 94.8975 148.238C94.8258 148.441 94.79 148.675 94.79 148.938V152H93.9111V147.845C93.9111 147.734 93.9103 147.618 93.9087 147.496C93.9071 147.374 93.9046 147.258 93.9014 147.149C93.8981 147.04 93.8949 146.946 93.8916 146.868C93.8883 146.79 93.8851 146.74 93.8818 146.717H94.7119C94.7152 146.733 94.7184 146.777 94.7217 146.849C94.7249 146.92 94.729 147.002 94.7339 147.095C94.7388 147.188 94.7428 147.282 94.7461 147.378C94.7493 147.474 94.751 147.555 94.751 147.62H94.7656C94.8438 147.467 94.9357 147.329 95.0415 147.205C95.1473 147.081 95.2694 146.976 95.4077 146.89C95.5461 146.804 95.7015 146.737 95.874 146.69C96.0465 146.643 96.2402 146.619 96.4551 146.619C96.7253 146.619 96.9645 146.655 97.1729 146.727C97.3812 146.798 97.5562 146.909 97.6978 147.059C97.8394 147.208 97.9468 147.4 98.02 147.635C98.0933 147.869 98.1299 148.151 98.1299 148.479V152H97.2461ZM99.9365 147.41V146.717H100.767L101.05 145.34H101.636V146.717H103.745V147.41H101.636V150.594C101.636 150.851 101.705 151.041 101.843 151.165C101.982 151.289 102.209 151.351 102.524 151.351C102.655 151.351 102.789 151.345 102.927 151.333C103.066 151.322 103.199 151.308 103.328 151.292C103.456 151.276 103.577 151.258 103.689 151.238C103.801 151.219 103.896 151.201 103.975 151.185V151.854C103.903 151.873 103.81 151.896 103.696 151.922C103.582 151.948 103.455 151.972 103.313 151.995C103.171 152.018 103.018 152.037 102.852 152.054C102.686 152.07 102.515 152.078 102.339 152.078C101.812 152.078 101.416 151.967 101.152 151.744C100.889 151.521 100.757 151.168 100.757 150.687V147.41H99.9365ZM108.452 152C108.332 152.319 108.206 152.606 108.076 152.862C107.946 153.117 107.801 153.335 107.642 153.516C107.482 153.697 107.305 153.835 107.109 153.931C106.914 154.027 106.689 154.075 106.436 154.075C106.325 154.075 106.222 154.072 106.128 154.065C106.034 154.059 105.934 154.044 105.83 154.021V153.362C105.892 153.372 105.962 153.379 106.04 153.384C106.118 153.389 106.185 153.392 106.24 153.392C106.497 153.392 106.739 153.296 106.965 153.104C107.192 152.911 107.383 152.605 107.539 152.186L107.627 151.946L105.332 146.717H106.27L107.559 149.852C107.594 149.939 107.638 150.048 107.69 150.176C107.743 150.305 107.793 150.432 107.842 150.557C107.891 150.682 107.934 150.796 107.971 150.896C108.009 150.997 108.031 151.062 108.037 151.092C108.047 151.056 108.07 150.988 108.108 150.889C108.145 150.79 108.188 150.679 108.237 150.557C108.286 150.435 108.336 150.31 108.386 150.181C108.437 150.053 108.481 149.941 108.521 149.847L109.751 146.717H110.679L108.452 152Z" fill="#9CA3AF"/>
<path d="M54.8438 172.643C54.8438 173.141 54.7559 173.605 54.5801 174.036C54.4043 174.466 54.1348 174.84 53.7715 175.156C53.4082 175.473 52.9482 175.722 52.3916 175.903C51.835 176.085 51.1729 176.176 50.4053 176.176C49.6436 176.176 48.9829 176.085 48.4233 175.903C47.8638 175.722 47.4009 175.473 47.0347 175.156C46.6685 174.84 46.3975 174.468 46.2217 174.04C46.0459 173.612 45.958 173.152 45.958 172.66C45.958 172.244 46.0283 171.869 46.1689 171.535C46.3096 171.201 46.4971 170.914 46.7314 170.674C46.9658 170.434 47.2354 170.239 47.54 170.089C47.8447 169.94 48.1582 169.839 48.4805 169.786V169.751C48.1348 169.675 47.8242 169.552 47.5488 169.382C47.2734 169.212 47.0391 169.01 46.8457 168.775C46.6523 168.541 46.5044 168.28 46.4019 167.993C46.2993 167.706 46.248 167.41 46.248 167.105C46.248 166.643 46.3374 166.219 46.5161 165.835C46.6948 165.452 46.957 165.121 47.3027 164.842C47.6484 164.564 48.0776 164.347 48.5903 164.192C49.103 164.037 49.6963 163.959 50.3701 163.959C51.0908 163.959 51.7134 164.038 52.2378 164.196C52.7622 164.354 53.1943 164.574 53.5342 164.855C53.874 165.137 54.126 165.471 54.29 165.857C54.4541 166.244 54.5361 166.666 54.5361 167.123C54.5361 167.416 54.4849 167.703 54.3823 167.984C54.2798 168.266 54.1318 168.525 53.9385 168.762C53.7451 169 53.5093 169.203 53.231 169.373C52.9526 169.543 52.6377 169.663 52.2861 169.733V169.769C52.6494 169.827 52.9878 169.933 53.3013 170.085C53.6147 170.237 53.8857 170.435 54.1143 170.678C54.3428 170.921 54.5215 171.207 54.6504 171.535C54.7793 171.863 54.8438 172.232 54.8438 172.643ZM51.9961 167.255C51.9961 167.038 51.9697 166.834 51.917 166.644C51.8643 166.454 51.7764 166.288 51.6533 166.147C51.5303 166.007 51.3647 165.896 51.1567 165.813C50.9487 165.731 50.6865 165.69 50.3701 165.69C50.0654 165.69 49.8105 165.731 49.6055 165.813C49.4004 165.896 49.2363 166.007 49.1133 166.147C48.9902 166.288 48.9023 166.454 48.8496 166.644C48.7969 166.834 48.7705 167.038 48.7705 167.255C48.7705 167.437 48.7925 167.624 48.8364 167.817C48.8804 168.011 48.9609 168.188 49.0781 168.349C49.1953 168.51 49.3594 168.642 49.5703 168.745C49.7812 168.847 50.0537 168.898 50.3877 168.898C50.7393 168.898 51.022 168.846 51.2358 168.74C51.4497 168.635 51.6123 168.501 51.7236 168.34C51.835 168.179 51.9082 168.002 51.9434 167.809C51.9785 167.615 51.9961 167.431 51.9961 167.255ZM52.2861 172.44C52.2861 172.218 52.2583 172 52.2026 171.786C52.147 171.572 52.0474 171.378 51.9038 171.206C51.7603 171.033 51.5625 170.894 51.3105 170.788C51.0586 170.683 50.7393 170.63 50.3525 170.63C50.001 170.63 49.7065 170.683 49.4692 170.788C49.2319 170.894 49.0415 171.034 48.8979 171.21C48.7544 171.386 48.6519 171.583 48.5903 171.803C48.5288 172.023 48.498 172.247 48.498 172.476C48.498 172.757 48.5288 173.016 48.5903 173.253C48.6519 173.491 48.7573 173.697 48.9067 173.873C49.0562 174.049 49.2539 174.187 49.5 174.286C49.7461 174.386 50.0537 174.436 50.4229 174.436C50.792 174.436 51.0967 174.384 51.3369 174.282C51.5771 174.179 51.7676 174.039 51.9082 173.86C52.0488 173.681 52.147 173.47 52.2026 173.227C52.2583 172.984 52.2861 172.722 52.2861 172.44ZM65.6719 172.01C65.6719 172.596 65.5737 173.144 65.3774 173.653C65.1812 174.163 64.8896 174.604 64.5029 174.976C64.1162 175.348 63.6372 175.641 63.0659 175.855C62.4946 176.069 61.834 176.176 61.084 176.176C60.3926 176.176 59.7891 176.092 59.2734 175.925C58.7578 175.758 58.3228 175.527 57.9683 175.231C57.6138 174.935 57.3354 174.588 57.1333 174.189C56.9312 173.791 56.792 173.363 56.7158 172.906L59.1855 172.704C59.2324 172.897 59.2983 173.085 59.3833 173.267C59.4683 173.448 59.5869 173.609 59.7393 173.75C59.8916 173.891 60.0791 174.003 60.3018 174.088C60.5244 174.173 60.7939 174.216 61.1104 174.216C61.4209 174.216 61.7007 174.169 61.9497 174.075C62.1987 173.981 62.4111 173.844 62.5869 173.662C62.7627 173.48 62.8975 173.255 62.9912 172.985C63.085 172.716 63.1318 172.408 63.1318 172.062C63.1318 171.758 63.0864 171.481 62.9956 171.232C62.9048 170.983 62.7759 170.771 62.6089 170.595C62.4419 170.419 62.2368 170.284 61.9937 170.19C61.7505 170.097 61.4736 170.05 61.1631 170.05C60.7529 170.05 60.416 170.127 60.1523 170.283C59.8887 170.438 59.666 170.627 59.4844 170.85H57.0762L57.5068 164.144H64.9512V165.98H59.748L59.5459 168.846C59.792 168.629 60.1025 168.443 60.4775 168.288C60.8525 168.132 61.2891 168.055 61.7871 168.055C62.3965 168.055 62.9414 168.153 63.4219 168.349C63.9023 168.545 64.3096 168.819 64.6436 169.171C64.9775 169.522 65.2324 169.94 65.4082 170.423C65.584 170.907 65.6719 171.436 65.6719 172.01ZM68.6777 176H67.1396L75.3311 164.108H76.8867L68.6777 176ZM69.1611 164.038C69.501 164.038 69.8218 164.083 70.1235 164.174C70.4253 164.265 70.689 164.423 70.9146 164.649C71.1401 164.875 71.3188 165.176 71.4507 165.554C71.5825 165.932 71.6484 166.411 71.6484 166.991C71.6484 167.554 71.5825 168.025 71.4507 168.406C71.3188 168.787 71.1387 169.095 70.9102 169.329C70.6816 169.563 70.415 169.732 70.1104 169.834C69.8057 169.937 69.4775 169.988 69.126 169.988C68.7744 169.988 68.4448 169.937 68.1372 169.834C67.8296 169.732 67.5615 169.565 67.333 169.333C67.1045 169.102 66.9258 168.794 66.7969 168.411C66.668 168.027 66.6035 167.554 66.6035 166.991C66.6035 166.411 66.6694 165.932 66.8013 165.554C66.9331 165.176 67.1133 164.875 67.3418 164.649C67.5703 164.423 67.8398 164.265 68.1504 164.174C68.4609 164.083 68.7979 164.038 69.1611 164.038ZM70.1016 166.991C70.1016 166.663 70.0811 166.386 70.04 166.161C69.999 165.935 69.9375 165.753 69.8555 165.616C69.7734 165.478 69.6738 165.378 69.5566 165.317C69.4395 165.255 69.3018 165.225 69.1436 165.225C68.8154 165.225 68.5679 165.358 68.4009 165.625C68.2339 165.891 68.1504 166.347 68.1504 166.991C68.1504 167.624 68.2354 168.077 68.4053 168.349C68.5752 168.622 68.8213 168.758 69.1436 168.758C69.4365 168.758 69.6694 168.622 69.8423 168.349C70.0151 168.077 70.1016 167.624 70.1016 166.991ZM74.9268 170.155C75.2666 170.155 75.5874 170.201 75.8892 170.292C76.1909 170.382 76.4546 170.541 76.6802 170.766C76.9058 170.992 77.0845 171.293 77.2163 171.671C77.3481 172.049 77.4141 172.528 77.4141 173.108C77.4141 173.671 77.3481 174.143 77.2163 174.523C77.0845 174.904 76.9043 175.212 76.6758 175.446C76.4473 175.681 76.1807 175.849 75.876 175.952C75.5713 176.054 75.2432 176.105 74.8916 176.105C74.54 176.105 74.2104 176.054 73.9028 175.952C73.5952 175.849 73.3271 175.682 73.0986 175.451C72.8701 175.219 72.6914 174.912 72.5625 174.528C72.4336 174.144 72.3691 173.671 72.3691 173.108C72.3691 172.528 72.4351 172.049 72.5669 171.671C72.6987 171.293 72.8789 170.992 73.1074 170.766C73.3359 170.541 73.6055 170.382 73.916 170.292C74.2266 170.201 74.5635 170.155 74.9268 170.155ZM75.8672 173.108C75.8672 172.78 75.8467 172.503 75.8057 172.278C75.7646 172.052 75.7031 171.871 75.6211 171.733C75.5391 171.595 75.4395 171.496 75.3223 171.434C75.2051 171.373 75.0674 171.342 74.9092 171.342C74.5811 171.342 74.3335 171.475 74.1665 171.742C73.9995 172.008 73.916 172.464 73.916 173.108C73.916 173.741 74.001 174.194 74.1709 174.466C74.3408 174.739 74.5869 174.875 74.9092 174.875C75.2021 174.875 75.4351 174.739 75.6079 174.466C75.7808 174.194 75.8672 173.741 75.8672 173.108Z" fill="#101622"/>
<rect x="362.5" y="148.375" width="32.5" height="30.25" rx="15.125" fill="#FEF2F2"/>
<path d="M370.5 170.625L378.75 156.375L387 170.625H370.5ZM373.088 169.125H384.413L378.75 159.375L373.088 169.125ZM378.75 168.375C378.962 168.375 379.141 168.303 379.284 168.159C379.428 168.016 379.5 167.837 379.5 167.625C379.5 167.413 379.428 167.234 379.284 167.091C379.141 166.947 378.962 166.875 378.75 166.875C378.538 166.875 378.359 166.947 378.216 167.091C378.072 167.234 378 167.413 378 167.625C378 167.837 378.072 168.016 378.216 168.159C378.359 168.303 378.538 168.375 378.75 168.375ZM378 166.125H379.5V162.375H378V166.125Z" fill="#EF4444"/>
</g>
<rect x="20.5" y="0.5" width="399" height="209" rx="31.5" stroke="#F3F4F6"/>
</g>
<defs>
<filter id="filter0_dd_23_1617" x="0" y="0" width="440" height="250" filterUnits="userSpaceOnUse" color-interpolation-filters="sRGB">
<feFlood flood-opacity="0" result="BackgroundImageFix"/>
<feColorMatrix in="SourceAlpha" type="matrix" values="0 0 0 0 0 0 0 0 0 0 0 0 0 0 0 0 0 0 127 0" result="hardAlpha"/>
<feMorphology radius="6" operator="erode" in="SourceAlpha" result="effect1_dropShadow_23_1617"/>
<feOffset dy="8"/>
<feGaussianBlur stdDeviation="5"/>
<feComposite in2="hardAlpha" operator="out"/>
<feColorMatrix type="matrix" values="0 0 0 0 0.937255 0 0 0 0 0.266667 0 0 0 0 0.266667 0 0 0 0.05 0"/>
<feBlend mode="normal" in2="BackgroundImageFix" result="effect1_dropShadow_23_1617"/>
<feColorMatrix in="SourceAlpha" type="matrix" values="0 0 0 0 0 0 0 0 0 0 0 0 0 0 0 0 0 0 127 0" result="hardAlpha"/>
<feMorphology radius="5" operator="erode" in="SourceAlpha" result="effect2_dropShadow_23_1617"/>
<feOffset dy="20"/>
<feGaussianBlur stdDeviation="12.5"/>
<feComposite in2="hardAlpha" operator="out"/>
<feColorMatrix type="matrix" values="0 0 0 0 0.937255 0 0 0 0 0.266667 0 0 0 0 0.266667 0 0 0 0.05 0"/>
<feBlend mode="normal" in2="effect1_dropShadow_23_1617" result="effect2_dropShadow_23_1617"/>
<feBlend mode="normal" in="SourceGraphic" in2="effect2_dropShadow_23_1617" result="shape"/>
</filter>
<filter id="filter1_f_23_1617" x="267" y="-103" width="256" height="256" filterUnits="userSpaceOnUse" color-interpolation-filters="sRGB">
<feFlood flood-opacity="0" result="BackgroundImageFix"/>
<feBlend mode="normal" in="SourceGraphic" in2="BackgroundImageFix" result="shape"/>
<feGaussianBlur stdDeviation="32" result="effect1_foregroundBlur_23_1617"/>
</filter>
<filter id="filter2_d_23_1617" x="35" y="47" width="317.5" height="28" filterUnits="userSpaceOnUse" color-interpolation-filters="sRGB">
<feFlood flood-opacity="0" result="BackgroundImageFix"/>
<feColorMatrix in="SourceAlpha" type="matrix" values="0 0 0 0 0 0 0 0 0 0 0 0 0 0 0 0 0 0 127 0" result="hardAlpha"/>
<feOffset/>
<feGaussianBlur stdDeviation="5"/>
<feComposite in2="hardAlpha" operator="out"/>
<feColorMatrix type="matrix" values="0 0 0 0 0.862745 0 0 0 0 0.14902 0 0 0 0 0.14902 0 0 0 0.4 0"/>
<feBlend mode="normal" in2="BackgroundImageFix" result="effect1_dropShadow_23_1617"/>
<feBlend mode="normal" in="SourceGraphic" in2="effect1_dropShadow_23_1617" result="shape"/>
</filter>
<linearGradient id="paint0_linear_23_1617" x1="45" y1="61" x2="342.5" y2="61" gradientUnits="userSpaceOnUse">
<stop stop-color="#F87171"/>
<stop offset="1" stop-color="#DC2626"/>
</linearGradient>
<clipPath id="clip0_23_1617">
<rect x="20" width="400" height="210" rx="32" fill="white"/>
</clipPath>
<clipPath id="clip1_23_1617">
<rect x="45" y="57" width="350" height="8" rx="4" fill="white"/>
</clipPath>
</defs>
</svg>
