<svg width="440" height="336" viewBox="0 0 440 336" fill="none" xmlns="http://www.w3.org/2000/svg">
<rect x="20" width="400" height="296" rx="32" fill="url(#paint0_linear_23_1730)"/>
<g filter="url(#filter0_dd_23_1730)">
<rect x="20" width="400" height="296" rx="32" fill="white" fill-opacity="0.01" shape-rendering="crispEdges"/>
</g>
<g clip-path="url(#clip0_23_1730)">
<rect x="24" y="4" width="392" height="288" rx="24" fill="white"/>
<rect x="48.5" y="28.5" width="47" height="47" rx="23.5" fill="#F0FDF4"/>
<rect x="48.5" y="28.5" width="47" height="47" rx="23.5" stroke="#DCFCE7"/>
<path d="M70.0622 53L70.7913 50.625L68.8747 49.0833H71.2497L71.9997 46.75L72.7497 49.0833H75.1247L73.1872 50.625L73.9163 53L71.9997 51.5208L70.0622 53ZM66.9997 60.75V54.3125C66.4719 53.7292 66.0622 53.0625 65.7705 52.3125C65.4788 51.5625 65.333 50.7639 65.333 49.9167C65.333 48.0556 65.9788 46.4792 67.2705 45.1875C68.5622 43.8958 70.1386 43.25 71.9997 43.25C73.8608 43.25 75.4372 43.8958 76.7288 45.1875C78.0205 46.4792 78.6663 48.0556 78.6663 49.9167C78.6663 50.7639 78.5205 51.5625 78.2288 52.3125C77.9372 53.0625 77.5275 53.7292 76.9997 54.3125V60.75L71.9997 59.0833L66.9997 60.75ZM71.9997 54.9167C73.3886 54.9167 74.5691 54.4306 75.5413 53.4583C76.5136 52.4861 76.9997 51.3056 76.9997 49.9167C76.9997 48.5278 76.5136 47.3472 75.5413 46.375C74.5691 45.4028 73.3886 44.9167 71.9997 44.9167C70.6108 44.9167 69.4302 45.4028 68.458 46.375C67.4858 47.3472 66.9997 48.5278 66.9997 49.9167C66.9997 51.3056 67.4858 52.4861 68.458 53.4583C69.4302 54.4306 70.6108 54.9167 71.9997 54.9167ZM68.6663 58.2708L71.9997 57.4167L75.333 58.2708V55.6875C74.8469 55.9653 74.3226 56.184 73.7601 56.3438C73.1976 56.5035 72.6108 56.5833 71.9997 56.5833C71.3886 56.5833 70.8018 56.5035 70.2393 56.3438C69.6768 56.184 69.1525 55.9653 68.6663 55.6875V58.2708Z" fill="#16A34A"/>
<path d="M113.188 50.625V38.025H121.108V40.185H115.564V43.227H120.676V45.387H115.564V50.625H113.188ZM122.875 50.625V41.697H125.143V50.625H122.875ZM124.009 40.653C123.601 40.653 123.253 40.521 122.965 40.257C122.689 39.993 122.551 39.645 122.551 39.213C122.551 38.781 122.689 38.433 122.965 38.169C123.253 37.905 123.601 37.773 124.009 37.773C124.429 37.773 124.777 37.905 125.053 38.169C125.329 38.433 125.467 38.781 125.467 39.213C125.467 39.645 125.329 39.993 125.053 40.257C124.777 40.521 124.429 40.653 124.009 40.653ZM127.656 50.625V41.697H129.888V42.867H130.212C130.356 42.555 130.626 42.261 131.022 41.985C131.418 41.697 132.018 41.553 132.822 41.553C133.518 41.553 134.124 41.715 134.64 42.039C135.168 42.351 135.576 42.789 135.864 43.353C136.152 43.905 136.296 44.553 136.296 45.297V50.625H134.028V45.477C134.028 44.805 133.86 44.301 133.524 43.965C133.2 43.629 132.732 43.461 132.12 43.461C131.424 43.461 130.884 43.695 130.5 44.163C130.116 44.619 129.924 45.261 129.924 46.089V50.625H127.656ZM141.52 50.877C140.884 50.877 140.314 50.769 139.81 50.553C139.306 50.325 138.904 50.001 138.604 49.581C138.316 49.149 138.172 48.627 138.172 48.015C138.172 47.403 138.316 46.893 138.604 46.485C138.904 46.065 139.312 45.753 139.828 45.549C140.356 45.333 140.956 45.225 141.628 45.225H144.076V44.721C144.076 44.301 143.944 43.959 143.68 43.695C143.416 43.419 142.996 43.281 142.42 43.281C141.856 43.281 141.436 43.413 141.16 43.677C140.884 43.929 140.704 44.259 140.62 44.667L138.532 43.965C138.676 43.509 138.904 43.095 139.216 42.723C139.54 42.339 139.966 42.033 140.494 41.805C141.034 41.565 141.688 41.445 142.456 41.445C143.632 41.445 144.562 41.739 145.246 42.327C145.93 42.915 146.272 43.767 146.272 44.883V48.213C146.272 48.573 146.44 48.753 146.776 48.753H147.496V50.625H145.984C145.54 50.625 145.174 50.517 144.886 50.301C144.598 50.085 144.454 49.797 144.454 49.437V49.419H144.112C144.064 49.563 143.956 49.755 143.788 49.995C143.62 50.223 143.356 50.427 142.996 50.607C142.636 50.787 142.144 50.877 141.52 50.877ZM141.916 49.041C142.552 49.041 143.068 48.867 143.464 48.519C143.872 48.159 144.076 47.685 144.076 47.097V46.917H141.79C141.37 46.917 141.04 47.007 140.8 47.187C140.56 47.367 140.44 47.619 140.44 47.943C140.44 48.267 140.566 48.531 140.818 48.735C141.07 48.939 141.436 49.041 141.916 49.041ZM149.155 50.625V38.025H151.423V50.625H149.155ZM163.222 50.877C161.662 50.877 160.426 50.445 159.514 49.581C158.602 48.705 158.146 47.457 158.146 45.837V42.813C158.146 41.193 158.602 39.951 159.514 39.087C160.426 38.211 161.662 37.773 163.222 37.773C164.77 37.773 165.964 38.199 166.804 39.051C167.656 39.891 168.082 41.049 168.082 42.525V42.633H165.742V42.453C165.742 41.709 165.532 41.097 165.112 40.617C164.704 40.137 164.074 39.897 163.222 39.897C162.382 39.897 161.722 40.155 161.242 40.671C160.762 41.187 160.522 41.889 160.522 42.777V45.873C160.522 46.749 160.762 47.451 161.242 47.979C161.722 48.495 162.382 48.753 163.222 48.753C164.074 48.753 164.704 48.513 165.112 48.033C165.532 47.541 165.742 46.929 165.742 46.197V45.873H168.082V46.125C168.082 47.601 167.656 48.765 166.804 49.617C165.964 50.457 164.77 50.877 163.222 50.877ZM174.158 50.877C173.27 50.877 172.484 50.691 171.8 50.319C171.128 49.935 170.6 49.401 170.216 48.717C169.844 48.021 169.658 47.205 169.658 46.269V46.053C169.658 45.117 169.844 44.307 170.216 43.623C170.588 42.927 171.11 42.393 171.782 42.021C172.454 41.637 173.234 41.445 174.122 41.445C174.998 41.445 175.76 41.643 176.408 42.039C177.056 42.423 177.56 42.963 177.92 43.659C178.28 44.343 178.46 45.141 178.46 46.053V46.827H171.962C171.986 47.439 172.214 47.937 172.646 48.321C173.078 48.705 173.606 48.897 174.23 48.897C174.866 48.897 175.334 48.759 175.634 48.483C175.934 48.207 176.162 47.901 176.318 47.565L178.172 48.537C178.004 48.849 177.758 49.191 177.434 49.563C177.122 49.923 176.702 50.235 176.174 50.499C175.646 50.751 174.974 50.877 174.158 50.877ZM171.98 45.135H176.156C176.108 44.619 175.898 44.205 175.526 43.893C175.166 43.581 174.692 43.425 174.104 43.425C173.492 43.425 173.006 43.581 172.646 43.893C172.286 44.205 172.064 44.619 171.98 45.135ZM180.479 50.625V41.697H182.711V42.705H183.035C183.167 42.345 183.383 42.081 183.683 41.913C183.995 41.745 184.355 41.661 184.763 41.661H185.843V43.677H184.727C184.151 43.677 183.677 43.833 183.305 44.145C182.933 44.445 182.747 44.913 182.747 45.549V50.625H180.479ZM191.035 50.625C190.447 50.625 189.967 50.445 189.595 50.085C189.235 49.713 189.055 49.221 189.055 48.609V43.569H186.823V41.697H189.055V38.925H191.323V41.697H193.771V43.569H191.323V48.213C191.323 48.573 191.491 48.753 191.827 48.753H193.555V50.625H191.035ZM195.824 50.625V41.697H198.092V50.625H195.824ZM196.958 40.653C196.55 40.653 196.202 40.521 195.914 40.257C195.638 39.993 195.5 39.645 195.5 39.213C195.5 38.781 195.638 38.433 195.914 38.169C196.202 37.905 196.55 37.773 196.958 37.773C197.378 37.773 197.726 37.905 198.002 38.169C198.278 38.433 198.416 38.781 198.416 39.213C198.416 39.645 198.278 39.993 198.002 40.257C197.726 40.521 197.378 40.653 196.958 40.653ZM202.082 50.625V43.569H199.814V41.697H202.082V40.041C202.082 39.429 202.262 38.943 202.622 38.583C202.994 38.211 203.474 38.025 204.062 38.025H206.222V39.897H204.854C204.518 39.897 204.35 40.077 204.35 40.437V41.697H207.95V43.569H204.35V50.625H202.082ZM207.95 50.625V41.697H210.218V50.625H207.95ZM209.084 40.725C208.676 40.725 208.328 40.593 208.04 40.329C207.764 40.065 207.626 39.717 207.626 39.285C207.626 38.853 207.764 38.505 208.04 38.241C208.328 37.977 208.676 37.845 209.084 37.845C209.504 37.845 209.852 37.977 210.128 38.241C210.404 38.505 210.542 38.853 210.542 39.285C210.542 39.717 210.404 40.065 210.128 40.329C209.852 40.593 209.504 40.725 209.084 40.725ZM216.929 50.877C216.065 50.877 215.279 50.697 214.571 50.337C213.875 49.977 213.323 49.455 212.915 48.771C212.507 48.087 212.303 47.259 212.303 46.287V46.035C212.303 45.063 212.507 44.235 212.915 43.551C213.323 42.867 213.875 42.345 214.571 41.985C215.279 41.625 216.065 41.445 216.929 41.445C217.781 41.445 218.513 41.595 219.125 41.895C219.737 42.195 220.229 42.609 220.601 43.137C220.985 43.653 221.237 44.241 221.357 44.901L219.161 45.369C219.113 45.009 219.005 44.685 218.837 44.397C218.669 44.109 218.429 43.881 218.117 43.713C217.817 43.545 217.439 43.461 216.983 43.461C216.527 43.461 216.113 43.563 215.741 43.767C215.381 43.959 215.093 44.253 214.877 44.649C214.673 45.033 214.571 45.507 214.571 46.071V46.251C214.571 46.815 214.673 47.295 214.877 47.691C215.093 48.075 215.381 48.369 215.741 48.573C216.113 48.765 216.527 48.861 216.983 48.861C217.667 48.861 218.183 48.687 218.531 48.339C218.891 47.979 219.119 47.511 219.215 46.935L221.411 47.457C221.255 48.093 220.985 48.675 220.601 49.203C220.229 49.719 219.737 50.127 219.125 50.427C218.513 50.727 217.781 50.877 216.929 50.877ZM226.053 50.877C225.417 50.877 224.847 50.769 224.343 50.553C223.839 50.325 223.437 50.001 223.137 49.581C222.849 49.149 222.705 48.627 222.705 48.015C222.705 47.403 222.849 46.893 223.137 46.485C223.437 46.065 223.845 45.753 224.361 45.549C224.889 45.333 225.489 45.225 226.161 45.225H228.609V44.721C228.609 44.301 228.477 43.959 228.213 43.695C227.949 43.419 227.529 43.281 226.953 43.281C226.389 43.281 225.969 43.413 225.693 43.677C225.417 43.929 225.237 44.259 225.153 44.667L223.065 43.965C223.209 43.509 223.437 43.095 223.749 42.723C224.073 42.339 224.499 42.033 225.027 41.805C225.567 41.565 226.221 41.445 226.989 41.445C228.165 41.445 229.095 41.739 229.779 42.327C230.463 42.915 230.805 43.767 230.805 44.883V48.213C230.805 48.573 230.973 48.753 231.309 48.753H232.029V50.625H230.517C230.073 50.625 229.707 50.517 229.419 50.301C229.131 50.085 228.987 49.797 228.987 49.437V49.419H228.645C228.597 49.563 228.489 49.755 228.321 49.995C228.153 50.223 227.889 50.427 227.529 50.607C227.169 50.787 226.677 50.877 226.053 50.877ZM226.449 49.041C227.085 49.041 227.601 48.867 227.997 48.519C228.405 48.159 228.609 47.685 228.609 47.097V46.917H226.323C225.903 46.917 225.573 47.007 225.333 47.187C225.093 47.367 224.973 47.619 224.973 47.943C224.973 48.267 225.099 48.531 225.351 48.735C225.603 48.939 225.969 49.041 226.449 49.041ZM236.457 50.625C235.869 50.625 235.389 50.445 235.017 50.085C234.657 49.713 234.477 49.221 234.477 48.609V43.569H232.245V41.697H234.477V38.925H236.745V41.697H239.193V43.569H236.745V48.213C236.745 48.573 236.913 48.753 237.249 48.753H238.977V50.625H236.457ZM241.246 50.625V41.697H243.514V50.625H241.246ZM242.38 40.653C241.972 40.653 241.624 40.521 241.336 40.257C241.06 39.993 240.922 39.645 240.922 39.213C240.922 38.781 241.06 38.433 241.336 38.169C241.624 37.905 241.972 37.773 242.38 37.773C242.8 37.773 243.148 37.905 243.424 38.169C243.7 38.433 243.838 38.781 243.838 39.213C243.838 39.645 243.7 39.993 243.424 40.257C243.148 40.521 242.8 40.653 242.38 40.653ZM250.276 50.877C249.388 50.877 248.59 50.697 247.882 50.337C247.174 49.977 246.616 49.455 246.208 48.771C245.8 48.087 245.596 47.265 245.596 46.305V46.017C245.596 45.057 245.8 44.235 246.208 43.551C246.616 42.867 247.174 42.345 247.882 41.985C248.59 41.625 249.388 41.445 250.276 41.445C251.164 41.445 251.962 41.625 252.67 41.985C253.378 42.345 253.936 42.867 254.344 43.551C254.752 44.235 254.956 45.057 254.956 46.017V46.305C254.956 47.265 254.752 48.087 254.344 48.771C253.936 49.455 253.378 49.977 252.67 50.337C251.962 50.697 251.164 50.877 250.276 50.877ZM250.276 48.861C250.972 48.861 251.548 48.639 252.004 48.195C252.46 47.739 252.688 47.091 252.688 46.251V46.071C252.688 45.231 252.46 44.589 252.004 44.145C251.56 43.689 250.984 43.461 250.276 43.461C249.58 43.461 249.004 43.689 248.548 44.145C248.092 44.589 247.864 45.231 247.864 46.071V46.251C247.864 47.091 248.092 47.739 248.548 48.195C249.004 48.639 249.58 48.861 250.276 48.861ZM257.049 50.625V41.697H259.281V42.867H259.605C259.749 42.555 260.019 42.261 260.415 41.985C260.811 41.697 261.411 41.553 262.215 41.553C262.911 41.553 263.517 41.715 264.033 42.039C264.561 42.351 264.969 42.789 265.257 43.353C265.545 43.905 265.689 44.553 265.689 45.297V50.625H263.421V45.477C263.421 44.805 263.253 44.301 262.917 43.965C262.593 43.629 262.125 43.461 261.513 43.461C260.817 43.461 260.277 43.695 259.893 44.163C259.509 44.619 259.317 45.261 259.317 46.089V50.625H257.049Z" fill="#101622"/>
<path d="M113.184 58.4707H118.006V59.3848H116.154V65.4609H118.006V66.375H113.184V65.4609H115.035V59.3848H113.184V58.4707ZM125.793 62.3438C125.793 63 125.715 63.5791 125.559 64.0811C125.402 64.583 125.176 65.0039 124.879 65.3438C124.582 65.6836 124.218 65.9404 123.786 66.1143C123.354 66.2881 122.865 66.375 122.318 66.375H120.15V58.4707H121.973C122.59 58.4707 123.136 58.5459 123.61 58.6963C124.085 58.8467 124.484 59.0801 124.809 59.3965C125.133 59.7129 125.378 60.1152 125.544 60.6035C125.71 61.0918 125.793 61.6719 125.793 62.3438ZM124.668 62.3438C124.668 61.8164 124.613 61.3652 124.504 60.9902C124.395 60.6152 124.229 60.3096 124.006 60.0732C123.783 59.8369 123.504 59.6631 123.168 59.5518C122.832 59.4404 122.436 59.3848 121.979 59.3848H121.27V65.4609H122.219C123.047 65.4609 123.662 65.2012 124.064 64.6816C124.467 64.1621 124.668 63.3828 124.668 62.3438ZM129.309 66.375V64.623H130.686V66.375H129.309ZM129.309 61.7871V60.0352H130.686V61.7871H129.309ZM147.361 60.8379C147.361 61.166 147.304 61.4814 147.188 61.7842C147.073 62.0869 146.897 62.3555 146.661 62.5898C146.425 62.8242 146.129 63.0117 145.773 63.1523C145.418 63.293 145 63.3633 144.52 63.3633H142.873V66.375H141.754V58.4707H144.449C144.938 58.4707 145.363 58.5273 145.727 58.6406C146.09 58.7539 146.393 58.9141 146.635 59.1211C146.877 59.3281 147.059 59.5771 147.18 59.8682C147.301 60.1592 147.361 60.4824 147.361 60.8379ZM146.236 60.8555C146.236 60.3672 146.076 59.9971 145.756 59.7451C145.436 59.4932 144.955 59.3672 144.314 59.3672H142.873V62.4785H144.361C144.682 62.4785 144.96 62.4365 145.196 62.3525C145.433 62.2686 145.628 62.1543 145.782 62.0098C145.937 61.8652 146.051 61.6934 146.125 61.4941C146.199 61.2949 146.236 61.082 146.236 60.8555ZM153.883 66.375L151.029 62.6367L150.074 63.627V66.375H148.955V58.4707H150.074V62.4141L153.426 58.4707H154.744L151.791 61.8223L155.195 66.375H153.883ZM161.658 65.5957C161.518 65.6895 161.354 65.7891 161.169 65.8945C160.983 66 160.777 66.0967 160.551 66.1846C160.324 66.2725 160.077 66.3457 159.81 66.4043C159.542 66.4629 159.256 66.4922 158.951 66.4922C158.428 66.4922 157.973 66.3896 157.586 66.1846C157.199 65.9795 156.879 65.6953 156.625 65.332C156.371 64.9688 156.182 64.5361 156.057 64.0342C155.932 63.5322 155.869 62.9824 155.869 62.3848C155.869 61.7324 155.93 61.1553 156.051 60.6533C156.172 60.1514 156.359 59.7295 156.613 59.3877C156.867 59.0459 157.189 58.7871 157.58 58.6113C157.971 58.4355 158.434 58.3477 158.969 58.3477C159.359 58.3477 159.702 58.3984 159.997 58.5C160.292 58.6016 160.548 58.7393 160.765 58.9131C160.981 59.0869 161.163 59.292 161.31 59.5283C161.456 59.7646 161.576 60.0176 161.67 60.2871L160.668 60.6152C160.52 60.1855 160.31 59.8525 160.038 59.6162C159.767 59.3799 159.414 59.2617 158.98 59.2617C158.629 59.2617 158.33 59.3291 158.084 59.4639C157.838 59.5986 157.638 59.7979 157.483 60.0615C157.329 60.3252 157.218 60.6514 157.149 61.04C157.081 61.4287 157.047 61.877 157.047 62.3848C157.047 63.4316 157.212 64.2266 157.542 64.7695C157.872 65.3125 158.373 65.584 159.045 65.584C159.232 65.584 159.407 65.5674 159.569 65.5342C159.731 65.501 159.878 65.4619 160.009 65.417C160.14 65.3721 160.253 65.3252 160.349 65.2764C160.444 65.2275 160.518 65.1855 160.568 65.1504V63.1816H158.852V62.2441H161.658V65.5957ZM164.365 63.6562V62.7188H167.646V63.6562H164.365ZM176.02 64.1602C176.02 64.4883 175.964 64.7939 175.853 65.0771C175.741 65.3604 175.571 65.6074 175.343 65.8184C175.114 66.0293 174.823 66.1943 174.47 66.3135C174.116 66.4326 173.695 66.4922 173.207 66.4922C172.723 66.4922 172.304 66.4326 171.95 66.3135C171.597 66.1943 171.304 66.0303 171.071 65.8213C170.839 65.6123 170.667 65.3662 170.556 65.083C170.444 64.7998 170.389 64.4961 170.389 64.1719C170.389 63.8945 170.435 63.6436 170.526 63.4189C170.618 63.1943 170.741 63 170.896 62.8359C171.05 62.6719 171.226 62.5391 171.423 62.4375C171.62 62.3359 171.824 62.2676 172.035 62.2324V62.209C171.805 62.1543 171.599 62.0664 171.417 61.9453C171.235 61.8242 171.083 61.6816 170.96 61.5176C170.837 61.3535 170.743 61.1738 170.679 60.9785C170.614 60.7832 170.582 60.582 170.582 60.375C170.582 60.1094 170.638 59.8545 170.749 59.6104C170.86 59.3662 171.025 59.1504 171.244 58.9629C171.463 58.7754 171.734 58.626 172.059 58.5146C172.383 58.4033 172.758 58.3477 173.184 58.3477C173.633 58.3477 174.022 58.4043 174.353 58.5176C174.683 58.6309 174.956 58.7812 175.173 58.9688C175.39 59.1562 175.551 59.373 175.656 59.6191C175.762 59.8652 175.814 60.1211 175.814 60.3867C175.814 60.5898 175.782 60.7891 175.718 60.9844C175.653 61.1797 175.56 61.3594 175.437 61.5234C175.313 61.6875 175.161 61.8291 174.979 61.9482C174.798 62.0674 174.588 62.1504 174.35 62.1973V62.2207C174.588 62.2598 174.809 62.3311 175.012 62.4346C175.215 62.5381 175.392 62.6719 175.542 62.8359C175.692 63 175.81 63.1924 175.894 63.4131C175.978 63.6338 176.02 63.8828 176.02 64.1602ZM174.719 60.4453C174.719 60.2617 174.692 60.0898 174.64 59.9297C174.587 59.7695 174.5 59.6309 174.379 59.5137C174.258 59.3965 174.1 59.3037 173.904 59.2354C173.709 59.167 173.469 59.1328 173.184 59.1328C172.91 59.1328 172.677 59.167 172.483 59.2354C172.29 59.3037 172.132 59.3965 172.009 59.5137C171.886 59.6309 171.797 59.7695 171.742 59.9297C171.688 60.0898 171.66 60.2617 171.66 60.4453C171.66 60.5898 171.682 60.7422 171.725 60.9023C171.768 61.0625 171.846 61.21 171.959 61.3447C172.072 61.4795 172.229 61.5908 172.428 61.6787C172.627 61.7666 172.883 61.8105 173.195 61.8105C173.531 61.8105 173.799 61.7656 173.998 61.6758C174.197 61.5859 174.351 61.4736 174.458 61.3389C174.565 61.2041 174.636 61.0566 174.669 60.8965C174.702 60.7363 174.719 60.5859 174.719 60.4453ZM174.924 64.0605C174.924 63.8848 174.896 63.71 174.842 63.5361C174.787 63.3623 174.693 63.2061 174.561 63.0674C174.428 62.9287 174.249 62.8164 174.024 62.7305C173.8 62.6445 173.52 62.6016 173.184 62.6016C172.875 62.6016 172.612 62.6445 172.396 62.7305C172.179 62.8164 172.003 62.9297 171.868 63.0703C171.733 63.2109 171.635 63.3691 171.572 63.5449C171.51 63.7207 171.479 63.9004 171.479 64.084C171.479 64.3145 171.51 64.5283 171.572 64.7256C171.635 64.9229 171.734 65.0938 171.871 65.2383C172.008 65.3828 172.188 65.4961 172.41 65.5781C172.633 65.6602 172.902 65.7012 173.219 65.7012C173.543 65.7012 173.813 65.6611 174.03 65.5811C174.247 65.501 174.422 65.3877 174.555 65.2412C174.688 65.0947 174.782 64.9209 174.839 64.7197C174.896 64.5186 174.924 64.2988 174.924 64.0605ZM183.221 64.1602C183.221 64.4883 183.165 64.7939 183.054 65.0771C182.942 65.3604 182.772 65.6074 182.544 65.8184C182.315 66.0293 182.024 66.1943 181.671 66.3135C181.317 66.4326 180.896 66.4922 180.408 66.4922C179.924 66.4922 179.505 66.4326 179.151 66.3135C178.798 66.1943 178.505 66.0303 178.272 65.8213C178.04 65.6123 177.868 65.3662 177.757 65.083C177.646 64.7998 177.59 64.4961 177.59 64.1719C177.59 63.8945 177.636 63.6436 177.728 63.4189C177.819 63.1943 177.942 63 178.097 62.8359C178.251 62.6719 178.427 62.5391 178.624 62.4375C178.821 62.3359 179.025 62.2676 179.236 62.2324V62.209C179.006 62.1543 178.8 62.0664 178.618 61.9453C178.437 61.8242 178.284 61.6816 178.161 61.5176C178.038 61.3535 177.944 61.1738 177.88 60.9785C177.815 60.7832 177.783 60.582 177.783 60.375C177.783 60.1094 177.839 59.8545 177.95 59.6104C178.062 59.3662 178.227 59.1504 178.445 58.9629C178.664 58.7754 178.936 58.626 179.26 58.5146C179.584 58.4033 179.959 58.3477 180.385 58.3477C180.834 58.3477 181.224 58.4043 181.554 58.5176C181.884 58.6309 182.157 58.7812 182.374 58.9688C182.591 59.1562 182.752 59.373 182.857 59.6191C182.963 59.8652 183.016 60.1211 183.016 60.3867C183.016 60.5898 182.983 60.7891 182.919 60.9844C182.854 61.1797 182.761 61.3594 182.638 61.5234C182.515 61.6875 182.362 61.8291 182.181 61.9482C181.999 62.0674 181.789 62.1504 181.551 62.1973V62.2207C181.789 62.2598 182.01 62.3311 182.213 62.4346C182.416 62.5381 182.593 62.6719 182.743 62.8359C182.894 63 183.011 63.1924 183.095 63.4131C183.179 63.6338 183.221 63.8828 183.221 64.1602ZM181.92 60.4453C181.92 60.2617 181.894 60.0898 181.841 59.9297C181.788 59.7695 181.701 59.6309 181.58 59.5137C181.459 59.3965 181.301 59.3037 181.105 59.2354C180.91 59.167 180.67 59.1328 180.385 59.1328C180.111 59.1328 179.878 59.167 179.685 59.2354C179.491 59.3037 179.333 59.3965 179.21 59.5137C179.087 59.6309 178.998 59.7695 178.943 59.9297C178.889 60.0898 178.861 60.2617 178.861 60.4453C178.861 60.5898 178.883 60.7422 178.926 60.9023C178.969 61.0625 179.047 61.21 179.16 61.3447C179.273 61.4795 179.43 61.5908 179.629 61.6787C179.828 61.7666 180.084 61.8105 180.396 61.8105C180.732 61.8105 181 61.7656 181.199 61.6758C181.398 61.5859 181.552 61.4736 181.659 61.3389C181.767 61.2041 181.837 61.0566 181.87 60.8965C181.903 60.7363 181.92 60.5859 181.92 60.4453ZM182.125 64.0605C182.125 63.8848 182.098 63.71 182.043 63.5361C181.988 63.3623 181.895 63.2061 181.762 63.0674C181.629 62.9287 181.45 62.8164 181.226 62.7305C181.001 62.6445 180.721 62.6016 180.385 62.6016C180.076 62.6016 179.813 62.6445 179.597 62.7305C179.38 62.8164 179.204 62.9297 179.069 63.0703C178.935 63.2109 178.836 63.3691 178.773 63.5449C178.711 63.7207 178.68 63.9004 178.68 64.084C178.68 64.3145 178.711 64.5283 178.773 64.7256C178.836 64.9229 178.936 65.0938 179.072 65.2383C179.209 65.3828 179.389 65.4961 179.611 65.5781C179.834 65.6602 180.104 65.7012 180.42 65.7012C180.744 65.7012 181.015 65.6611 181.231 65.5811C181.448 65.501 181.623 65.3877 181.756 65.2412C181.889 65.0947 181.983 64.9209 182.04 64.7197C182.097 64.5186 182.125 64.2988 182.125 64.0605ZM189.502 64.5059V66.375H188.447V64.5059H184.615V63.6855L188.336 58.4707H189.502V63.6738H190.604V64.5059H189.502ZM188.447 59.6133L185.518 63.6738H188.447V59.6133ZM192.057 66.375V65.6895C192.229 65.3105 192.455 64.9609 192.736 64.6406C193.018 64.3203 193.317 64.0186 193.636 63.7354C193.954 63.4521 194.274 63.1816 194.597 62.9238C194.919 62.666 195.21 62.4111 195.47 62.1592C195.729 61.9072 195.941 61.6514 196.105 61.3916C196.27 61.1318 196.352 60.8574 196.352 60.5684C196.352 60.334 196.313 60.1318 196.237 59.9619C196.161 59.792 196.054 59.6514 195.915 59.54C195.776 59.4287 195.612 59.3467 195.423 59.2939C195.233 59.2412 195.023 59.2148 194.793 59.2148C194.582 59.2148 194.386 59.2441 194.204 59.3027C194.022 59.3613 193.863 59.4492 193.727 59.5664C193.59 59.6836 193.479 59.8291 193.393 60.0029C193.307 60.1768 193.25 60.3789 193.223 60.6094L192.145 60.5098C192.18 60.2129 192.26 59.9336 192.385 59.6719C192.51 59.4102 192.681 59.1807 192.897 58.9834C193.114 58.7861 193.381 58.6309 193.697 58.5176C194.014 58.4043 194.379 58.3477 194.793 58.3477C195.203 58.3477 195.571 58.3945 195.897 58.4883C196.224 58.582 196.501 58.7197 196.729 58.9014C196.958 59.083 197.133 59.3086 197.254 59.5781C197.375 59.8477 197.436 60.1562 197.436 60.5039C197.436 60.8711 197.352 61.2119 197.184 61.5264C197.016 61.8408 196.8 62.1387 196.536 62.4199C196.272 62.7012 195.98 62.9688 195.66 63.2227C195.34 63.4766 195.027 63.7285 194.723 63.9785C194.418 64.2285 194.141 64.4795 193.891 64.7314C193.641 64.9834 193.453 65.2461 193.328 65.5195H197.564V66.375H192.057ZM200.371 63.6562V62.7188H203.652V63.6562H200.371ZM212.383 66.375H206.043V65.5371L210.836 59.3848H206.471V58.4707H212.107V59.2852L207.314 65.4609H212.383V66.375Z" fill="#9CA3AF"/>
<rect x="48.5" y="100.5" width="343" height="41" rx="15.5" fill="#F9FAFB"/>
<rect x="48.5" y="100.5" width="343" height="41" rx="15.5" stroke="#F3F4F6"/>
<path d="M63.3333 124.5H68V123.333H63.3333V124.5ZM63.3333 122.167H68V121H63.3333V122.167ZM62.1667 126.833C61.8458 126.833 61.5712 126.719 61.3427 126.49C61.1142 126.262 61 125.987 61 125.667V116.333C61 116.012 61.1142 115.738 61.3427 115.509C61.5712 115.281 61.8458 115.167 62.1667 115.167H66.8333L70.3333 118.667V125.667C70.3333 125.987 70.2191 126.262 69.9906 126.49C69.7622 126.719 69.4875 126.833 69.1667 126.833H62.1667ZM66.25 119.25V116.333H62.1667V125.667H69.1667V119.25H66.25ZM62.1667 116.333V119.25V116.333V119.25V125.667V116.333Z" fill="#9CA3AF"/>
<path d="M82.7979 117.432V124H81.0693V117.432H78.6904V116.096H85.1768V117.432H82.7979ZM86.3369 124V116.096H92.0088V117.432H88.0654V119.33H91.6514V120.666H88.0654V122.664H92.249V124H86.3369ZM94.9619 120.01C94.9619 120.889 95.0986 121.566 95.3721 122.043C95.6455 122.52 96.0537 122.758 96.5967 122.758C96.7725 122.758 96.9326 122.723 97.0771 122.652C97.2217 122.582 97.3516 122.483 97.4668 122.356C97.582 122.229 97.6836 122.078 97.7715 121.902C97.8594 121.727 97.9365 121.535 98.0029 121.328L99.6025 121.633C99.4814 122.02 99.3301 122.366 99.1484 122.673C98.9668 122.979 98.752 123.239 98.5039 123.452C98.2559 123.665 97.9727 123.829 97.6543 123.944C97.3359 124.06 96.9775 124.117 96.5791 124.117C95.9854 124.117 95.4756 124.019 95.0498 123.821C94.624 123.624 94.2744 123.346 94.001 122.986C93.7275 122.627 93.5264 122.195 93.3975 121.691C93.2686 121.188 93.2041 120.627 93.2041 120.01C93.2041 119.357 93.2705 118.781 93.4033 118.281C93.5361 117.781 93.7402 117.359 94.0156 117.016C94.291 116.672 94.6377 116.412 95.0557 116.236C95.4736 116.061 95.9658 115.973 96.5322 115.973C96.9385 115.973 97.2988 116.029 97.6133 116.143C97.9277 116.256 98.2031 116.413 98.4395 116.614C98.6758 116.815 98.876 117.056 99.04 117.335C99.2041 117.614 99.3369 117.92 99.4385 118.252L97.8447 118.639C97.7939 118.451 97.7285 118.277 97.6484 118.117C97.5684 117.957 97.4736 117.818 97.3643 117.701C97.2549 117.584 97.1328 117.493 96.998 117.429C96.8633 117.364 96.7158 117.332 96.5557 117.332C96.0244 117.332 95.626 117.558 95.3604 118.009C95.0947 118.46 94.9619 119.127 94.9619 120.01ZM104.601 124V120.637H102.474V124H100.745V116.096H102.474V119.207H104.601V116.096H106.329V124H104.601ZM117.046 117.432V119.682H120.685V121.018H117.046V124H115.317V116.096H120.819V117.432H117.046ZM122.46 116.096H127.827V117.432H126.005V122.664H127.827V124H122.46V122.664H124.282V117.432H122.46V116.096ZM129.978 124V116.096H131.706V122.664H135.315V124H129.978ZM136.745 124V116.096H142.417V117.432H138.474V119.33H142.06V120.666H138.474V122.664H142.657V124H136.745Z" fill="#4B5563"/>
<path d="M371.4 124.067L376.1 119.367L375.167 118.433L371.4 122.2L369.5 120.3L368.567 121.233L371.4 124.067ZM372.334 127.667C371.411 127.667 370.545 127.492 369.734 127.142C368.923 126.792 368.217 126.317 367.617 125.717C367.017 125.117 366.542 124.411 366.192 123.6C365.842 122.789 365.667 121.922 365.667 121C365.667 120.078 365.842 119.211 366.192 118.4C366.542 117.589 367.017 116.883 367.617 116.283C368.217 115.683 368.923 115.208 369.734 114.858C370.545 114.508 371.411 114.333 372.334 114.333C373.256 114.333 374.123 114.508 374.934 114.858C375.745 115.208 376.45 115.683 377.05 116.283C377.65 116.883 378.125 117.589 378.475 118.4C378.825 119.211 379 120.078 379 121C379 121.922 378.825 122.789 378.475 123.6C378.125 124.411 377.65 125.117 377.05 125.717C376.45 126.317 375.745 126.792 374.934 127.142C374.123 127.492 373.256 127.667 372.334 127.667ZM372.334 126.333C373.823 126.333 375.084 125.817 376.117 124.783C377.15 123.75 377.667 122.489 377.667 121C377.667 119.511 377.15 118.25 376.117 117.217C375.084 116.183 373.823 115.667 372.334 115.667C370.845 115.667 369.584 116.183 368.55 117.217C367.517 118.25 367 119.511 367 121C367 122.489 367.517 123.75 368.55 124.783C369.584 125.817 370.845 126.333 372.334 126.333Z" fill="#22C55E"/>
<rect x="48.5" y="154.5" width="343" height="41" rx="15.5" fill="#F9FAFB"/>
<rect x="48.5" y="154.5" width="343" height="41" rx="15.5" stroke="#F3F4F6"/>
<path d="M61 180.25V178.617C61 178.296 61.0826 177.994 61.2479 177.713C61.4132 177.431 61.6417 177.217 61.9333 177.071C62.4292 176.818 62.9882 176.604 63.6104 176.429C64.2326 176.254 64.9181 176.167 65.6667 176.167C66.4153 176.167 67.1007 176.254 67.7229 176.429C68.3451 176.604 68.9042 176.818 69.4 177.071C69.6917 177.217 69.9201 177.431 70.0854 177.713C70.2507 177.994 70.3333 178.296 70.3333 178.617V180.25H61ZM62.1667 179.083H69.1667V178.617C69.1667 178.51 69.1399 178.412 69.0865 178.325C69.033 178.238 68.9625 178.169 68.875 178.121C68.525 177.946 68.0753 177.771 67.526 177.596C66.9767 177.421 66.3569 177.333 65.6667 177.333C64.9764 177.333 64.3566 177.421 63.8073 177.596C63.258 177.771 62.8083 177.946 62.4583 178.121C62.3708 178.169 62.3003 178.238 62.2469 178.325C62.1934 178.412 62.1667 178.51 62.1667 178.617V179.083ZM65.6667 175.583C65.025 175.583 64.4757 175.355 64.0187 174.898C63.5618 174.441 63.3333 173.892 63.3333 173.25H63.1875C63.1 173.25 63.0295 173.223 62.976 173.17C62.9226 173.116 62.8958 173.046 62.8958 172.958C62.8958 172.871 62.9226 172.8 62.976 172.747C63.0295 172.693 63.1 172.667 63.1875 172.667H63.3333C63.3333 172.229 63.4403 171.835 63.6542 171.485C63.8681 171.135 64.15 170.858 64.5 170.654V171.208C64.5 171.296 64.5267 171.366 64.5802 171.42C64.6337 171.473 64.7042 171.5 64.7917 171.5C64.8792 171.5 64.9497 171.473 65.0031 171.42C65.0566 171.366 65.0833 171.296 65.0833 171.208V170.421C65.1708 170.392 65.2632 170.37 65.3604 170.355C65.4576 170.341 65.5597 170.333 65.6667 170.333C65.7736 170.333 65.8757 170.341 65.9729 170.355C66.0701 170.37 66.1625 170.392 66.25 170.421V171.208C66.25 171.296 66.2767 171.366 66.3302 171.42C66.3837 171.473 66.4542 171.5 66.5417 171.5C66.6292 171.5 66.6997 171.473 66.7531 171.42C66.8066 171.366 66.8333 171.296 66.8333 171.208V170.654C67.1833 170.858 67.4653 171.135 67.6792 171.485C67.8931 171.835 68 172.229 68 172.667H68.1458C68.2333 172.667 68.3038 172.693 68.3573 172.747C68.4108 172.8 68.4375 172.871 68.4375 172.958C68.4375 173.046 68.4108 173.116 68.3573 173.17C68.3038 173.223 68.2333 173.25 68.1458 173.25H68C68 173.892 67.7715 174.441 67.3146 174.898C66.8576 175.355 66.3083 175.583 65.6667 175.583ZM65.6667 174.417C65.9875 174.417 66.2622 174.302 66.4906 174.074C66.7191 173.845 66.8333 173.571 66.8333 173.25H64.5C64.5 173.571 64.6142 173.845 64.8427 174.074C65.0712 174.302 65.3458 174.417 65.6667 174.417ZM70.0417 176.75L69.9542 176.312C69.8958 176.293 69.8399 176.271 69.7865 176.247C69.733 176.223 69.6819 176.186 69.6333 176.137L69.225 176.283L68.9333 175.758L69.2542 175.467C69.2542 175.438 69.2542 175.408 69.2542 175.379C69.2542 175.35 69.2542 175.321 69.2542 175.292C69.2542 175.262 69.2542 175.233 69.2542 175.204C69.2542 175.175 69.2542 175.146 69.2542 175.117L68.9333 174.825L69.225 174.3L69.6333 174.446C69.6722 174.407 69.7208 174.373 69.7792 174.344C69.8375 174.315 69.8958 174.29 69.9542 174.271L70.0417 173.833H70.625L70.7125 174.271C70.7708 174.29 70.8292 174.315 70.8875 174.344C70.9458 174.373 70.9944 174.407 71.0333 174.446L71.4417 174.3L71.7333 174.825L71.4125 175.117C71.4125 175.146 71.4125 175.175 71.4125 175.204C71.4125 175.233 71.4125 175.262 71.4125 175.292C71.4125 175.321 71.4125 175.35 71.4125 175.379C71.4125 175.408 71.4125 175.438 71.4125 175.467L71.7333 175.758L71.4417 176.283L71.0333 176.137C70.9847 176.186 70.9337 176.223 70.8802 176.247C70.8267 176.271 70.7708 176.293 70.7125 176.312L70.625 176.75H70.0417ZM70.3333 175.729C70.45 175.729 70.5521 175.685 70.6396 175.598C70.7271 175.51 70.7708 175.408 70.7708 175.292C70.7708 175.175 70.7271 175.073 70.6396 174.985C70.5521 174.898 70.45 174.854 70.3333 174.854C70.2167 174.854 70.1146 174.898 70.0271 174.985C69.9396 175.073 69.8958 175.175 69.8958 175.292C69.8958 175.408 69.9396 175.51 70.0271 175.598C70.1146 175.685 70.2167 175.729 70.3333 175.729ZM71.3833 173.833L71.2667 173.221C71.1792 173.192 71.099 173.155 71.026 173.111C70.9531 173.068 70.8875 173.017 70.8292 172.958L70.2167 173.162L69.8083 172.463L70.3042 172.025C70.2847 171.976 70.275 171.938 70.275 171.908C70.275 171.879 70.275 171.84 70.275 171.792C70.275 171.743 70.275 171.704 70.275 171.675C70.275 171.646 70.2847 171.607 70.3042 171.558L69.8083 171.121L70.2167 170.421L70.8292 170.625C70.8875 170.567 70.9531 170.516 71.026 170.472C71.099 170.428 71.1792 170.392 71.2667 170.363L71.3833 169.75H72.2L72.3167 170.363C72.4042 170.392 72.4844 170.428 72.5573 170.472C72.6302 170.516 72.6958 170.567 72.7542 170.625L73.3667 170.421L73.775 171.121L73.2792 171.558C73.2986 171.607 73.3083 171.646 73.3083 171.675C73.3083 171.704 73.3083 171.743 73.3083 171.792C73.3083 171.84 73.3083 171.879 73.3083 171.908C73.3083 171.938 73.2986 171.976 73.2792 172.025L73.775 172.463L73.3667 173.162L72.7542 172.958C72.6958 173.017 72.6302 173.068 72.5573 173.111C72.4844 173.155 72.4042 173.192 72.3167 173.221L72.2 173.833H71.3833ZM71.7917 172.521C71.9958 172.521 72.1684 172.45 72.3094 172.309C72.4503 172.168 72.5208 171.996 72.5208 171.792C72.5208 171.588 72.4503 171.415 72.3094 171.274C72.1684 171.133 71.9958 171.062 71.7917 171.062C71.5875 171.062 71.4149 171.133 71.274 171.274C71.133 171.415 71.0625 171.588 71.0625 171.792C71.0625 171.996 71.133 172.168 71.274 172.309C71.4149 172.45 71.5875 172.521 71.7917 172.521Z" fill="#9CA3AF"/>
<path d="M88.5547 174.021C88.5547 175.146 88.3662 176.041 87.9893 176.705C87.6123 177.369 87.0625 177.801 86.3398 178C86.418 178.215 86.5098 178.393 86.6152 178.533C86.7207 178.674 86.8389 178.785 86.9697 178.867C87.1006 178.949 87.2441 179.007 87.4004 179.04C87.5566 179.073 87.7227 179.09 87.8984 179.09C88.0117 179.09 88.1309 179.082 88.2559 179.066C88.3809 179.051 88.502 179.033 88.6191 179.014V180.197C88.4082 180.244 88.1875 180.283 87.957 180.314C87.7266 180.346 87.4746 180.361 87.2012 180.361C86.8301 180.361 86.5049 180.305 86.2256 180.191C85.9463 180.078 85.7041 179.919 85.499 179.714C85.2939 179.509 85.1191 179.264 84.9746 178.979C84.8301 178.693 84.7051 178.381 84.5996 178.041C83.8184 177.877 83.2227 177.459 82.8125 176.787C82.4023 176.115 82.1973 175.193 82.1973 174.021C82.1973 172.674 82.4717 171.662 83.0205 170.986C83.5693 170.311 84.3555 169.973 85.3789 169.973C86.4023 169.973 87.1875 170.311 87.7344 170.986C88.2812 171.662 88.5547 172.674 88.5547 174.021ZM86.8027 174.021C86.8027 173.111 86.6836 172.436 86.4453 171.994C86.207 171.553 85.8516 171.332 85.3789 171.332C84.9062 171.332 84.5498 171.556 84.3096 172.003C84.0693 172.45 83.9492 173.123 83.9492 174.021C83.9492 174.92 84.0693 175.601 84.3096 176.063C84.5498 176.526 84.9062 176.758 85.3789 176.758C85.8516 176.758 86.207 176.526 86.4453 176.063C86.6836 175.601 86.8027 174.92 86.8027 174.021ZM96.1777 178H94.4551L93.916 176.066H91.2441L90.7051 178H88.9766L91.5723 170.096H93.5879L96.1777 178ZM92.5801 171.162C92.5723 171.201 92.5576 171.27 92.5361 171.367C92.5146 171.465 92.4883 171.576 92.457 171.701C92.4258 171.826 92.3916 171.962 92.3545 172.108C92.3174 172.255 92.2793 172.398 92.2402 172.539L91.6074 174.766H93.5527L92.9199 172.539C92.8809 172.398 92.8428 172.255 92.8057 172.108C92.7686 171.962 92.7344 171.826 92.7031 171.701C92.6719 171.576 92.6455 171.465 92.624 171.367C92.6025 171.27 92.5879 171.201 92.5801 171.162ZM110.205 175.709C110.205 176.053 110.139 176.372 110.006 176.667C109.873 176.962 109.672 177.217 109.402 177.432C109.133 177.646 108.795 177.814 108.389 177.936C107.982 178.057 107.506 178.117 106.959 178.117C106.041 178.117 105.293 177.924 104.715 177.537C104.137 177.15 103.766 176.588 103.602 175.85L105.271 175.633C105.361 176 105.549 176.29 105.834 176.503C106.119 176.716 106.51 176.822 107.006 176.822C107.24 176.822 107.45 176.805 107.636 176.77C107.821 176.734 107.98 176.678 108.113 176.6C108.246 176.521 108.348 176.417 108.418 176.286C108.488 176.155 108.523 175.996 108.523 175.809C108.523 175.598 108.462 175.425 108.339 175.29C108.216 175.155 108.06 175.044 107.87 174.956C107.681 174.868 107.471 174.796 107.24 174.739C107.01 174.683 106.787 174.625 106.572 174.566C106.389 174.516 106.196 174.46 105.995 174.399C105.794 174.339 105.598 174.266 105.406 174.18C105.215 174.094 105.033 173.993 104.861 173.878C104.689 173.763 104.539 173.625 104.41 173.465C104.281 173.305 104.179 173.12 104.103 172.911C104.026 172.702 103.988 172.463 103.988 172.193C103.988 171.811 104.071 171.479 104.237 171.2C104.403 170.921 104.625 170.69 104.902 170.509C105.18 170.327 105.498 170.192 105.857 170.104C106.217 170.017 106.592 169.973 106.982 169.973C107.857 169.973 108.541 170.146 109.033 170.491C109.525 170.837 109.844 171.373 109.988 172.1L108.312 172.27C108.227 171.914 108.072 171.646 107.85 171.467C107.627 171.287 107.326 171.197 106.947 171.197C106.701 171.197 106.497 171.222 106.335 171.271C106.173 171.319 106.042 171.386 105.942 171.47C105.843 171.554 105.772 171.649 105.731 171.757C105.69 171.864 105.67 171.977 105.67 172.094C105.67 172.281 105.719 172.437 105.816 172.56C105.914 172.683 106.042 172.785 106.2 172.867C106.358 172.949 106.54 173.019 106.745 173.075C106.95 173.132 107.158 173.188 107.369 173.242C107.576 173.293 107.789 173.351 108.008 173.415C108.227 173.479 108.441 173.556 108.652 173.644C108.863 173.731 109.062 173.835 109.25 173.954C109.438 174.073 109.602 174.215 109.742 174.379C109.883 174.543 109.995 174.734 110.079 174.953C110.163 175.172 110.205 175.424 110.205 175.709ZM111.5 170.096H116.867V171.432H115.045V176.664H116.867V178H111.5V176.664H113.322V171.432H111.5V170.096ZM124.391 176.916C124.242 177.041 124.069 177.174 123.872 177.314C123.675 177.455 123.454 177.585 123.21 177.704C122.966 177.823 122.701 177.922 122.416 178C122.131 178.078 121.826 178.117 121.502 178.117C120.951 178.117 120.472 178.015 120.063 177.81C119.655 177.604 119.316 177.32 119.047 176.957C118.777 176.594 118.577 176.161 118.446 175.659C118.315 175.157 118.25 174.607 118.25 174.01C118.25 173.357 118.314 172.78 118.443 172.278C118.572 171.776 118.771 171.354 119.038 171.013C119.306 170.671 119.645 170.412 120.055 170.236C120.465 170.061 120.953 169.973 121.52 169.973C121.91 169.973 122.253 170.025 122.548 170.131C122.843 170.236 123.099 170.386 123.315 170.579C123.532 170.772 123.715 171.004 123.863 171.273C124.012 171.543 124.133 171.842 124.227 172.17L122.621 172.486C122.516 172.096 122.371 171.806 122.188 171.616C122.004 171.427 121.787 171.332 121.537 171.332C121.256 171.332 121.018 171.39 120.822 171.505C120.627 171.62 120.469 171.79 120.348 172.015C120.227 172.239 120.139 172.519 120.084 172.853C120.029 173.187 120.002 173.572 120.002 174.01C120.002 174.881 120.133 175.553 120.395 176.025C120.656 176.498 121.055 176.734 121.59 176.734C121.738 176.734 121.878 176.718 122.009 176.685C122.14 176.651 122.257 176.612 122.36 176.567C122.464 176.522 122.554 176.476 122.63 176.427C122.706 176.378 122.766 176.336 122.809 176.301V174.924H121.203V173.646H124.391V176.916ZM129.365 178L127.115 172.082C127.146 172.363 127.174 172.633 127.197 172.891C127.209 173 127.22 173.113 127.229 173.23C127.239 173.348 127.248 173.462 127.256 173.573C127.264 173.685 127.27 173.79 127.273 173.89C127.277 173.989 127.279 174.078 127.279 174.156V178H125.773V170.096H127.748L130.051 176.172C130.02 175.91 129.992 175.65 129.969 175.393C129.949 175.17 129.931 174.937 129.913 174.692C129.896 174.448 129.887 174.229 129.887 174.033V170.096H131.393V178H129.365ZM134.082 175.604V174.174H137.48V175.604H134.082ZM146.164 174.021C146.164 175.369 145.891 176.389 145.344 177.08C144.797 177.771 144.012 178.117 142.988 178.117C141.965 178.117 141.179 177.771 140.63 177.08C140.081 176.389 139.807 175.369 139.807 174.021C139.807 172.674 140.081 171.662 140.63 170.986C141.179 170.311 141.965 169.973 142.988 169.973C144.012 169.973 144.797 170.311 145.344 170.986C145.891 171.662 146.164 172.674 146.164 174.021ZM144.412 174.021C144.412 173.111 144.293 172.436 144.055 171.994C143.816 171.553 143.461 171.332 142.988 171.332C142.516 171.332 142.159 171.556 141.919 172.003C141.679 172.45 141.559 173.123 141.559 174.021C141.559 174.92 141.679 175.601 141.919 176.063C142.159 176.526 142.516 176.758 142.988 176.758C143.461 176.758 143.816 176.526 144.055 176.063C144.293 175.601 144.412 174.92 144.412 174.021ZM149.293 171.432V173.682H152.932V175.018H149.293V178H147.564V170.096H153.066V171.432H149.293ZM156.494 171.432V173.682H160.133V175.018H156.494V178H154.766V170.096H160.268V171.432H156.494Z" fill="#4B5563"/>
<path d="M371.4 178.067L376.1 173.367L375.167 172.433L371.4 176.2L369.5 174.3L368.567 175.233L371.4 178.067ZM372.334 181.667C371.411 181.667 370.545 181.492 369.734 181.142C368.923 180.792 368.217 180.317 367.617 179.717C367.017 179.117 366.542 178.411 366.192 177.6C365.842 176.789 365.667 175.922 365.667 175C365.667 174.078 365.842 173.211 366.192 172.4C366.542 171.589 367.017 170.883 367.617 170.283C368.217 169.683 368.923 169.208 369.734 168.858C370.545 168.508 371.411 168.333 372.334 168.333C373.256 168.333 374.123 168.508 374.934 168.858C375.745 169.208 376.45 169.683 377.05 170.283C377.65 170.883 378.125 171.589 378.475 172.4C378.825 173.211 379 174.078 379 175C379 175.922 378.825 176.789 378.475 177.6C378.125 178.411 377.65 179.117 377.05 179.717C376.45 180.317 375.745 180.792 374.934 181.142C374.123 181.492 373.256 181.667 372.334 181.667ZM372.334 180.333C373.823 180.333 375.084 179.817 376.117 178.783C377.15 177.75 377.667 176.489 377.667 175C377.667 173.511 377.15 172.25 376.117 171.217C375.084 170.183 373.823 169.667 372.334 169.667C370.845 169.667 369.584 170.183 368.55 171.217C367.517 172.25 367 173.511 367 175C367 176.489 367.517 177.75 368.55 178.783C369.584 179.817 370.845 180.333 372.334 180.333Z" fill="#22C55E"/>
<mask id="path-16-inside-1_23_1730" fill="white">
<path d="M48 228H392V268H48V228Z"/>
</mask>
<path d="M48 228V229H392V228V227H48V228Z" fill="#F3F4F6" mask="url(#path-16-inside-1_23_1730)"/>
<rect x="146.31" y="245" width="147.38" height="23" rx="11.5" fill="#DCFCE7"/>
<rect x="158.31" y="253.5" width="6" height="6" rx="3" fill="#22C55E"/>
<path d="M171.23 260V253H174.27C174.71 253 175.093 253.077 175.42 253.23C175.746 253.383 176 253.6 176.18 253.88C176.36 254.16 176.45 254.49 176.45 254.87V254.99C176.45 255.41 176.35 255.75 176.15 256.01C175.95 256.27 175.703 256.46 175.41 256.58V256.76C175.676 256.773 175.883 256.865 176.03 257.035C176.176 257.205 176.25 257.43 176.25 257.71V260H174.93V257.9C174.93 257.74 174.888 257.61 174.805 257.51C174.721 257.41 174.583 257.36 174.39 257.36H172.55V260H171.23ZM172.55 256.16H174.13C174.443 256.16 174.688 256.075 174.865 255.905C175.041 255.735 175.13 255.51 175.13 255.23V255.13C175.13 254.85 175.043 254.625 174.87 254.455C174.696 254.285 174.45 254.2 174.13 254.2H172.55V256.16ZM178.05 260V253H182.55V254.2H179.37V255.87H182.27V257.07H179.37V258.8H182.61V260H178.05ZM183.61 260L185.45 253H187.75L189.59 260H188.23L187.85 258.46H185.35L184.97 260H183.61ZM185.66 257.24H187.54L186.69 253.83H186.51L185.66 257.24ZM190.73 260V258.84H191.65V254.16H190.73V253H193.61C194.55 253 195.265 253.238 195.755 253.715C196.245 254.192 196.49 254.9 196.49 255.84V257.16C196.49 258.1 196.245 258.808 195.755 259.285C195.265 259.762 194.55 260 193.61 260H190.73ZM192.97 258.8H193.63C194.163 258.8 194.553 258.66 194.8 258.38C195.046 258.1 195.17 257.707 195.17 257.2V255.8C195.17 255.287 195.046 254.892 194.8 254.615C194.553 254.338 194.163 254.2 193.63 254.2H192.97V258.8ZM199.61 260V257.59L197.23 253H198.7L200.18 256H200.36L201.84 253H203.31L200.93 257.59V260H199.61ZM207.49 260V253H211.89V254.2H208.81V255.89H211.65V257.09H208.81V260H207.49ZM215.99 260.14C215.11 260.14 214.41 259.898 213.89 259.415C213.37 258.932 213.11 258.24 213.11 257.34V255.66C213.11 254.76 213.37 254.068 213.89 253.585C214.41 253.102 215.11 252.86 215.99 252.86C216.87 252.86 217.57 253.102 218.09 253.585C218.61 254.068 218.87 254.76 218.87 255.66V257.34C218.87 258.24 218.61 258.932 218.09 259.415C217.57 259.898 216.87 260.14 215.99 260.14ZM215.99 258.96C216.483 258.96 216.866 258.817 217.14 258.53C217.413 258.243 217.55 257.86 217.55 257.38V255.62C217.55 255.14 217.413 254.757 217.14 254.47C216.866 254.183 216.483 254.04 215.99 254.04C215.503 254.04 215.121 254.183 214.845 254.47C214.568 254.757 214.43 255.14 214.43 255.62V257.38C214.43 257.86 214.568 258.243 214.845 258.53C215.121 258.817 215.503 258.96 215.99 258.96ZM220.53 260V253H223.57C224.01 253 224.393 253.077 224.72 253.23C225.046 253.383 225.3 253.6 225.48 253.88C225.66 254.16 225.75 254.49 225.75 254.87V254.99C225.75 255.41 225.65 255.75 225.45 256.01C225.25 256.27 225.003 256.46 224.71 256.58V256.76C224.976 256.773 225.183 256.865 225.33 257.035C225.476 257.205 225.55 257.43 225.55 257.71V260H224.23V257.9C224.23 257.74 224.188 257.61 224.105 257.51C224.021 257.41 223.883 257.36 223.69 257.36H221.85V260H220.53ZM221.85 256.16H223.43C223.743 256.16 223.988 256.075 224.165 255.905C224.341 255.735 224.43 255.51 224.43 255.23V255.13C224.43 254.85 224.343 254.625 224.17 254.455C223.996 254.285 223.75 254.2 223.43 254.2H221.85V256.16ZM231.71 260V254.2H229.67V253H235.07V254.2H233.03V260H231.71ZM236.47 260V253H239.51C239.95 253 240.333 253.077 240.66 253.23C240.986 253.383 241.24 253.6 241.42 253.88C241.6 254.16 241.69 254.49 241.69 254.87V254.99C241.69 255.41 241.59 255.75 241.39 256.01C241.19 256.27 240.943 256.46 240.65 256.58V256.76C240.916 256.773 241.123 256.865 241.27 257.035C241.416 257.205 241.49 257.43 241.49 257.71V260H240.17V257.9C240.17 257.74 240.128 257.61 240.045 257.51C239.961 257.41 239.823 257.36 239.63 257.36H237.79V260H236.47ZM237.79 256.16H239.37C239.683 256.16 239.928 256.075 240.105 255.905C240.281 255.735 240.37 255.51 240.37 255.23V255.13C240.37 254.85 240.283 254.625 240.11 254.455C239.936 254.285 239.69 254.2 239.37 254.2H237.79V256.16ZM242.81 260L244.65 253H246.95L248.79 260H247.43L247.05 258.46H244.55L244.17 260H242.81ZM244.86 257.24H246.74L245.89 253.83H245.71L244.86 257.24ZM250.13 260V253H252.64L254.03 259.1H254.21V253H255.51V260H253L251.61 253.9H251.43V260H250.13ZM259.76 260.14C259.22 260.14 258.743 260.043 258.33 259.85C257.916 259.657 257.593 259.38 257.36 259.02C257.126 258.66 257.01 258.227 257.01 257.72V257.44H258.31V257.72C258.31 258.14 258.44 258.455 258.7 258.665C258.96 258.875 259.313 258.98 259.76 258.98C260.213 258.98 260.551 258.89 260.775 258.71C260.998 258.53 261.11 258.3 261.11 258.02C261.11 257.827 261.055 257.67 260.945 257.55C260.835 257.43 260.675 257.332 260.465 257.255C260.255 257.178 260 257.107 259.7 257.04L259.47 256.99C258.99 256.883 258.578 256.748 258.235 256.585C257.891 256.422 257.628 256.207 257.445 255.94C257.261 255.673 257.17 255.327 257.17 254.9C257.17 254.473 257.271 254.108 257.475 253.805C257.678 253.502 257.965 253.268 258.335 253.105C258.705 252.942 259.14 252.86 259.64 252.86C260.14 252.86 260.585 252.945 260.975 253.115C261.365 253.285 261.671 253.538 261.895 253.875C262.118 254.212 262.23 254.633 262.23 255.14V255.44H260.93V255.14C260.93 254.873 260.878 254.658 260.775 254.495C260.671 254.332 260.523 254.212 260.33 254.135C260.136 254.058 259.906 254.02 259.64 254.02C259.24 254.02 258.945 254.095 258.755 254.245C258.565 254.395 258.47 254.6 258.47 254.86C258.47 255.033 258.515 255.18 258.605 255.3C258.695 255.42 258.83 255.52 259.01 255.6C259.19 255.68 259.42 255.75 259.7 255.81L259.93 255.86C260.43 255.967 260.865 256.103 261.235 256.27C261.605 256.437 261.893 256.657 262.1 256.93C262.306 257.203 262.41 257.553 262.41 257.98C262.41 258.407 262.301 258.782 262.085 259.105C261.868 259.428 261.561 259.682 261.165 259.865C260.768 260.048 260.3 260.14 259.76 260.14ZM263.89 260V253H268.29V254.2H265.21V255.89H268.05V257.09H265.21V260H263.89ZM269.73 260V253H274.23V254.2H271.05V255.87H273.95V257.07H271.05V258.8H274.29V260H269.73ZM275.77 260V253H278.81C279.25 253 279.633 253.077 279.96 253.23C280.286 253.383 280.54 253.6 280.72 253.88C280.9 254.16 280.99 254.49 280.99 254.87V254.99C280.99 255.41 280.89 255.75 280.69 256.01C280.49 256.27 280.243 256.46 279.95 256.58V256.76C280.216 256.773 280.423 256.865 280.57 257.035C280.716 257.205 280.79 257.43 280.79 257.71V260H279.47V257.9C279.47 257.74 279.428 257.61 279.345 257.51C279.261 257.41 279.123 257.36 278.93 257.36H277.09V260H275.77ZM277.09 256.16H278.67C278.983 256.16 279.228 256.075 279.405 255.905C279.581 255.735 279.67 255.51 279.67 255.23V255.13C279.67 254.85 279.583 254.625 279.41 254.455C279.236 254.285 278.99 254.2 278.67 254.2H277.09V256.16Z" fill="#15803D"/>
</g>
<defs>
<filter id="filter0_dd_23_1730" x="0" y="0" width="440" height="336" filterUnits="userSpaceOnUse" color-interpolation-filters="sRGB">
<feFlood flood-opacity="0" result="BackgroundImageFix"/>
<feColorMatrix in="SourceAlpha" type="matrix" values="0 0 0 0 0 0 0 0 0 0 0 0 0 0 0 0 0 0 127 0" result="hardAlpha"/>
<feMorphology radius="6" operator="erode" in="SourceAlpha" result="effect1_dropShadow_23_1730"/>
<feOffset dy="8"/>
<feGaussianBlur stdDeviation="5"/>
<feComposite in2="hardAlpha" operator="out"/>
<feColorMatrix type="matrix" values="0 0 0 0 0 0 0 0 0 0 0 0 0 0 0 0 0 0 0.1 0"/>
<feBlend mode="normal" in2="BackgroundImageFix" result="effect1_dropShadow_23_1730"/>
<feColorMatrix in="SourceAlpha" type="matrix" values="0 0 0 0 0 0 0 0 0 0 0 0 0 0 0 0 0 0 127 0" result="hardAlpha"/>
<feMorphology radius="5" operator="erode" in="SourceAlpha" result="effect2_dropShadow_23_1730"/>
<feOffset dy="20"/>
<feGaussianBlur stdDeviation="12.5"/>
<feComposite in2="hardAlpha" operator="out"/>
<feColorMatrix type="matrix" values="0 0 0 0 0 0 0 0 0 0 0 0 0 0 0 0 0 0 0.1 0"/>
<feBlend mode="normal" in2="effect1_dropShadow_23_1730" result="effect2_dropShadow_23_1730"/>
<feBlend mode="normal" in="SourceGraphic" in2="effect2_dropShadow_23_1730" result="shape"/>
</filter>
<linearGradient id="paint0_linear_23_1730" x1="78.4647" y1="-43.2639" x2="361.535" y2="339.264" gradientUnits="userSpaceOnUse">
<stop stop-color="#F3F4F6"/>
<stop offset="1" stop-color="#E5E7EB"/>
</linearGradient>
<clipPath id="clip0_23_1730">
<rect x="24" y="4" width="392" height="288" rx="24" fill="white"/>
</clipPath>
</defs>
</svg>
